<?xml version="1.0" standalone="no"?>
<!DOCTYPE svg PUBLIC "-//W3C//DTD SVG 1.1//EN" "http://www.w3.org/Graphics/SVG/1.1/DTD/svg11.dtd" >
<svg xmlns="http://www.w3.org/2000/svg" xmlns:xlink="http://www.w3.org/1999/xlink" version="1.1">
<metadata></metadata>
<defs>
<font id="ristretto_slab_promedium" horiz-adv-x="325" >
<font-face units-per-em="1000" ascent="750" descent="-250" />
<missing-glyph horiz-adv-x="160" />
<glyph unicode="&#x2019;&#x407;" horiz-adv-x="279" d="M133 642v58h120v-58h-25v-584h25v-58h-120v58h24v584h-24zM20 627q27 65 27 123v100h69v-100q0 -26 -9.5 -56.5t-18.5 -48.5l-10 -18h-58zM236 750v100h60v-100h-60z" />
<glyph unicode="&#x407;&#x407;" horiz-adv-x="331" d="M25 642v58h120v-58h-24v-584h24v-58h-120v58h25v584h-25zM185 642v58h121v-58h-25v-584h25v-58h-121v58h25v584h-25zM-17 750v100h60v-100h-60zM135 750v100h61v-100h-61zM288 750v100h61v-100h-61z" />
<glyph unicode="&#x2019;&#x457;" horiz-adv-x="268" d="M123 442v58h96v-442h24v-58h-120v58h25v384h-25zM20 502q27 65 27 122v101h69v-101q0 -25 -9.5 -55.5t-18.5 -48.5l-10 -18h-58zM226 587v101h61v-101h-61z" />
<glyph unicode="&#x457;&#x457;" horiz-adv-x="331" d="M185 442v58h96v-442h25v-58h-121v58h25v384h-25zM25 442v58h96v-442h24v-58h-120v58h25v384h-25zM136 587v101h60v-101h-60zM-17 587v101h60v-101h-60zM288 587v101h61v-101h-61z" />
<glyph unicode=" "  horiz-adv-x="160" />
<glyph unicode="&#x09;" horiz-adv-x="160" />
<glyph unicode="&#xa0;" horiz-adv-x="160" />
<glyph unicode="!" horiz-adv-x="160" d="M45 188v512h71v-512h-71zM45 0v100h71v-100h-71z" />
<glyph unicode="&#x22;" horiz-adv-x="253" d="M42 550v175h56v-175h-56zM155 550v175h56v-175h-56z" />
<glyph unicode="#" horiz-adv-x="368" d="M74 0v150h-39v58h39v284h-39v58h39v150h71v-150h82v150h71v-150h40v-58h-40v-284h40v-58h-40v-150h-71v150h-82v-150h-71zM145 208h82v284h-82v-284z" />
<glyph unicode="$" d="M108 74q21 -20 54 -20q23 0 39 15t16 41v113q0 27 -18.5 45.5t-44.5 30t-52.5 25.5t-45 42.5t-18.5 70.5v103q0 45 26 74t68 36v100h60v-99q27 -3 51 -12.5t34 -17.5l10 -8v-163h-71v126q-20 20 -53 20q-23 0 -38.5 -15t-15.5 -41v-103q0 -28 18.5 -46t44.5 -30t52.5 -26 t45 -42t18.5 -70v-113q0 -46 -27 -75t-69 -35v-100h-60v100q-27 3 -51 12t-34 16l-10 8v143h71v-105z" />
<glyph unicode="%" horiz-adv-x="511" d="M95 0l267 700h54l-267 -700h-54zM42 490v119q0 44 27 70t68 26q40 0 68 -26t28 -70v-119q0 -44 -27.5 -69.5t-68.5 -25.5t-68 25.5t-27 69.5zM90 609v-119q0 -24 13.5 -37t33.5 -13t34 13t14 37v119q0 23 -14 37t-34 14t-33.5 -14t-13.5 -37zM279 90v119q0 44 27 70 t68 26q40 0 67.5 -26t27.5 -70v-119q0 -44 -27.5 -69.5t-67.5 -25.5q-42 0 -68.5 25.5t-26.5 69.5zM327 209v-119q0 -24 13.5 -37t33.5 -13t33.5 13t13.5 37v119q0 23 -13.5 37t-33.5 14t-33.5 -14t-13.5 -37z" />
<glyph unicode="&#x26;" d="M217 512v113q-21 21 -54 21q-23 0 -39 -15.5t-16 -41.5v-147q0 -26 15.5 -41t38.5 -15h55v39h71v-315q0 -54 -36 -84.5t-90 -30.5t-89.5 30.5t-35.5 84.5v147q0 70 60 100q-60 30 -60 101v131q0 54 36 85t90 31q35 0 66 -10.5t45 -20.5l14 -11v-151h-71zM217 328h-55 q-23 0 -38.5 -16t-15.5 -42v-160q0 -26 15.5 -41t38.5 -15t39 15t16 41v218z" />
<glyph unicode="'" horiz-adv-x="140" d="M42 550v175h56v-175h-56z" />
<glyph unicode="(" horiz-adv-x="194" d="M162 696q-23 0 -38.5 -15.5t-15.5 -41.5v-629q0 -26 15.5 -41t38.5 -15h10v-59h-10q-54 0 -89.5 30.5t-35.5 84.5v629q0 54 35.5 85t89.5 31h10v-59h-10z" />
<glyph unicode=")" horiz-adv-x="194" d="M32 -46q23 0 38.5 15.5t15.5 41.5v629q0 26 -15.5 41t-38.5 15h-10v59h10q54 0 89.5 -30.5t35.5 -84.5v-629q0 -54 -35.5 -85t-89.5 -31h-10v59h10z" />
<glyph unicode="*" horiz-adv-x="340" d="M30 539v59h88l-44 77l50 30l45 -79l45 79l51 -29l-45 -78h90v-59h-91l45 -77l-50 -29l-45 77l-44 -77l-50 29l44 77h-89z" />
<glyph unicode="+" horiz-adv-x="340" d="M30 282v58h110v117h58v-117h112v-58h-112v-116h-58v116h-110z" />
<glyph unicode="," horiz-adv-x="153" d="M73 -123h-58q27 65 27 123v100h69v-100q0 -26 -9.5 -56.5t-19.5 -48.5z" />
<glyph unicode="-" horiz-adv-x="220" d="M30 247v58h160v-58h-160z" />
<glyph unicode="." horiz-adv-x="153" d="M42 0v100h69v-100h-69z" />
<glyph unicode="/" horiz-adv-x="297" d="M30 -100l167 845h71l-167 -845h-71z" />
<glyph unicode="0" d="M162 680q54 0 90 -31t36 -85v-454q0 -54 -36 -84.5t-90 -30.5t-89.5 30.5t-35.5 84.5v454q0 54 35.5 85t89.5 31zM108 564v-454q0 -26 15.5 -41t38.5 -15t39 15t16 41v454q0 26 -16 41.5t-39 15.5t-38.5 -15.5t-15.5 -41.5z" />
<glyph unicode="1" horiz-adv-x="312" d="M32 0v58h90v550l-91 -55v67l91 55h71v-617h87v-58h-248z" />
<glyph unicode="2" horiz-adv-x="321" d="M106 605v-113h-71v151q46 37 123 37q54 0 90 -31t36 -85v-151q0 -40 -18 -74t-43.5 -57t-51.5 -44.5t-44 -47.5t-18 -56v-76h175v-58h-246v134q0 40 18 74t43.5 57t51.5 44.5t44 47.5t18 56v151q0 26 -16 41.5t-39 15.5q-14 0 -27 -4t-19 -8z" />
<glyph unicode="3" horiz-adv-x="321" d="M38 32v151h71v-113q20 -16 52 -16q23 0 38.5 15.5t15.5 41.5v155q0 26 -15.5 41t-38.5 15h-52v58h49q23 0 39 15.5t16 41.5v127q0 26 -16 41.5t-39 15.5q-14 0 -27 -4t-19 -8l-6 -4v-113h-71v151q46 37 123 37q54 0 90 -31t36 -85v-110q0 -75 -67 -102q69 -27 69 -104 v-137q0 -54 -35.5 -85t-89.5 -31q-34 0 -65 9.5t-44 18.5z" />
<glyph unicode="4" horiz-adv-x="321" d="M179 0v58h27v74h-183v59l143 484h108v-484h28v-59h-28v-74h28v-58h-123zM89 191h117v408h-2z" />
<glyph unicode="5" d="M214 517v100h-106v-249q38 52 98 52q35 0 58.5 -22.5t23.5 -61.5v-226q0 -54 -36 -84.5t-90 -30.5q-35 0 -66 10.5t-45 20.5l-14 10v147h71v-109q21 -20 54 -20q23 0 39 15t16 41v208q0 20 -12 31.5t-29 11.5q-28 0 -48 -19t-20 -42h-71v375h238v-158h-61z" />
<glyph unicode="6" d="M215 605q-20 16 -52 16q-23 0 -39 -15.5t-16 -41.5v-206q38 52 98 52q35 0 58.5 -22.5t23.5 -61.5v-216q0 -54 -36 -84.5t-90 -30.5t-89.5 30.5t-35.5 84.5v454q0 54 36 85t90 31q34 0 65 -9t44 -19l14 -9v-151h-71v113zM108 280v-170q0 -26 15.5 -41t38.5 -15t39 15 t16 41v198q0 20 -12 31.5t-29 11.5q-29 0 -48.5 -19t-19.5 -52z" />
<glyph unicode="7" horiz-adv-x="310" d="M30 517v158h250v-35l-131 -640h-72l127 617h-113v-100h-61z" />
<glyph unicode="8" d="M162 680q54 0 90 -31t36 -85v-119q0 -71 -61 -100q61 -31 61 -101v-134q0 -54 -36 -84.5t-90 -30.5t-89.5 30.5t-35.5 84.5v134q0 71 60 101q-60 28 -60 100v119q0 54 35.5 85t89.5 31zM108 564v-134q0 -26 15.5 -41.5t38.5 -15.5t39 15.5t16 41.5v134q0 26 -16 41.5 t-39 15.5t-38.5 -15.5t-15.5 -41.5zM108 258v-148q0 -26 15.5 -41t38.5 -15t39 15t16 41v148q0 26 -16 41.5t-39 15.5t-38.5 -15.5t-15.5 -41.5z" />
<glyph unicode="9" d="M217 394v171q0 26 -15.5 41t-38.5 15t-39 -15t-16 -41v-198q0 -20 12 -32t29 -12q29 0 48.5 19.5t19.5 51.5zM37 34v138h71v-100q21 -18 53 -18q24 0 40 15.5t16 42.5v205q-37 -52 -98 -52q-35 0 -58.5 22.5t-23.5 61.5v216q0 54 36 84.5t90 30.5t89.5 -30.5t35.5 -84.5 v-453q0 -54 -36.5 -85.5t-90.5 -31.5q-34 0 -65 9.5t-45 19.5z" />
<glyph unicode=":" horiz-adv-x="153" d="M42 0v100h69v-100h-69zM42 399v101h69v-101h-69z" />
<glyph unicode=";" horiz-adv-x="153" d="M73 -123h-58q27 65 27 123v100h69v-100q0 -26 -9.5 -56.5t-19.5 -48.5zM42 399v101h69v-101h-69z" />
<glyph unicode="&#x3c;" horiz-adv-x="410" d="M42 346l326 98v-73l-264 -70v-2l264 -71v-73l-326 98v93z" />
<glyph unicode="=" horiz-adv-x="340" d="M30 347v58h280v-58h-280zM30 195v58h280v-58h-280z" />
<glyph unicode="&#x3e;" horiz-adv-x="410" d="M368 254l-326 -98v73l264 70v2l-264 71v73l326 -98v-93z" />
<glyph unicode="?" horiz-adv-x="321" d="M106 630v-113h-71v151q46 37 122 37q55 0 91 -31t36 -85v-108q0 -39 -9.5 -64.5t-23 -38.5t-26.5 -24t-22.5 -31.5t-9.5 -51.5v-83h-71v83q0 39 9.5 64.5t23 38.5t26.5 24t22.5 31.5t9.5 51.5v108q0 26 -16 41.5t-40 15.5q-14 0 -26.5 -4t-18.5 -8zM122 0v100h71v-100 h-71z" />
<glyph unicode="@" horiz-adv-x="694" d="M346 -146v-59q-131 0 -217.5 80t-86.5 219v310q0 139 86.5 220t216.5 81q131 0 219 -81t88 -220v-404h-251v47q-38 -52 -98 -52q-34 0 -57.5 23t-23.5 61v311q0 54 35.5 84.5t89.5 30.5q35 0 66 -9.5t45 -18.5l14 -9v-410h109v346q0 110 -67.5 176t-167.5 66t-166.5 -66 t-66.5 -176v-310q0 -111 66.5 -175.5t166.5 -64.5zM401 430q-21 16 -54 16q-23 0 -38.5 -15t-15.5 -41v-293q0 -20 11.5 -31.5t29.5 -11.5q29 0 48 19t19 52v305z" />
<glyph unicode="A" horiz-adv-x="330" d="M2 0v58h25l84 584h-20v58h121l90 -642h27v-58h-92l-22 174h-100l-18 -116h25v-58h-120zM119 232h92l-44 386h-2z" />
<glyph unicode="B" horiz-adv-x="333" d="M25 642v58h145q54 0 89.5 -31t35.5 -85v-120q0 -75 -67 -102q70 -27 70 -104v-142q0 -54 -36 -85t-90 -31h-147v58h25v584h-25zM172 332h-51v-274h51q23 0 39 15.5t16 42.5v160q0 25 -16 40.5t-39 15.5zM121 390h49q23 0 38.5 15.5t15.5 41.5v137q0 27 -15.5 42.5 t-38.5 15.5h-49v-252z" />
<glyph unicode="C" horiz-adv-x="320" d="M211 630q-20 16 -51 16q-22 0 -37 -15t-15 -40v-483q0 -25 14.5 -39.5t37.5 -14.5q22 0 37 14.5t15 39.5v92h71v-92q0 -53 -35 -83t-88 -30t-88 30t-35 83v483q0 53 35 83.5t88 30.5q34 0 64.5 -9t43.5 -18l14 -9v-169h-71v130z" />
<glyph unicode="D" horiz-adv-x="335" d="M25 642v58h147q54 0 90 -31t36 -85v-469q0 -54 -36 -84.5t-90 -30.5h-147v58h25v584h-25zM121 58h51q23 0 39 15.5t16 41.5v469q0 27 -16 42.5t-39 15.5h-51v-584z" />
<glyph unicode="E" horiz-adv-x="317" d="M219 500v142h-98v-254h139v-58h-139v-272h98v142h61v-200h-255v58h25v584h-25v58h255v-200h-61z" />
<glyph unicode="F" horiz-adv-x="315" d="M219 500v142h-98v-254h139v-58h-139v-272h24v-58h-120v58h25v584h-25v58h255v-200h-61z" />
<glyph unicode="G" horiz-adv-x="320" d="M211 630q-20 16 -51 16q-22 0 -37 -15t-15 -40v-483q0 -25 14.5 -39.5t37.5 -14.5q22 0 37 14.5t15 39.5v214h-51v58h122v-272q0 -53 -35 -83t-88 -30t-88 30t-35 83v483q0 53 35 83.5t88 30.5q34 0 64.5 -9t43.5 -18l14 -9v-169h-71v130z" />
<glyph unicode="H" horiz-adv-x="350" d="M25 0v58h25v584h-25v58h96v-312h108v254h-25v58h121v-58h-25v-584h25v-58h-96v330h-108v-272h24v-58h-120z" />
<glyph unicode="I" horiz-adv-x="170" d="M25 642v58h120v-58h-24v-584h24v-58h-120v58h25v584h-25z" />
<glyph unicode="J" d="M187 642v58h121v-58h-25v-533q0 -53 -35 -83.5t-88 -30.5q-34 0 -65 9t-45 18l-13 9v169h71v-131q20 -15 52 -15q22 0 37 15t15 40v533h-25z" />
<glyph unicode="K" horiz-adv-x="335" d="M204 642v58h118v-58h-26l-90 -283l93 -301h26v-58h-85l-88 330h-31v-272h24v-58h-120v58h25v584h-25v58h96v-312h31l75 254h-23z" />
<glyph unicode="L" horiz-adv-x="300" d="M25 642v58h120v-58h-24v-584h93v142h61v-200h-250v58h25v584h-25z" />
<glyph unicode="M" horiz-adv-x="504" d="M25 0v58h25v584h-25v58h130l95 -593h2l97 593h130v-58h-25v-584h25v-58h-93v579h-2l-92 -579h-81l-91 579h-2v-521h25v-58h-118z" />
<glyph unicode="N" horiz-adv-x="352" d="M209 642v58h118v-58h-25v-642h-59l-123 475h-2v-417h25v-58h-118v58h25v584h-25v58h84l122 -475h3v417h-25z" />
<glyph unicode="O" d="M162 705q54 0 90 -31t36 -85v-479q0 -54 -36 -84.5t-90 -30.5t-89.5 30.5t-35.5 84.5v479q0 54 35.5 85t89.5 31zM108 589v-479q0 -26 15.5 -41t38.5 -15t39 15t16 41v479q0 26 -16 41.5t-39 15.5t-38.5 -15.5t-15.5 -41.5z" />
<glyph unicode="P" horiz-adv-x="333" d="M25 642v58h145q54 0 89.5 -31t35.5 -85v-187q0 -54 -35.5 -84.5t-89.5 -30.5h-49v-224h24v-58h-120v58h25v584h-25zM121 340h49q23 0 38.5 15.5t15.5 41.5v187q0 27 -15.5 42.5t-38.5 15.5h-49v-302z" />
<glyph unicode="Q" d="M126 -15v16q-40 9 -64.5 37t-24.5 72v479q0 54 35.5 85t89.5 31t90 -31t36 -85v-479q0 -44 -25 -72.5t-66 -36.5v-16q0 -26 15.5 -41t38.5 -15h37v-59h-37q-54 0 -89.5 30.5t-35.5 84.5zM108 589v-479q0 -26 15.5 -41t38.5 -15t39 15t16 41v479q0 26 -16 41.5t-39 15.5 t-38.5 -15.5t-15.5 -41.5z" />
<glyph unicode="R" horiz-adv-x="338" d="M25 642v58h145q54 0 89.5 -31t35.5 -85v-170q0 -75 -67 -99l73 -257h26v-58h-86l-72 300h-48v-242h24v-58h-120v58h25v584h-25zM121 358h49q23 0 38.5 15t15.5 41v170q0 27 -15.5 42.5t-38.5 15.5h-49v-284z" />
<glyph unicode="S" d="M216 630q-21 16 -53 16q-23 0 -38.5 -15t-15.5 -41v-128q0 -28 18.5 -46t44.5 -30t52.5 -26t45 -42t18.5 -70v-138q0 -53 -36 -84t-90 -31q-35 0 -66 9t-45 18l-14 9v169h71v-131q21 -15 54 -15q24 0 39.5 15t15.5 41v138q0 27 -18.5 45.5t-44.5 30t-52.5 25.5t-45 42.5 t-18.5 70.5v128q0 53 35.5 84t89.5 31q34 0 65 -9t45 -18l14 -9v-169h-71v130z" />
<glyph unicode="T" horiz-adv-x="356" d="M118 0v58h25v584h-60v-142h-61v200h312v-200h-61v142h-59v-584h24v-58h-120z" />
<glyph unicode="U" horiz-adv-x="335" d="M197 642v58h120v-58h-24v-532q0 -54 -36 -84.5t-90 -30.5t-89.5 30.5t-35.5 84.5v532h-24v58h95v-590q0 -26 15.5 -41t38.5 -15t39 15t16 41v532h-25z" />
<glyph unicode="V" horiz-adv-x="330" d="M209 642v58h120v-58h-27l-90 -642h-94l-91 642h-26v58h92l71 -618h2l66 560h-23z" />
<glyph unicode="W" horiz-adv-x="550" d="M426 642v58h120v-58h-25l-90 -642h-95l-60 615h-2l-61 -615h-95l-90 642h-25v58h91l69 -622h2l63 622h93l63 -622h2l64 564h-24z" />
<glyph unicode="X" horiz-adv-x="330" d="M5 0v58h25l81 302l-77 282h-27v58h88l69 -311h2l61 253h-24v58h119v-58h-26l-76 -283l79 -301h27v-58h-88l-71 331h-2l-66 -273h26v-58h-120z" />
<glyph unicode="Y" horiz-adv-x="330" d="M207 642v58h119v-58h-28l-98 -418v-166h25v-58h-121v58h25v166l-98 418h-27v58h88l72 -363h2l64 305h-23z" />
<glyph unicode="Z" horiz-adv-x="320" d="M35 500v200h250v-35l-172 -607h111v142h61v-200h-250v35l174 607h-114v-142h-60z" />
<glyph unicode="[" horiz-adv-x="194" d="M37 -101v851h135v-58h-64v-734h64v-59h-135z" />
<glyph unicode="\" horiz-adv-x="297" d="M197 -100l-167 845h71l167 -845h-71z" />
<glyph unicode="]" horiz-adv-x="194" d="M22 -101v58h64v734h-64v59h135v-851h-135z" />
<glyph unicode="^" horiz-adv-x="327" d="M68 525l-41 41l165 140l165 -140l-41 -41l-124 108z" />
<glyph unicode="_" d="M0 -83v58h325v-58h-325z" />
<glyph unicode="`" horiz-adv-x="251" d="M170 558l-131 110l42 42l130 -110z" />
<glyph unicode="a" horiz-adv-x="330" d="M40 337v131q47 37 124 37q54 0 89 -30.5t35 -84.5v-332h24v-58h-95v47q-37 -52 -101 -52q-34 0 -56.5 22t-22.5 60v97q0 52 30.5 80t81.5 35l68 8v93q0 26 -15.5 41t-37.5 15q-14 0 -27.5 -4t-19.5 -8l-6 -4v-93h-71zM217 238l-54 -7q-55 -7 -55 -57v-79q0 -19 11.5 -30 t27.5 -11q28 0 49 19.5t21 51.5v113z" />
<glyph unicode="b" horiz-adv-x="330" d="M17 667v58h96v-272q38 52 98 52q35 0 58.5 -22.5t23.5 -61.5v-311q0 -54 -36 -84.5t-90 -30.5q-35 0 -66 9.5t-45 18.5l-14 9v635h-25zM113 70q21 -16 54 -16q23 0 39 15t16 41v293q0 20 -12 31.5t-29 11.5q-29 0 -48.5 -19t-19.5 -52v-305z" />
<glyph unicode="c" horiz-adv-x="320" d="M212 430q-21 16 -52 16q-22 0 -37 -15t-15 -40v-283q0 -25 14.5 -39.5t37.5 -14.5q22 0 37 14.5t15 39.5v55h71v-55q0 -53 -35 -83t-88 -30t-88 30t-35 83v283q0 53 35 83.5t88 30.5q34 0 64.5 -9.5t44.5 -18.5l14 -9v-131h-71v93z" />
<glyph unicode="d" horiz-adv-x="337" d="M192 667v58h96v-667h24v-58h-95v47q-38 -52 -98 -52q-35 0 -58.5 22.5t-23.5 61.5v311q0 54 32 84.5t80 30.5q38 0 68 -15v177h-25zM217 430q-21 16 -54 16q-23 0 -39 -15t-16 -41v-293q0 -20 12 -31.5t29 -11.5q29 0 48.5 19t19.5 52v305z" />
<glyph unicode="e" d="M288 227h-180v-117q0 -26 15.5 -41t38.5 -15t39 15t16 41v53h71v-53q0 -54 -36 -84.5t-90 -30.5t-89.5 30.5t-35.5 84.5v279q0 54 35.5 85t89.5 31t90 -31t36 -85v-162zM108 389v-104h109v104q0 28 -15.5 42.5t-39.5 14.5t-39 -14.5t-15 -42.5z" />
<glyph unicode="f" horiz-adv-x="243" d="M25 442v58h25v110q0 55 35.5 87.5t88.5 32.5q11 0 21.5 -1.5t18.5 -3.5t9 -2v-58q-21 6 -42 6q-26 0 -43 -16.5t-17 -44.5v-110h102v-58h-102v-384h24v-58h-120v58h25v384h-25z" />
<glyph unicode="g" d="M217 125v305q-21 16 -54 16q-23 0 -39 -15t-16 -41v-293q0 -20 12 -31.5t29 -11.5q29 0 48.5 19t19.5 52zM40 -193v108h71v-70q21 -16 53 -16q22 0 37 15t16 41v162q-38 -52 -98 -52q-35 0 -58.5 22.5t-23.5 61.5v311q0 54 36 84.5t90 30.5q35 0 66 -9.5t45 -18.5l14 -9 v-582q0 -54 -35 -85t-89 -31q-34 0 -65 9t-45 19z" />
<glyph unicode="h" horiz-adv-x="342" d="M25 0v58h25v609h-25v58h96v-272q38 52 98 52q34 0 57.5 -23t23.5 -61v-363h25v-58h-96v403q0 20 -12 31.5t-29 11.5q-29 0 -48 -19t-19 -52v-317h24v-58h-120z" />
<glyph unicode="i" horiz-adv-x="170" d="M25 0v58h25v384h-25v58h96v-442h24v-58h-120zM50 599v101h71v-101h-71z" />
<glyph unicode="j" horiz-adv-x="165" d="M25 442v58h96v-622q0 -50 -33 -79t-81 -29q-23 0 -44 7v58q15 -6 36 -6q22 0 36.5 13t14.5 36v564h-25zM50 599v101h71v-101h-71z" />
<glyph unicode="k" horiz-adv-x="335" d="M25 0v58h25v609h-25v58h96v-440h37l63 157h-23v58h119v-58h-28l-79 -185l83 -199h27v-58h-80l-82 229h-37v-171h24v-58h-120z" />
<glyph unicode="l" horiz-adv-x="170" d="M25 667v58h96v-667h24v-58h-120v58h25v609h-25z" />
<glyph unicode="m" horiz-adv-x="522" d="M25 0v58h25v384h-25v58h96v-47q38 52 98 52q30 0 51 -14.5t28 -39.5q37 54 100 54q35 0 58.5 -22.5t23.5 -61.5v-363h24v-58h-95v403q0 20 -12 31.5t-29 11.5q-28 0 -47.5 -19.5t-20.5 -49.5v-319h25v-58h-96v403q0 20 -12 31.5t-29 11.5q-29 0 -48 -19t-19 -52v-317h24 v-58h-120z" />
<glyph unicode="n" horiz-adv-x="342" d="M25 0v58h25v384h-25v58h96v-47q38 52 98 52q34 0 57.5 -23t23.5 -61v-363h25v-58h-96v403q0 20 -12 31.5t-29 11.5q-29 0 -48 -19t-19 -52v-317h24v-58h-120z" />
<glyph unicode="o" d="M162 505q54 0 90 -31t36 -85v-279q0 -54 -36 -84.5t-90 -30.5t-89.5 30.5t-35.5 84.5v279q0 54 35.5 85t89.5 31zM108 389v-279q0 -26 15.5 -41t38.5 -15t39 15t16 41v279q0 26 -16 41.5t-39 15.5t-38.5 -15.5t-15.5 -41.5z" />
<glyph unicode="p" horiz-adv-x="337" d="M25 442v58h96v-47q38 52 98 52q34 0 57.5 -23t23.5 -61v-311q0 -54 -31.5 -84.5t-79.5 -30.5q-40 0 -68 15v-152h24v-58h-120v58h25v584h-25zM121 70q21 -16 53 -16q24 0 39.5 15t15.5 41v293q0 20 -12 31.5t-29 11.5q-29 0 -48 -19t-19 -52v-305z" />
<glyph unicode="q" d="M192 -200v58h25v189q-38 -52 -98 -52q-35 0 -58.5 22.5t-23.5 61.5v311q0 54 36 84.5t90 30.5q35 0 66 -9.5t45 -18.5l14 -9v-610h24v-58h-120zM217 430q-21 16 -54 16q-23 0 -39 -15t-16 -41v-293q0 -20 12 -31.5t29 -11.5q29 0 48.5 19t19.5 52v305z" />
<glyph unicode="r" horiz-adv-x="303" d="M25 442v58h96v-66q36 71 98 71q17 0 32.5 -9.5t22.5 -18.5l7 -9v-131h-71v93q-11 16 -27 16q-28 0 -45 -27.5t-17 -68.5v-292h24v-58h-120v58h25v384h-25z" />
<glyph unicode="s" horiz-adv-x="320" d="M208 430q-19 16 -49 16q-22 0 -36 -14t-14 -39v-51q0 -22 18 -36t43.5 -22t51 -19t43.5 -34.5t18 -59.5v-63q0 -52 -35 -82.5t-88 -30.5q-34 0 -65 9.5t-45 18.5l-13 9v131h71v-93q20 -16 52 -16q22 0 37 14.5t15 39.5v63q0 22 -18 36t-43.5 22t-51 19t-43.5 34.5 t-18 59.5v51q0 52 34.5 82t86.5 30q33 0 63 -9.5t44 -18.5l13 -9v-131h-71v93z" />
<glyph unicode="t" horiz-adv-x="250" d="M30 442v58h25v100h71v-100h102v-58h-102v-327q0 -28 17 -44.5t43 -16.5q21 0 42 6v-58q-1 0 -9 -2t-18.5 -3.5t-21.5 -1.5q-53 0 -88.5 32.5t-35.5 87.5v327h-25z" />
<glyph unicode="u" horiz-adv-x="342" d="M197 442v58h96v-442h24v-58h-95v47q-38 -52 -98 -52q-35 0 -58.5 22.5t-23.5 61.5v363h-24v58h95v-403q0 -20 12 -31.5t29 -11.5q29 0 48.5 19t19.5 52v317h-25z" />
<glyph unicode="v" horiz-adv-x="330" d="M207 442v58h120v-58h-27l-88 -442h-94l-88 442h-26v58h89l71 -438h2l64 380h-23z" />
<glyph unicode="w" horiz-adv-x="527" d="M402 442v58h121v-58h-27l-82 -442h-92l-58 430h-2l-57 -430h-93l-83 442h-26v58h90l64 -437h2l59 437h90l59 -437h2l58 379h-25z" />
<glyph unicode="x" horiz-adv-x="335" d="M240 0l-72 220h-2l-59 -162h24v-58h-121v58h30l81 199l-77 185h-29v58h84l67 -204h2l56 146h-24v58h121v-58h-30l-77 -185l81 -199h30v-58h-85z" />
<glyph unicode="y" horiz-adv-x="335" d="M197 442v58h96v-614q0 -54 -35 -85t-89 -31q-34 0 -65 9t-45 19l-14 9v113h71v-75q21 -16 53 -16q22 0 37 15t16 41v162q-38 -52 -98 -52q-35 0 -58.5 22.5t-23.5 61.5v363h-24v58h95v-403q0 -20 12 -31.5t29 -11.5q29 0 48.5 19t19.5 52v317h-25z" />
<glyph unicode="z" horiz-adv-x="320" d="M37 337v163h246v-35l-164 -407h108v105h56v-163h-246v35l166 407h-110v-105h-56z" />
<glyph unicode="{" horiz-adv-x="246" d="M223 -105h-10q-52 0 -88 31t-36 82v233q0 25 -15.5 40.5t-38.5 15.5h-10v60h10q23 0 38.5 16t15.5 42v224q0 54 35 85t89 31h10v-59h-10q-23 0 -38 -15.5t-15 -41.5v-224q0 -58 -44 -88q44 -29 44 -86v-233q0 -25 15 -39.5t38 -14.5h10v-59z" />
<glyph unicode="|" horiz-adv-x="160" d="M45 -100v850h71v-850h-71z" />
<glyph unicode="}" horiz-adv-x="246" d="M25 -105v59h10q23 0 38.5 15.5t15.5 41.5v224q0 59 44 88q-44 28 -44 86v233q-1 25 -16.5 39.5t-37.5 14.5h-10v59h10q52 0 88.5 -31t36.5 -82v-233q0 -25 15 -40.5t38 -15.5h10v-60h-10q-22 0 -37.5 -16t-15.5 -42v-224q0 -54 -35.5 -85t-89.5 -31h-10z" />
<glyph unicode="~" horiz-adv-x="380" d="M37 235q0 43 27.5 68t68.5 25q23 0 39.5 -8t24.5 -18t20 -18t28 -8q19 0 32 12.5t13 34.5h53q0 -42 -28 -67.5t-68 -25.5q-37 0 -64 26t-47 26t-33 -12.5t-13 -34.5h-53z" />
<glyph unicode="&#xa1;" horiz-adv-x="160" d="M45 -200v512h71v-512h-71zM45 399v101h71v-101h-71z" />
<glyph unicode="&#xa2;" horiz-adv-x="320" d="M212 430q-21 16 -52 16q-22 0 -37 -15t-15 -40v-283q0 -25 14.5 -39.5t37.5 -14.5q22 0 37 14.5t15 39.5v55h71v-55q0 -43 -24.5 -71t-63.5 -36v-101h-71v101q-39 8 -63 35.5t-24 71.5v283q0 43 24 71t63 37v101h71v-101q25 -3 47 -11t32 -14l9 -6v-131h-71v93z" />
<glyph unicode="&#xa3;" horiz-adv-x="345" d="M237 500v130q-20 16 -52 16q-22 0 -37 -15t-15 -40v-233h175v-58h-175v-242h175v-58h-283v58h37v242h-37v58h37v233q0 53 35 83.5t88 30.5q34 0 65 -9.5t44 -18.5l14 -9v-168h-71z" />
<glyph unicode="&#xa4;" d="M162 405q25 0 45 -7l24 77h74l-43 -112q26 -31 26 -74v-79q0 -42 -22 -70l43 -115h-74l-24 77q-21 -7 -49 -7t-49 7l-23 -77h-74l42 115q-21 29 -21 70v79q0 44 25 74l-42 112h74l23 -77q25 7 45 7zM108 289v-79q0 -26 15.5 -41t38.5 -15t39 15t16 41v79q0 26 -16 41.5 t-39 15.5t-38.5 -15.5t-15.5 -41.5z" />
<glyph unicode="&#xa5;" horiz-adv-x="330" d="M206 642v58h120v-58h-28l-81 -347h73v-59h-87l-3 -12v-54h90v-58h-90v-112h-71v112h-89v58h89v54l-3 12h-86v59h72l-81 347h-27v58h88l72 -363h2l64 305h-24z" />
<glyph unicode="&#xa6;" horiz-adv-x="160" d="M45 -100v375h71v-375h-71zM45 375v375h71v-375h-71z" />
<glyph unicode="&#xa7;" d="M37 -189v164h71v-126q21 -20 54 -20q23 0 39 15t16 41v118q0 27 -18.5 45.5t-44.5 30t-52.5 25.5t-45 42.5t-18.5 70.5v128q0 38 19 65q-19 28 -19 72v108q0 54 35.5 84.5t89.5 30.5q34 0 65 -10t45 -20l14 -10v-165h-71v127q-21 19 -53 19q-23 0 -38.5 -15t-15.5 -41 v-108q0 -28 18.5 -46t44.5 -30t52.5 -26t45 -42t18.5 -70v-138q0 -35 -17 -60q17 -29 17 -67v-118q0 -54 -36 -84.5t-90 -30.5q-35 0 -66 10t-45 20zM217 268q0 16 -5.5 28.5t-18 22t-23 15.5t-30 15.5t-29.5 14.5q-2 -12 -2 -19v-128q0 -20 11 -36.5t22 -23.5t38 -20 t36 -18q1 4 1 11v138z" />
<glyph unicode="&#xa8;" horiz-adv-x="313" d="M50 587v101h60v-101h-60zM195 587v101h61v-101h-61z" />
<glyph unicode="&#xa9;" horiz-adv-x="694" d="M345 705q130 0 218.5 -72.5t88.5 -193.5v-179q0 -121 -88 -193t-218 -72t-217 72t-87 193v179q0 121 87 193.5t216 72.5zM113 439v-179q0 -94 66.5 -150t166.5 -56t167.5 56.5t67.5 149.5v179q0 92 -68 149.5t-167 57.5t-166 -57t-67 -150zM293 439v-179q0 -26 15 -41.5 t38 -15.5t39 15.5t16 41.5v41h71v-41q0 -54 -35.5 -84.5t-90.5 -30.5q-54 0 -89 30.5t-35 84.5v179q0 54 35 85t89 31t90 -31t36 -85v-40h-71v40q0 26 -16 42t-39 16q-22 0 -37.5 -16t-15.5 -42z" />
<glyph unicode="&#xaa;" horiz-adv-x="183" d="M116 450v22q-20 -24 -49 -24q-17 0 -28 10.5t-11 29.5v50q0 50 55 57l33 4v46q0 11 -7 18t-17 7q-6 0 -11.5 -2t-8.5 -4l-3 -1v-45h-40v66q25 19 63 19q28 0 46 -15.5t18 -42.5v-162h10v-33h-50zM116 566l-24 -3q-24 -4 -24 -25v-39q0 -19 17 -19q12 0 21.5 8.5t9.5 22.5 v55z" />
<glyph unicode="&#xab;" horiz-adv-x="318" d="M168 425l-67 -175l67 -175h-74l-64 175l64 175h74zM294 425l-67 -175l67 -175h-74l-65 175l65 175h74z" />
<glyph unicode="&#xac;" horiz-adv-x="340" d="M30 297v58h280v-160h-71v102h-209z" />
<glyph unicode="&#xad;" horiz-adv-x="220" d="M30 247v58h160v-58h-160z" />
<glyph unicode="&#xae;" horiz-adv-x="694" d="M345 705q130 0 218.5 -72.5t88.5 -193.5v-179q0 -121 -88 -193t-218 -72t-217 72t-87 193v179q0 121 87 193.5t216 72.5zM113 439v-179q0 -94 66.5 -150t166.5 -56t167.5 56.5t67.5 149.5v179q0 92 -68 149.5t-167 57.5t-166 -57t-67 -150zM415 166l-66 135h-51v-135h-71 v369h124q53 0 87 -28.5t34 -77.5v-24q0 -68 -62 -89l73 -150h-68zM298 359h53q23 0 36.5 12.5t13.5 33.5v24q0 22 -13.5 34.5t-36.5 12.5h-53v-117z" />
<glyph unicode="&#xaf;" horiz-adv-x="160" d="M-19 597v58h198v-58h-198z" />
<glyph unicode="&#xb0;" horiz-adv-x="275" d="M42 584v25q0 44 27 70t68 26q40 0 68 -26t28 -70v-25q0 -44 -27.5 -69t-68.5 -25t-68 25t-27 69zM90 609v-25q0 -24 13.5 -37t33.5 -13t34 13t14 37v25q0 23 -14 37t-34 14t-33.5 -14t-13.5 -37z" />
<glyph unicode="&#xb1;" horiz-adv-x="340" d="M30 282v58h110v117h58v-117h112v-58h-112v-116h-58v116h-110zM30 76v58h280v-58h-280z" />
<glyph unicode="&#xb2;" horiz-adv-x="162" d="M62 663v-47h-38v68q21 16 56 16q25 0 41 -13.5t16 -37.5v-68q0 -26 -18.5 -47t-37 -38t-18.5 -34v-32h74v-30h-112v62q0 21 11.5 39t25.5 28.5t25.5 24t11.5 27.5v68q0 20 -19 20q-5 0 -9.5 -1.5t-6.5 -3.5z" />
<glyph unicode="&#xb3;" horiz-adv-x="162" d="M25 414v68h38v-48q8 -6 18 -6q20 0 20 21v70q0 9 -6 14.5t-14 5.5h-23v31h22q19 0 19 20v59q0 20 -19 20q-5 0 -9.5 -1.5t-6.5 -3.5l-2 -1v-47h-38v68q21 16 56 16q25 0 41 -13.5t16 -37.5v-50q0 -32 -28 -44q30 -13 30 -46v-60q0 -24 -16.5 -37.5t-41.5 -13.5 q-15 0 -29 4t-20 8z" />
<glyph unicode="&#xb4;" horiz-adv-x="251" d="M81 558l-42 42l130 110l42 -41z" />
<glyph unicode="&#xb5;" horiz-adv-x="337" d="M197 442v58h96v-442h24v-58h-95v40q-24 -41 -69 -41q-25 0 -40 16v-165h-71v592h-24v58h95v-403q0 -20 12 -31.5t29 -11.5q29 0 48.5 19t19.5 52v317h-25z" />
<glyph unicode="&#xb6;" horiz-adv-x="463" d="M37 584q0 54 36 85t90 31h275v-58h-25v-742h-71v742h-59v-742h-71v382h-49q-54 0 -90 30.5t-36 84.5v187z" />
<glyph unicode="&#xb7;" horiz-adv-x="153" d="M42 212v101h69v-101h-69z" />
<glyph unicode="&#xb8;" horiz-adv-x="137" d="M42 -138v143h53v-143h-53z" />
<glyph unicode="&#xb9;" horiz-adv-x="160" d="M23 400v30h38v232l-38 -23v35l38 24h38v-268h37v-30h-113z" />
<glyph unicode="&#xba;" horiz-adv-x="183" d="M92 703q27 0 45.5 -15.5t18.5 -42.5v-140q0 -27 -18.5 -42t-45.5 -15q-28 0 -46 15t-18 42v140q0 27 18 42.5t46 15.5zM68 645v-140q0 -12 7 -18.5t17 -6.5t17 6.5t7 18.5v140q0 11 -7 18t-17 7t-17 -7t-7 -18z" />
<glyph unicode="&#xbb;" horiz-adv-x="318" d="M25 75l67 175l-67 175h73l65 -175l-65 -175h-73zM151 75l66 175l-66 175h73l65 -175l-65 -175h-73z" />
<glyph unicode="&#xbc;" horiz-adv-x="511" d="M95 0l267 700h54l-267 -700h-54zM415 0v30h9v27h-77v31l56 210h58v-210h11v-31h-11v-27h11v-30h-57zM48 400v30h38v232l-38 -23v35l38 24h38v-268h37v-30h-113zM381 88h43v170z" />
<glyph unicode="&#xbd;" horiz-adv-x="511" d="M95 0l267 700h54l-267 -700h-54zM53 400v30h38v232l-38 -23v35l38 24h38v-268h37v-30h-113zM397 263v-47h-38v68q22 16 56 16q25 0 41 -13.5t16 -37.5v-68q0 -26 -18.5 -47t-37 -38t-18.5 -34v-32h74v-30h-112v62q0 21 11.5 39t25.5 28.5t25.5 24t11.5 27.5v68 q0 20 -19 20q-5 0 -9.5 -1.5t-6.5 -3.5z" />
<glyph unicode="&#xbe;" horiz-adv-x="511" d="M95 0l267 700h54l-267 -700h-54zM415 0v30h9v27h-77v31l56 210h58v-210h11v-31h-11v-27h11v-30h-57zM50 414v68h38v-48q8 -6 18 -6q20 0 20 21v70q0 9 -6 14.5t-14 5.5h-23v31h22q19 0 19 20v59q0 20 -19 20q-5 0 -9.5 -1.5t-6.5 -3.5l-2 -1v-47h-38v68q21 16 56 16 q24 0 40 -13.5t16 -37.5v-50q0 -32 -27 -44q30 -13 30 -46v-60q0 -24 -17 -37.5t-41 -13.5q-15 0 -29 4t-21 8zM381 88h43v170z" />
<glyph unicode="&#xbf;" horiz-adv-x="321" d="M213 -129v129h71v-167q-46 -37 -123 -37q-54 0 -90 31t-36 85v112q0 39 9.5 64.5t22.5 38.5t26 24t22.5 31t9.5 51v84h71v-84q0 -39 -9.5 -64.5t-22.5 -38t-26 -24t-22.5 -31.5t-9.5 -51v-112q0 -26 16 -41.5t39 -15.5q14 0 27 4t19 8zM125 404v101h71v-101h-71z" />
<glyph unicode="&#xc0;" horiz-adv-x="330" d="M2 0v58h25l84 584h-20v58h121l90 -642h27v-58h-92l-22 174h-100l-18 -116h25v-58h-120zM119 232h92l-44 386h-2zM210 758l-131 110l42 42l130 -110z" />
<glyph unicode="&#xc1;" horiz-adv-x="330" d="M2 0v58h25l84 584h-20v58h121l90 -642h27v-58h-92l-22 174h-100l-18 -116h25v-58h-120zM119 232h92l-44 386h-2zM121 758l-42 42l130 110l42 -41z" />
<glyph unicode="&#xc2;" horiz-adv-x="330" d="M2 0v58h25l84 584h-20v58h121l90 -642h27v-58h-92l-22 174h-100l-18 -116h25v-58h-120zM119 232h92l-44 386h-2zM81 761l-41 41l125 100l125 -100l-41 -41l-84 68z" />
<glyph unicode="&#xc3;" horiz-adv-x="330" d="M2 0v58h25l84 584h-20v58h121l90 -642h27v-58h-92l-22 174h-100l-18 -116h25v-58h-120zM119 232h92l-44 386h-2zM41 768q0 38 22 60t56 22q28 0 51 -20.5t39 -20.5q15 0 25 9.5t10 26.5h45q0 -38 -22 -60t-55 -22q-28 0 -52 20.5t-39 20.5t-25 -9.5t-10 -26.5h-45z" />
<glyph unicode="&#xc4;" horiz-adv-x="330" d="M2 0v58h25l84 584h-20v58h121l90 -642h27v-58h-92l-22 174h-100l-18 -116h25v-58h-120zM119 232h92l-44 386h-2zM62 787v101h60v-101h-60zM207 787v101h61v-101h-61z" />
<glyph unicode="&#xc5;" horiz-adv-x="330" d="M2 0v58h25l84 584h-20v58h121l90 -642h27v-58h-92l-22 174h-100l-18 -116h25v-58h-120zM119 232h92l-44 386h-2zM165 915q37 0 61.5 -23t24.5 -62q0 -40 -24.5 -62.5t-61.5 -22.5t-61 22.5t-24 62.5q0 39 24 62t61 23zM126 830q0 -20 11.5 -31.5t27.5 -11.5 q17 0 28.5 11.5t11.5 31.5t-11.5 32t-28.5 12q-16 0 -27.5 -12t-11.5 -32z" />
<glyph unicode="&#xc6;" horiz-adv-x="455" d="M359 500v142h-86v-254h127v-58h-127v-272h86v142h61v-200h-218v174h-80l-23 -116h24v-58h-120v58h27l113 584h-19v58h296v-200h-61zM131 232h71v392h-2z" />
<glyph unicode="&#xc7;" horiz-adv-x="320" d="M133 -138v135q-43 7 -69.5 36t-26.5 75v483q0 53 35 83.5t88 30.5q34 0 64.5 -9t43.5 -18l14 -9v-169h-71v130q-20 16 -51 16q-22 0 -37 -15t-15 -40v-483q0 -25 14.5 -39.5t37.5 -14.5q22 0 37 14.5t15 39.5v92h71v-92q0 -46 -27 -75t-70 -36v-135h-53z" />
<glyph unicode="&#xc8;" horiz-adv-x="315" d="M219 500v142h-98v-254h139v-58h-139v-272h98v142h61v-200h-255v58h25v584h-25v58h255v-200h-61zM205 758l-131 110l42 42l130 -110z" />
<glyph unicode="&#xc9;" horiz-adv-x="315" d="M219 500v142h-98v-254h139v-58h-139v-272h98v142h61v-200h-255v58h25v584h-25v58h255v-200h-61zM116 758l-42 42l130 110l42 -41z" />
<glyph unicode="&#xca;" horiz-adv-x="315" d="M219 500v142h-98v-254h139v-58h-139v-272h98v142h61v-200h-255v58h25v584h-25v58h255v-200h-61zM76 761l-41 41l125 100l125 -100l-41 -41l-84 68z" />
<glyph unicode="&#xcb;" horiz-adv-x="315" d="M219 500v142h-98v-254h139v-58h-139v-272h98v142h61v-200h-255v58h25v584h-25v58h255v-200h-61zM57 787v101h60v-101h-60zM202 787v101h61v-101h-61z" />
<glyph unicode="&#xcc;" horiz-adv-x="170" d="M25 642v58h120v-58h-24v-584h24v-58h-120v58h25v584h-25zM130 758l-131 110l42 42l130 -110z" />
<glyph unicode="&#xcd;" horiz-adv-x="170" d="M25 642v58h120v-58h-24v-584h24v-58h-120v58h25v584h-25zM41 758l-42 42l130 110l42 -41z" />
<glyph unicode="&#xce;" horiz-adv-x="170" d="M25 642v58h120v-58h-24v-584h24v-58h-120v58h25v584h-25zM1 761l-41 41l125 100l125 -100l-41 -41l-84 68z" />
<glyph unicode="&#xcf;" horiz-adv-x="170" d="M25 642v58h120v-58h-24v-584h24v-58h-120v58h25v584h-25zM-17 787v101h60v-101h-60zM128 787v101h61v-101h-61z" />
<glyph unicode="&#xd0;" horiz-adv-x="335" d="M25 0v58h25v272h-25v58h25v254h-25v58h147q54 0 90 -31t36 -85v-469q0 -54 -36 -84.5t-90 -30.5h-147zM121 58h51q23 0 39 15.5t16 41.5v469q0 27 -16 42.5t-39 15.5h-51v-254h56v-58h-56v-272z" />
<glyph unicode="&#xd1;" horiz-adv-x="352" d="M209 642v58h118v-58h-25v-642h-59l-123 475h-2v-417h25v-58h-118v58h25v584h-25v58h84l122 -475h3v417h-25zM51 768q0 38 22 60t56 22q28 0 51 -20.5t39 -20.5q15 0 25 9.5t10 26.5h45q0 -38 -22 -60t-55 -22q-28 0 -52 20.5t-39 20.5t-25 -9.5t-10 -26.5h-45z" />
<glyph unicode="&#xd2;" d="M162 705q54 0 90 -31t36 -85v-479q0 -54 -36 -84.5t-90 -30.5t-89.5 30.5t-35.5 84.5v479q0 54 35.5 85t89.5 31zM108 589v-479q0 -26 15.5 -41t38.5 -15t39 15t16 41v479q0 26 -16 41.5t-39 15.5t-38.5 -15.5t-15.5 -41.5zM207 758l-131 110l42 42l130 -110z" />
<glyph unicode="&#xd3;" d="M162 705q54 0 90 -31t36 -85v-479q0 -54 -36 -84.5t-90 -30.5t-89.5 30.5t-35.5 84.5v479q0 54 35.5 85t89.5 31zM108 589v-479q0 -26 15.5 -41t38.5 -15t39 15t16 41v479q0 26 -16 41.5t-39 15.5t-38.5 -15.5t-15.5 -41.5zM118 758l-42 42l130 110l42 -41z" />
<glyph unicode="&#xd4;" d="M162 705q54 0 90 -31t36 -85v-479q0 -54 -36 -84.5t-90 -30.5t-89.5 30.5t-35.5 84.5v479q0 54 35.5 85t89.5 31zM108 589v-479q0 -26 15.5 -41t38.5 -15t39 15t16 41v479q0 26 -16 41.5t-39 15.5t-38.5 -15.5t-15.5 -41.5zM79 761l-41 41l125 100l125 -100l-41 -41 l-84 68z" />
<glyph unicode="&#xd5;" d="M162 705q54 0 90 -31t36 -85v-479q0 -54 -36 -84.5t-90 -30.5t-89.5 30.5t-35.5 84.5v479q0 54 35.5 85t89.5 31zM108 589v-479q0 -26 15.5 -41t38.5 -15t39 15t16 41v479q0 26 -16 41.5t-39 15.5t-38.5 -15.5t-15.5 -41.5zM38 768q0 38 22 60t56 22q28 0 51 -20.5 t39 -20.5q15 0 25 9.5t10 26.5h45q0 -38 -22 -60t-55 -22q-28 0 -52 20.5t-39 20.5q-14 0 -24.5 -9.5t-10.5 -26.5h-45z" />
<glyph unicode="&#xd6;" d="M162 705q54 0 90 -31t36 -85v-479q0 -54 -36 -84.5t-90 -30.5t-89.5 30.5t-35.5 84.5v479q0 54 35.5 85t89.5 31zM108 589v-479q0 -26 15.5 -41t38.5 -15t39 15t16 41v479q0 26 -16 41.5t-39 15.5t-38.5 -15.5t-15.5 -41.5zM60 787v101h60v-101h-60zM205 787v101h61v-101 h-61z" />
<glyph unicode="&#xd7;" horiz-adv-x="340" d="M27 413l41 41l101 -101l103 102l41 -41l-103 -102l103 -103l-41 -41l-103 102l-101 -102l-42 42l102 102z" />
<glyph unicode="&#xd8;" d="M30 0l18 57q-11 24 -11 53v479q0 54 35.5 85t89.5 31q48 0 85 -27l7 22h41l-19 -59q12 -23 12 -52v-479q0 -54 -36 -84.5t-90 -30.5q-50 0 -84 26l-7 -21h-41zM162 54q23 0 39 15t16 41v346l-109 -341v-5q0 -26 15.5 -41t38.5 -15zM108 589v-346l109 341v5q0 26 -16 41.5 t-39 15.5t-38.5 -15.5t-15.5 -41.5z" />
<glyph unicode="&#xd9;" horiz-adv-x="335" d="M197 642v58h120v-58h-24v-532q0 -54 -36 -84.5t-90 -30.5t-89.5 30.5t-35.5 84.5v532h-24v58h95v-590q0 -26 15.5 -41t38.5 -15t39 15t16 41v532h-25zM212 758l-131 110l42 42l130 -110z" />
<glyph unicode="&#xda;" horiz-adv-x="335" d="M197 642v58h120v-58h-24v-532q0 -54 -36 -84.5t-90 -30.5t-89.5 30.5t-35.5 84.5v532h-24v58h95v-590q0 -26 15.5 -41t38.5 -15t39 15t16 41v532h-25zM123 758l-42 42l130 110l42 -41z" />
<glyph unicode="&#xdb;" horiz-adv-x="335" d="M197 642v58h120v-58h-24v-532q0 -54 -36 -84.5t-90 -30.5t-89.5 30.5t-35.5 84.5v532h-24v58h95v-590q0 -26 15.5 -41t38.5 -15t39 15t16 41v532h-25zM84 761l-41 41l125 100l125 -100l-41 -41l-84 68z" />
<glyph unicode="&#xdc;" horiz-adv-x="335" d="M197 642v58h120v-58h-24v-532q0 -54 -36 -84.5t-90 -30.5t-89.5 30.5t-35.5 84.5v532h-24v58h95v-590q0 -26 15.5 -41t38.5 -15t39 15t16 41v532h-25zM65 787v101h60v-101h-60zM210 787v101h61v-101h-61z" />
<glyph unicode="&#xdd;" horiz-adv-x="330" d="M207 642v58h119v-58h-28l-98 -418v-166h25v-58h-121v58h25v166l-98 418h-27v58h88l72 -363h2l64 305h-23zM121 758l-42 42l130 110l42 -41z" />
<glyph unicode="&#xde;" horiz-adv-x="320" d="M25 642v58h96v-123h36q54 0 90 -30.5t36 -83.5v-225q0 -53 -36 -84t-90 -31h-36v-65h24v-58h-120v58h25v584h-25zM121 181h36q23 0 39 15.5t16 41.5v225q0 25 -16 40.5t-39 15.5h-36v-338z" />
<glyph unicode="&#xdf;" horiz-adv-x="443" d="M18 442v58h24v110q0 56 37.5 88t93.5 32t94 -32t38 -88v-83q0 -29 -11.5 -48t-25 -27.5t-25 -24.5t-11.5 -39v-46q0 -22 18 -36t43.5 -22t51 -19t43.5 -34.5t18 -59.5v-63q0 -53 -35 -83t-88 -30q-34 0 -64.5 9t-44.5 18l-14 9v132h71v-94q21 -15 52 -15q22 0 37 14.5 t15 39.5v63q0 22 -18 36t-43.5 22t-51 19t-43.5 34.5t-18 59.5v56q0 27 11.5 45t24.5 26.5t24.5 25.5t11.5 43v72q0 28 -17.5 44.5t-42.5 16.5q-26 0 -43 -16.5t-17 -44.5v-610h-95v58h24v384h-24z" />
<glyph unicode="&#xe0;" horiz-adv-x="330" d="M217 0v47q-37 -52 -101 -52q-34 0 -56.5 22t-22.5 60v97q0 52 30.5 80t81.5 35l68 8v93q0 26 -15.5 41t-37.5 15q-14 0 -27.5 -4t-19.5 -8l-6 -4v-93h-71v131q47 37 124 37q54 0 89 -30.5t35 -84.5v-332h24v-58h-95zM217 238l-54 -7q-55 -7 -55 -57v-79q0 -19 11.5 -30 t27.5 -11q28 0 49 19.5t21 51.5v113zM207 558l-131 110l42 42l130 -110z" />
<glyph unicode="&#xe1;" horiz-adv-x="330" d="M40 337v131q47 37 124 37q54 0 89 -30.5t35 -84.5v-332h24v-58h-95v47q-37 -52 -101 -52q-34 0 -56.5 22t-22.5 60v97q0 52 30.5 80t81.5 35l68 8v93q0 26 -15.5 41t-37.5 15q-14 0 -27.5 -4t-19.5 -8l-6 -4v-93h-71zM217 238l-54 -7q-55 -7 -55 -57v-79q0 -19 11.5 -30 t27.5 -11q28 0 49 19.5t21 51.5v113zM118 558l-42 42l130 110l42 -41z" />
<glyph unicode="&#xe2;" horiz-adv-x="330" d="M40 337v131q47 37 124 37q54 0 89 -30.5t35 -84.5v-332h24v-58h-95v47q-37 -52 -101 -52q-34 0 -56.5 22t-22.5 60v97q0 52 30.5 80t81.5 35l68 8v93q0 26 -15.5 41t-37.5 15q-14 0 -27.5 -4t-19.5 -8l-6 -4v-93h-71zM217 238l-54 -7q-55 -7 -55 -57v-79q0 -19 11.5 -30 t27.5 -11q28 0 49 19.5t21 51.5v113zM79 561l-41 41l125 100l125 -100l-41 -41l-84 68z" />
<glyph unicode="&#xe3;" horiz-adv-x="330" d="M217 0v47q-37 -52 -101 -52q-34 0 -56.5 22t-22.5 60v97q0 52 30.5 80t81.5 35l68 8v93q0 26 -15.5 41t-37.5 15q-14 0 -27.5 -4t-19.5 -8l-6 -4v-93h-71v131q47 37 124 37q54 0 89 -30.5t35 -84.5v-332h24v-58h-95zM217 238l-54 -7q-55 -7 -55 -57v-79q0 -19 11.5 -30 t27.5 -11q28 0 49 19.5t21 51.5v113zM38 568q0 38 22 60t56 22q28 0 51 -20.5t39 -20.5q15 0 25 9.5t10 26.5h45q0 -38 -22 -60t-55 -22q-28 0 -52 20.5t-39 20.5q-14 0 -24.5 -9.5t-10.5 -26.5h-45z" />
<glyph unicode="&#xe4;" horiz-adv-x="330" d="M40 337v131q47 37 124 37q54 0 89 -30.5t35 -84.5v-332h24v-58h-95v47q-37 -52 -101 -52q-34 0 -56.5 22t-22.5 60v97q0 52 30.5 80t81.5 35l68 8v93q0 26 -15.5 41t-37.5 15q-14 0 -27.5 -4t-19.5 -8l-6 -4v-93h-71zM217 238l-54 -7q-55 -7 -55 -57v-79q0 -19 11.5 -30 t27.5 -11q28 0 49 19.5t21 51.5v113zM205 587v101h61v-101h-61zM60 587v101h60v-101h-60z" />
<glyph unicode="&#xe5;" horiz-adv-x="330" d="M40 337v131q47 37 124 37q54 0 89 -30.5t35 -84.5v-332h24v-58h-95v47q-37 -52 -101 -52q-34 0 -56.5 22t-22.5 60v97q0 52 30.5 80t81.5 35l68 8v93q0 26 -15.5 41t-37.5 15q-14 0 -27.5 -4t-19.5 -8l-6 -4v-93h-71zM162 715q37 0 61.5 -23t24.5 -62q0 -40 -24.5 -62.5 t-61.5 -22.5t-61 22.5t-24 62.5q0 39 24 62t61 23zM217 238l-54 -7q-55 -7 -55 -57v-79q0 -19 11.5 -30t27.5 -11q28 0 49 19.5t21 51.5v113zM123 630q0 -20 11.5 -31.5t27.5 -11.5q17 0 28.5 11.5t11.5 31.5t-11.5 32t-28.5 12q-16 0 -27.5 -12t-11.5 -32z" />
<glyph unicode="&#xe6;" horiz-adv-x="504" d="M37 337v131q48 37 126 37q29 0 53 -13t36 -36q26 49 89 49q54 0 90 -31t36 -85v-159h-179v-120q0 -26 15 -41t38 -15q24 0 39.5 15t15.5 41v53h71v-53q0 -54 -35.5 -84.5t-90.5 -30.5q-82 0 -110 63q-40 -63 -115 -63q-34 0 -56.5 22t-22.5 60v85q0 52 31.5 83t80.5 36 l68 5v104q0 26 -15.5 41t-38.5 15q-15 0 -28.5 -4t-20.5 -8l-6 -4v-93h-71zM217 227l-54 -4q-23 -2 -39 -19t-16 -42v-67q0 -19 11.5 -30t27.5 -11q28 0 49 19.5t21 51.5v102zM288 288h108v101q0 28 -15 42.5t-40 14.5q-23 0 -38 -14.5t-15 -42.5v-101z" />
<glyph unicode="&#xe7;" horiz-adv-x="320" d="M133 -138v135q-43 7 -69.5 36t-26.5 75v283q0 53 35 83.5t88 30.5q34 0 64.5 -9.5t44.5 -18.5l14 -9v-131h-71v93q-21 16 -52 16q-22 0 -37 -15t-15 -40v-283q0 -25 14.5 -39.5t37.5 -14.5q22 0 37 14.5t15 39.5v55h71v-55q0 -46 -27 -75t-70 -36v-135h-53z" />
<glyph unicode="&#xe8;" d="M288 227h-180v-117q0 -26 15.5 -41t38.5 -15t39 15t16 41v53h71v-53q0 -54 -36 -84.5t-90 -30.5t-89.5 30.5t-35.5 84.5v279q0 54 35.5 85t89.5 31t90 -31t36 -85v-162zM108 389v-104h109v104q0 28 -15.5 42.5t-39.5 14.5t-39 -14.5t-15 -42.5zM207 558l-131 110l42 42 l130 -110z" />
<glyph unicode="&#xe9;" d="M288 227h-180v-117q0 -26 15.5 -41t38.5 -15t39 15t16 41v53h71v-53q0 -54 -36 -84.5t-90 -30.5t-89.5 30.5t-35.5 84.5v279q0 54 35.5 85t89.5 31t90 -31t36 -85v-162zM108 389v-104h109v104q0 28 -15.5 42.5t-39.5 14.5t-39 -14.5t-15 -42.5zM118 558l-42 42l130 110 l42 -41z" />
<glyph unicode="&#xea;" d="M288 227h-180v-117q0 -26 15.5 -41t38.5 -15t39 15t16 41v53h71v-53q0 -54 -36 -84.5t-90 -30.5t-89.5 30.5t-35.5 84.5v279q0 54 35.5 85t89.5 31t90 -31t36 -85v-162zM108 389v-104h109v104q0 28 -15.5 42.5t-39.5 14.5t-39 -14.5t-15 -42.5zM79 561l-41 41l125 100 l125 -100l-41 -41l-84 68z" />
<glyph unicode="&#xeb;" d="M288 227h-180v-117q0 -26 15.5 -41t38.5 -15t39 15t16 41v53h71v-53q0 -54 -36 -84.5t-90 -30.5t-89.5 30.5t-35.5 84.5v279q0 54 35.5 85t89.5 31t90 -31t36 -85v-162zM108 389v-104h109v104q0 28 -15.5 42.5t-39.5 14.5t-39 -14.5t-15 -42.5zM60 587v101h60v-101h-60z M205 587v101h61v-101h-61z" />
<glyph unicode="&#xec;" horiz-adv-x="170" d="M130 558l-131 110l42 42l130 -110zM25 442v58h96v-442h24v-58h-120v58h25v384h-25z" />
<glyph unicode="&#xed;" horiz-adv-x="170" d="M41 558l-42 42l130 110l42 -41zM25 442v58h96v-442h24v-58h-120v58h25v384h-25z" />
<glyph unicode="&#xee;" horiz-adv-x="170" d="M25 442v58h96v-442h24v-58h-120v58h25v384h-25zM1 561l-41 41l125 100l125 -100l-41 -41l-84 68z" />
<glyph unicode="&#xef;" horiz-adv-x="170" d="M-17 587v101h60v-101h-60zM128 587v101h61v-101h-61zM25 442v58h96v-442h24v-58h-120v58h25v384h-25z" />
<glyph unicode="&#xf0;" d="M138 561l-36 36l49 49q-18 16 -38.5 29.5t-32.5 19.5l-12 6l28 28q46 -14 93 -45l45 46l37 -36l-42 -42q59 -55 59 -127v-415q0 -54 -35.5 -84.5t-89.5 -30.5t-90 30.5t-36 84.5v311q0 39 23.5 61.5t58.5 22.5q60 0 98 -52v72q0 43 -31 84zM217 110v265q0 33 -19.5 52 t-48.5 19q-17 0 -29 -11.5t-12 -31.5v-293q0 -26 16 -41t39 -15t38.5 15t15.5 41z" />
<glyph unicode="&#xf1;" horiz-adv-x="342" d="M25 0v58h25v384h-25v58h96v-47q38 52 98 52q34 0 57.5 -23t23.5 -61v-363h25v-58h-96v403q0 20 -12 31.5t-29 11.5q-29 0 -48 -19t-19 -52v-317h24v-58h-120zM47 568q0 38 22 60t56 22q28 0 51 -20.5t39 -20.5q15 0 25 9.5t10 26.5h45q0 -38 -22 -60t-55 -22 q-28 0 -52 20.5t-39 20.5t-25 -9.5t-10 -26.5h-45z" />
<glyph unicode="&#xf2;" d="M162 505q54 0 90 -31t36 -85v-279q0 -54 -36 -84.5t-90 -30.5t-89.5 30.5t-35.5 84.5v279q0 54 35.5 85t89.5 31zM108 389v-279q0 -26 15.5 -41t38.5 -15t39 15t16 41v279q0 26 -16 41.5t-39 15.5t-38.5 -15.5t-15.5 -41.5zM207 558l-131 110l42 42l130 -110z" />
<glyph unicode="&#xf3;" d="M162 505q54 0 90 -31t36 -85v-279q0 -54 -36 -84.5t-90 -30.5t-89.5 30.5t-35.5 84.5v279q0 54 35.5 85t89.5 31zM108 389v-279q0 -26 15.5 -41t38.5 -15t39 15t16 41v279q0 26 -16 41.5t-39 15.5t-38.5 -15.5t-15.5 -41.5zM118 558l-42 42l130 110l42 -41z" />
<glyph unicode="&#xf4;" d="M162 505q54 0 90 -31t36 -85v-279q0 -54 -36 -84.5t-90 -30.5t-89.5 30.5t-35.5 84.5v279q0 54 35.5 85t89.5 31zM108 389v-279q0 -26 15.5 -41t38.5 -15t39 15t16 41v279q0 26 -16 41.5t-39 15.5t-38.5 -15.5t-15.5 -41.5zM79 561l-41 41l125 100l125 -100l-41 -41 l-84 68z" />
<glyph unicode="&#xf5;" d="M162 505q54 0 90 -31t36 -85v-279q0 -54 -36 -84.5t-90 -30.5t-89.5 30.5t-35.5 84.5v279q0 54 35.5 85t89.5 31zM108 389v-279q0 -26 15.5 -41t38.5 -15t39 15t16 41v279q0 26 -16 41.5t-39 15.5t-38.5 -15.5t-15.5 -41.5zM38 568q0 38 22 60t56 22q28 0 51 -20.5 t39 -20.5q15 0 25 9.5t10 26.5h45q0 -38 -22 -60t-55 -22q-28 0 -52 20.5t-39 20.5q-14 0 -24.5 -9.5t-10.5 -26.5h-45z" />
<glyph unicode="&#xf6;" d="M162 505q54 0 90 -31t36 -85v-279q0 -54 -36 -84.5t-90 -30.5t-89.5 30.5t-35.5 84.5v279q0 54 35.5 85t89.5 31zM108 389v-279q0 -26 15.5 -41t38.5 -15t39 15t16 41v279q0 26 -16 41.5t-39 15.5t-38.5 -15.5t-15.5 -41.5zM60 587v101h60v-101h-60zM205 587v101h61v-101 h-61z" />
<glyph unicode="&#xf7;" horiz-adv-x="340" d="M30 247v58h280v-58h-280zM135 77v101h69v-101h-69zM135 375v100h69v-100h-69z" />
<glyph unicode="&#xf8;" d="M30 0l22 50q-15 24 -15 60v279q0 54 35.5 85t89.5 31q49 0 83 -26l9 21h41l-23 -51q16 -26 16 -60v-279q0 -54 -36 -84.5t-90 -30.5q-49 0 -82 24l-9 -19h-41zM108 389v-215l106 236q-13 36 -52 36q-23 0 -38.5 -15.5t-15.5 -41.5zM162 54q23 0 39 15t16 41v216 l-106 -237q11 -35 51 -35z" />
<glyph unicode="&#xf9;" horiz-adv-x="342" d="M197 442v58h96v-442h24v-58h-95v47q-38 -52 -98 -52q-35 0 -58.5 22.5t-23.5 61.5v363h-24v58h95v-403q0 -20 12 -31.5t29 -11.5q29 0 48.5 19t19.5 52v317h-25zM216 558l-131 110l42 42l130 -110z" />
<glyph unicode="&#xfa;" horiz-adv-x="342" d="M197 442v58h96v-442h24v-58h-95v47q-38 -52 -98 -52q-35 0 -58.5 22.5t-23.5 61.5v363h-24v58h95v-403q0 -20 12 -31.5t29 -11.5q29 0 48.5 19t19.5 52v317h-25zM127 558l-42 42l130 110l42 -41z" />
<glyph unicode="&#xfb;" horiz-adv-x="342" d="M197 442v58h96v-442h24v-58h-95v47q-38 -52 -98 -52q-35 0 -58.5 22.5t-23.5 61.5v363h-24v58h95v-403q0 -20 12 -31.5t29 -11.5q29 0 48.5 19t19.5 52v317h-25zM87 561l-41 41l125 100l125 -100l-41 -41l-84 68z" />
<glyph unicode="&#xfc;" horiz-adv-x="342" d="M197 442v58h96v-442h24v-58h-95v47q-38 -52 -98 -52q-35 0 -58.5 22.5t-23.5 61.5v363h-24v58h95v-403q0 -20 12 -31.5t29 -11.5q29 0 48.5 19t19.5 52v317h-25zM68 587v101h60v-101h-60zM213 587v101h61v-101h-61z" />
<glyph unicode="&#xfd;" horiz-adv-x="335" d="M197 442v58h96v-614q0 -54 -35 -85t-89 -31q-34 0 -65 9t-45 19l-14 9v113h71v-75q21 -16 53 -16q22 0 37 15t16 41v162q-38 -52 -98 -52q-35 0 -58.5 22.5t-23.5 61.5v363h-24v58h95v-403q0 -20 12 -31.5t29 -11.5q29 0 48.5 19t19.5 52v317h-25zM126 558l-42 42 l130 110l42 -41z" />
<glyph unicode="&#xfe;" horiz-adv-x="332" d="M20 667v58h96v-272q38 52 98 52q34 0 57.5 -23t23.5 -61v-311q0 -54 -31.5 -84.5t-79.5 -30.5q-40 0 -68 15v-152h24v-58h-120v58h25v809h-25zM116 70q21 -16 53 -16q24 0 39.5 15t15.5 41v293q0 20 -12 31.5t-29 11.5q-29 0 -48 -19t-19 -52v-305z" />
<glyph unicode="&#xff;" horiz-adv-x="335" d="M197 442v58h96v-614q0 -54 -35 -85t-89 -31q-34 0 -65 9t-45 19l-14 9v113h71v-75q21 -16 53 -16q22 0 37 15t16 41v162q-38 -52 -98 -52q-35 0 -58.5 22.5t-23.5 61.5v363h-24v58h95v-403q0 -20 12 -31.5t29 -11.5q29 0 48.5 19t19.5 52v317h-25zM67 587v101h60v-101 h-60zM212 587v101h61v-101h-61z" />
<glyph unicode="&#x100;" horiz-adv-x="330" d="M2 0v58h25l84 584h-20v58h121l90 -642h27v-58h-92l-22 174h-100l-18 -116h25v-58h-120zM119 232h92l-44 386h-2zM66 797v58h198v-58h-198z" />
<glyph unicode="&#x101;" horiz-adv-x="330" d="M40 337v131q47 37 124 37q54 0 89 -30.5t35 -84.5v-332h24v-58h-95v47q-37 -52 -101 -52q-34 0 -56.5 22t-22.5 60v97q0 52 30.5 80t81.5 35l68 8v93q0 26 -15.5 41t-37.5 15q-14 0 -27.5 -4t-19.5 -8l-6 -4v-93h-71zM217 238l-54 -7q-55 -7 -55 -57v-79q0 -19 11.5 -30 t27.5 -11q28 0 49 19.5t21 51.5v113zM63 597v58h198v-58h-198z" />
<glyph unicode="&#x102;" horiz-adv-x="330" d="M2 0v58h25l84 584h-20v58h121l90 -642h27v-58h-92l-22 174h-100l-18 -116h25v-58h-120zM119 232h92l-44 386h-2zM67 852h50q0 -24 14 -37.5t34 -13.5q21 0 35.5 13.5t14.5 37.5h49q0 -44 -28 -69.5t-71 -25.5t-70.5 25.5t-27.5 69.5z" />
<glyph unicode="&#x103;" horiz-adv-x="330" d="M217 0v47q-37 -52 -101 -52q-34 0 -56.5 22t-22.5 60v97q0 52 30.5 80t81.5 35l68 8v93q0 26 -15.5 41t-37.5 15q-14 0 -27.5 -4t-19.5 -8l-6 -4v-93h-71v131q47 37 124 37q54 0 89 -30.5t35 -84.5v-332h24v-58h-95zM217 238l-54 -7q-55 -7 -55 -57v-79q0 -19 11.5 -30 t27.5 -11q28 0 49 19.5t21 51.5v113zM64 652h50q0 -24 14 -37.5t34 -13.5q21 0 35.5 13.5t14.5 37.5h49q0 -44 -28 -69.5t-71 -25.5t-70.5 25.5t-27.5 69.5z" />
<glyph unicode="&#x104;" horiz-adv-x="330" d="M237 -30v30l-22 174h-100l-18 -116h25v-58h-120v58h25l84 584h-20v58h121l90 -642h27v-58h-42v-30q0 -25 14 -41.5t38 -16.5v-42q-47 0 -74.5 28.5t-27.5 71.5zM119 232h92l-44 386h-2z" />
<glyph unicode="&#x105;" horiz-adv-x="330" d="M217 47q-37 -52 -101 -52q-34 0 -56.5 22t-22.5 60v97q0 52 30.5 80t81.5 35l68 8v93q0 26 -15.5 41t-37.5 15q-14 0 -27.5 -4t-19.5 -8l-6 -4v-93h-71v131q47 37 124 37q54 0 89 -30.5t35 -84.5v-332h24v-58h-45v-30q0 -25 14 -41.5t38 -16.5v-42q-47 0 -74.5 28.5 t-27.5 71.5v77zM217 238l-54 -7q-55 -7 -55 -57v-79q0 -19 11.5 -30t27.5 -11q28 0 49 19.5t21 51.5v113z" />
<glyph unicode="&#x106;" horiz-adv-x="320" d="M211 630q-20 16 -51 16q-22 0 -37 -15t-15 -40v-483q0 -25 14.5 -39.5t37.5 -14.5q22 0 37 14.5t15 39.5v92h71v-92q0 -53 -35 -83t-88 -30t-88 30t-35 83v483q0 53 35 83.5t88 30.5q34 0 64.5 -9t43.5 -18l14 -9v-169h-71v130zM116 758l-42 42l130 110l42 -41z" />
<glyph unicode="&#x107;" horiz-adv-x="320" d="M212 430q-21 16 -52 16q-22 0 -37 -15t-15 -40v-283q0 -25 14.5 -39.5t37.5 -14.5q22 0 37 14.5t15 39.5v55h71v-55q0 -53 -35 -83t-88 -30t-88 30t-35 83v283q0 53 35 83.5t88 30.5q34 0 64.5 -9.5t44.5 -18.5l14 -9v-131h-71v93zM116 558l-42 42l130 110l42 -41z" />
<glyph unicode="&#x108;" horiz-adv-x="320" d="M211 630q-20 16 -51 16q-22 0 -37 -15t-15 -40v-483q0 -25 14.5 -39.5t37.5 -14.5q22 0 37 14.5t15 39.5v92h71v-92q0 -53 -35 -83t-88 -30t-88 30t-35 83v483q0 53 35 83.5t88 30.5q34 0 64.5 -9t43.5 -18l14 -9v-169h-71v130zM76 761l-41 41l125 100l125 -100l-41 -41 l-84 68z" />
<glyph unicode="&#x109;" horiz-adv-x="320" d="M212 430q-21 16 -52 16q-22 0 -37 -15t-15 -40v-283q0 -25 14.5 -39.5t37.5 -14.5q22 0 37 14.5t15 39.5v55h71v-55q0 -53 -35 -83t-88 -30t-88 30t-35 83v283q0 53 35 83.5t88 30.5q34 0 64.5 -9.5t44.5 -18.5l14 -9v-131h-71v93zM76 561l-41 41l125 100l125 -100 l-41 -41l-84 68z" />
<glyph unicode="&#x10a;" horiz-adv-x="320" d="M211 630q-20 16 -51 16q-22 0 -37 -15t-15 -40v-483q0 -25 14.5 -39.5t37.5 -14.5q22 0 37 14.5t15 39.5v92h71v-92q0 -53 -35 -83t-88 -30t-88 30t-35 83v483q0 53 35 83.5t88 30.5q34 0 64.5 -9t43.5 -18l14 -9v-169h-71v130zM124 799v101h71v-101h-71z" />
<glyph unicode="&#x10b;" horiz-adv-x="320" d="M212 430q-21 16 -52 16q-22 0 -37 -15t-15 -40v-283q0 -25 14.5 -39.5t37.5 -14.5q22 0 37 14.5t15 39.5v55h71v-55q0 -53 -35 -83t-88 -30t-88 30t-35 83v283q0 53 35 83.5t88 30.5q34 0 64.5 -9.5t44.5 -18.5l14 -9v-131h-71v93zM124 599v101h71v-101h-71z" />
<glyph unicode="&#x10c;" horiz-adv-x="320" d="M211 630q-20 16 -51 16q-22 0 -37 -15t-15 -40v-483q0 -25 14.5 -39.5t37.5 -14.5q22 0 37 14.5t15 39.5v92h71v-92q0 -53 -35 -83t-88 -30t-88 30t-35 83v483q0 53 35 83.5t88 30.5q34 0 64.5 -9t43.5 -18l14 -9v-169h-71v130zM160 760l-125 101l41 41l84 -69l84 69 l41 -41z" />
<glyph unicode="&#x10d;" horiz-adv-x="320" d="M212 430q-21 16 -52 16q-22 0 -37 -15t-15 -40v-283q0 -25 14.5 -39.5t37.5 -14.5q22 0 37 14.5t15 39.5v55h71v-55q0 -53 -35 -83t-88 -30t-88 30t-35 83v283q0 53 35 83.5t88 30.5q34 0 64.5 -9.5t44.5 -18.5l14 -9v-131h-71v93zM160 560l-125 101l41 41l84 -69l84 69 l41 -41z" />
<glyph unicode="&#x10e;" horiz-adv-x="335" d="M25 642v58h147q54 0 90 -31t36 -85v-469q0 -54 -36 -84.5t-90 -30.5h-147v58h25v584h-25zM121 58h51q23 0 39 15.5t16 41.5v469q0 27 -16 42.5t-39 15.5h-51v-584zM170 760l-125 101l41 41l84 -69l84 69l41 -41z" />
<glyph unicode="&#x10f;" horiz-adv-x="475" d="M192 667v58h96v-667h24v-58h-95v47q-38 -52 -98 -52q-35 0 -58.5 22.5t-23.5 61.5v311q0 54 32 84.5t80 30.5q38 0 68 -15v177h-25zM217 430q-21 16 -54 16q-23 0 -39 -15t-16 -41v-293q0 -20 12 -31.5t29 -11.5q29 0 48.5 19t19.5 52v305zM391 502h-58q27 65 27 122v101 h69v-101q0 -25 -9.5 -55.5t-19.5 -48.5z" />
<glyph unicode="&#x110;" horiz-adv-x="335" d="M25 0v58h25v272h-25v58h25v254h-25v58h147q54 0 90 -31t36 -85v-469q0 -54 -36 -84.5t-90 -30.5h-147zM121 58h51q23 0 39 15.5t16 41.5v469q0 27 -16 42.5t-39 15.5h-51v-254h56v-58h-56v-272z" />
<glyph unicode="&#x111;" horiz-adv-x="337" d="M83 589v59h134v77h71v-77h20v-59h-20v-531h24v-58h-95v47q-38 -52 -98 -52q-35 0 -58.5 22.5t-23.5 61.5v311q0 54 32 84.5t80 30.5q38 0 68 -15v99h-134zM217 430q-21 16 -54 16q-23 0 -39 -15t-16 -41v-293q0 -20 12 -31.5t29 -11.5q29 0 48.5 19t19.5 52v305z" />
<glyph unicode="&#x112;" horiz-adv-x="315" d="M219 500v142h-98v-254h139v-58h-139v-272h98v142h61v-200h-255v58h25v584h-25v58h255v-200h-61zM61 797v58h198v-58h-198z" />
<glyph unicode="&#x113;" d="M288 227h-180v-117q0 -26 15.5 -41t38.5 -15t39 15t16 41v53h71v-53q0 -54 -36 -84.5t-90 -30.5t-89.5 30.5t-35.5 84.5v279q0 54 35.5 85t89.5 31t90 -31t36 -85v-162zM108 389v-104h109v104q0 28 -15.5 42.5t-39.5 14.5t-39 -14.5t-15 -42.5zM63 597v58h198v-58h-198z " />
<glyph unicode="&#x114;" horiz-adv-x="315" d="M219 500v142h-98v-254h139v-58h-139v-272h98v142h61v-200h-255v58h25v584h-25v58h255v-200h-61zM61 852h50q0 -24 14 -37.5t34 -13.5q21 0 35.5 13.5t14.5 37.5h49q0 -44 -28 -69.5t-71 -25.5t-70.5 25.5t-27.5 69.5z" />
<glyph unicode="&#x115;" d="M288 227h-180v-117q0 -26 15.5 -41t38.5 -15t39 15t16 41v53h71v-53q0 -54 -36 -84.5t-90 -30.5t-89.5 30.5t-35.5 84.5v279q0 54 35.5 85t89.5 31t90 -31t36 -85v-162zM108 389v-104h109v104q0 28 -15.5 42.5t-39.5 14.5t-39 -14.5t-15 -42.5zM64 652h50q0 -24 14 -37.5 t34 -13.5q21 0 35.5 13.5t14.5 37.5h49q0 -44 -28 -69.5t-71 -25.5t-70.5 25.5t-27.5 69.5z" />
<glyph unicode="&#x116;" horiz-adv-x="315" d="M219 500v142h-98v-254h139v-58h-139v-272h98v142h61v-200h-255v58h25v584h-25v58h255v-200h-61zM124 799v101h71v-101h-71z" />
<glyph unicode="&#x117;" d="M288 227h-180v-117q0 -26 15.5 -41t38.5 -15t39 15t16 41v53h71v-53q0 -54 -36 -84.5t-90 -30.5t-89.5 30.5t-35.5 84.5v279q0 54 35.5 85t89.5 31t90 -31t36 -85v-162zM108 389v-104h109v104q0 28 -15.5 42.5t-39.5 14.5t-39 -14.5t-15 -42.5zM126 599v101h71v-101h-71z " />
<glyph unicode="&#x118;" horiz-adv-x="315" d="M176 -30v30h-151v58h25v584h-25v58h255v-200h-61v142h-98v-254h139v-58h-139v-272h98v142h61v-200h-54v-30q0 -25 14 -41.5t38 -16.5v-42q-47 0 -74.5 28.5t-27.5 71.5z" />
<glyph unicode="&#x119;" d="M151 -30v26q-50 3 -82 33t-32 81v279q0 54 35.5 85t89.5 31t90 -31t36 -85v-162h-180v-117q0 -26 15.5 -41t38.5 -15t39 15t16 41v53h71v-53q0 -43 -24 -72t-63 -38v-30q0 -25 14 -41.5t38 -16.5v-42q-47 0 -74.5 28.5t-27.5 71.5zM108 389v-104h109v104q0 28 -15.5 42.5 t-39.5 14.5t-39 -14.5t-15 -42.5z" />
<glyph unicode="&#x11a;" horiz-adv-x="315" d="M219 500v142h-98v-254h139v-58h-139v-272h98v142h61v-200h-255v58h25v584h-25v58h255v-200h-61zM160 760l-125 101l41 41l84 -69l84 69l41 -41z" />
<glyph unicode="&#x11b;" d="M288 227h-180v-117q0 -26 15.5 -41t38.5 -15t39 15t16 41v53h71v-53q0 -54 -36 -84.5t-90 -30.5t-89.5 30.5t-35.5 84.5v279q0 54 35.5 85t89.5 31t90 -31t36 -85v-162zM108 389v-104h109v104q0 28 -15.5 42.5t-39.5 14.5t-39 -14.5t-15 -42.5zM163 560l-125 101l41 41 l84 -69l84 69l41 -41z" />
<glyph unicode="&#x11c;" horiz-adv-x="320" d="M211 630q-20 16 -51 16q-22 0 -37 -15t-15 -40v-483q0 -25 14.5 -39.5t37.5 -14.5q22 0 37 14.5t15 39.5v214h-51v58h122v-272q0 -53 -35 -83t-88 -30t-88 30t-35 83v483q0 53 35 83.5t88 30.5q34 0 64.5 -9t43.5 -18l14 -9v-169h-71v130zM76 761l-41 41l125 100 l125 -100l-41 -41l-84 68z" />
<glyph unicode="&#x11d;" d="M217 125v305q-21 16 -54 16q-23 0 -39 -15t-16 -41v-293q0 -20 12 -31.5t29 -11.5q29 0 48.5 19t19.5 52zM40 -193v108h71v-70q21 -16 53 -16q22 0 37 15t16 41v162q-38 -52 -98 -52q-35 0 -58.5 22.5t-23.5 61.5v311q0 54 36 84.5t90 30.5q35 0 66 -9.5t45 -18.5l14 -9 v-582q0 -54 -35 -85t-89 -31q-34 0 -65 9t-45 19zM79 561l-41 41l125 100l125 -100l-41 -41l-84 68z" />
<glyph unicode="&#x11e;" horiz-adv-x="320" d="M211 630q-20 16 -51 16q-22 0 -37 -15t-15 -40v-483q0 -25 14.5 -39.5t37.5 -14.5q22 0 37 14.5t15 39.5v214h-51v58h122v-272q0 -53 -35 -83t-88 -30t-88 30t-35 83v483q0 53 35 83.5t88 30.5q34 0 64.5 -9t43.5 -18l14 -9v-169h-71v130zM62 852h50q0 -24 14 -37.5 t34 -13.5q21 0 35.5 13.5t14.5 37.5h49q0 -44 -28 -69.5t-71 -25.5t-70.5 25.5t-27.5 69.5z" />
<glyph unicode="&#x11f;" d="M217 125v305q-21 16 -54 16q-23 0 -39 -15t-16 -41v-293q0 -20 12 -31.5t29 -11.5q29 0 48.5 19t19.5 52zM40 -193v108h71v-70q21 -16 53 -16q22 0 37 15t16 41v162q-38 -52 -98 -52q-35 0 -58.5 22.5t-23.5 61.5v311q0 54 36 84.5t90 30.5q35 0 66 -9.5t45 -18.5l14 -9 v-582q0 -54 -35 -85t-89 -31q-34 0 -65 9t-45 19zM64 652h50q0 -24 14 -37.5t34 -13.5q21 0 35.5 13.5t14.5 37.5h49q0 -44 -28 -69.5t-71 -25.5t-70.5 25.5t-27.5 69.5z" />
<glyph unicode="&#x120;" horiz-adv-x="320" d="M211 630q-20 16 -51 16q-22 0 -37 -15t-15 -40v-483q0 -25 14.5 -39.5t37.5 -14.5q22 0 37 14.5t15 39.5v214h-51v58h122v-272q0 -53 -35 -83t-88 -30t-88 30t-35 83v483q0 53 35 83.5t88 30.5q34 0 64.5 -9t43.5 -18l14 -9v-169h-71v130zM124 799v101h71v-101h-71z" />
<glyph unicode="&#x121;" d="M217 125v305q-21 16 -54 16q-23 0 -39 -15t-16 -41v-293q0 -20 12 -31.5t29 -11.5q29 0 48.5 19t19.5 52zM40 -193v108h71v-70q21 -16 53 -16q22 0 37 15t16 41v162q-38 -52 -98 -52q-35 0 -58.5 22.5t-23.5 61.5v311q0 54 36 84.5t90 30.5q35 0 66 -9.5t45 -18.5l14 -9 v-582q0 -54 -35 -85t-89 -31q-34 0 -65 9t-45 19zM126 599v101h71v-101h-71z" />
<glyph unicode="&#x122;" horiz-adv-x="320" d="M211 630q-20 16 -51 16q-22 0 -37 -15t-15 -40v-483q0 -25 14.5 -39.5t37.5 -14.5q22 0 37 14.5t15 39.5v214h-51v58h122v-272q0 -53 -35 -83t-88 -30t-88 30t-35 83v483q0 53 35 83.5t88 30.5q34 0 64.5 -9t43.5 -18l14 -9v-169h-71v130zM199 -105q0 -44 -27 -103h-51 q20 60 20 103v75h58v-75z" />
<glyph unicode="&#x123;" d="M217 125v305q-21 16 -54 16q-23 0 -39 -15t-16 -41v-293q0 -20 12 -31.5t29 -11.5q29 0 48.5 19t19.5 52zM40 -193v108h71v-70q21 -16 53 -16q22 0 37 15t16 41v162q-38 -52 -98 -52q-35 0 -58.5 22.5t-23.5 61.5v311q0 54 36 84.5t90 30.5q35 0 66 -9.5t45 -18.5l14 -9 v-582q0 -54 -35 -85t-89 -31q-34 0 -65 9t-45 19zM164 800h58q-27 -65 -27 -123v-100h-69v100q0 26 9.5 56.5t18.5 48.5z" />
<glyph unicode="&#x124;" horiz-adv-x="350" d="M25 0v58h25v584h-25v58h96v-312h108v254h-25v58h121v-58h-25v-584h25v-58h-96v330h-108v-272h24v-58h-120zM91 761l-41 41l125 100l125 -100l-41 -41l-84 68z" />
<glyph unicode="&#x125;" horiz-adv-x="342" d="M25 0v58h25v609h-25v58h96v-272q38 52 98 52q34 0 57.5 -23t23.5 -61v-363h25v-58h-96v403q0 20 -12 31.5t-29 11.5q-29 0 -48 -19t-19 -52v-317h24v-58h-120zM97 741l-41 41l125 100l125 -100l-41 -41l-84 68z" />
<glyph unicode="&#x126;" horiz-adv-x="350" d="M25 0v58h25v437h-30v58h30v89h-25v58h96v-147h108v89h-25v58h121v-58h-25v-89h30v-58h-30v-437h25v-58h-96v330h-108v-272h24v-58h-120zM121 388h108v107h-108v-107z" />
<glyph unicode="&#x127;" horiz-adv-x="365" d="M48 0v58h24v521h-45v59h45v87h71v-87h124v-59h-124v-126q38 52 98 52q35 0 58.5 -22.5t23.5 -61.5v-363h24v-58h-95v403q0 20 -12 31.5t-29 11.5q-29 0 -48.5 -19t-19.5 -52v-317h25v-58h-120z" />
<glyph unicode="&#x128;" horiz-adv-x="170" d="M25 642v58h120v-58h-24v-584h24v-58h-120v58h25v584h-25zM-39 768q0 38 22 60t56 22q28 0 51 -20.5t39 -20.5q15 0 25 9.5t10 26.5h45q0 -38 -22 -60t-55 -22q-28 0 -52 20.5t-39 20.5t-25 -9.5t-10 -26.5h-45z" />
<glyph unicode="&#x129;" horiz-adv-x="170" d="M-39 568q0 38 22 60t56 22q28 0 51 -20.5t39 -20.5q15 0 25 9.5t10 26.5h45q0 -38 -22 -60t-55 -22q-28 0 -52 20.5t-39 20.5t-25 -9.5t-10 -26.5h-45zM25 442v58h96v-442h24v-58h-120v58h25v384h-25z" />
<glyph unicode="&#x12a;" horiz-adv-x="170" d="M25 642v58h120v-58h-24v-584h24v-58h-120v58h25v584h-25zM-14 797v58h198v-58h-198z" />
<glyph unicode="&#x12b;" horiz-adv-x="170" d="M-14 597v58h198v-58h-198zM25 442v58h96v-442h24v-58h-120v58h25v384h-25z" />
<glyph unicode="&#x12c;" horiz-adv-x="170" d="M25 642v58h120v-58h-24v-584h24v-58h-120v58h25v584h-25zM-13 852h50q0 -24 14 -37.5t34 -13.5q21 0 35.5 13.5t14.5 37.5h49q0 -44 -28 -69.5t-71 -25.5t-70.5 25.5t-27.5 69.5z" />
<glyph unicode="&#x12d;" horiz-adv-x="170" d="M-13 652h50q0 -24 14 -37.5t34 -13.5q21 0 35.5 13.5t14.5 37.5h49q0 -44 -28 -69.5t-71 -25.5t-70.5 25.5t-27.5 69.5zM25 442v58h96v-442h24v-58h-120v58h25v384h-25z" />
<glyph unicode="&#x12e;" horiz-adv-x="170" d="M50 -30v30h-25v58h25v584h-25v58h120v-58h-24v-584h24v-58h-45v-30q0 -25 14 -41.5t38 -16.5v-42q-47 0 -74.5 28.5t-27.5 71.5z" />
<glyph unicode="&#x12f;" horiz-adv-x="170" d="M25 0v58h25v384h-25v58h96v-442h24v-58h-45v-30q0 -25 14 -41.5t38 -16.5v-42q-47 0 -74.5 28.5t-27.5 71.5v30h-25zM50 599v101h71v-101h-71z" />
<glyph unicode="&#x130;" horiz-adv-x="170" d="M25 642v58h120v-58h-24v-584h24v-58h-120v58h25v584h-25zM50 799v101h71v-101h-71z" />
<glyph unicode="&#x131;" horiz-adv-x="170" d="M25 442v58h96v-442h24v-58h-120v58h25v384h-25z" />
<glyph unicode="&#x132;" horiz-adv-x="338" d="M200 642v58h120v-58h-25v-533q0 -53 -35 -83.5t-88 -30.5q-34 0 -64.5 9t-43.5 18l-14 9v169h71v-131q20 -15 51 -15q22 0 37 15t15 40v533h-24zM25 642v58h120v-58h-24v-309h24v-58h-120v58h25v309h-25z" />
<glyph unicode="&#x133;" horiz-adv-x="326" d="M25 0v58h25v384h-25v58h96v-442h24v-58h-120zM50 599v101h71v-101h-71zM185 442v58h96v-622q0 -50 -33 -79t-81 -29q-23 0 -44 7v58q15 -6 36 -6q22 0 36.5 13t14.5 36v564h-25zM210 599v101h71v-101h-71z" />
<glyph unicode="&#x134;" d="M187 642v58h121v-58h-25v-533q0 -53 -35 -83.5t-88 -30.5q-34 0 -65 9t-45 18l-13 9v169h71v-131q20 -15 52 -15q22 0 37 15t15 40v533h-25zM165 761l-41 41l125 100l125 -100l-41 -41l-84 68z" />
<glyph unicode="&#x135;" horiz-adv-x="165" d="M25 442v58h96v-622q0 -50 -33 -79t-81 -29q-23 0 -44 7v58q15 -6 36 -6q22 0 36.5 13t14.5 36v564h-25zM1 561l-41 41l125 100l125 -100l-41 -41l-84 68z" />
<glyph unicode="&#x136;" horiz-adv-x="335" d="M204 642v58h118v-58h-26l-90 -283l93 -301h26v-58h-85l-88 330h-31v-272h24v-58h-120v58h25v584h-25v58h96v-312h31l75 254h-23zM206 -105q0 -44 -27 -103h-51q20 60 20 103v75h58v-75z" />
<glyph unicode="&#x137;" horiz-adv-x="335" d="M25 0v58h25v609h-25v58h96v-440h37l63 157h-23v58h119v-58h-28l-79 -185l83 -199h27v-58h-80l-82 229h-37v-171h24v-58h-120zM206 -105q0 -44 -27 -103h-51q20 60 20 103v75h58v-75z" />
<glyph unicode="&#x139;" horiz-adv-x="300" d="M25 642v58h120v-58h-24v-584h93v142h61v-200h-250v58h25v584h-25zM106 758l-42 42l130 110l42 -41z" />
<glyph unicode="&#x13a;" horiz-adv-x="170" d="M25 667v58h96v-667h24v-58h-120v58h25v609h-25zM41 738l-42 42l130 110l42 -41z" />
<glyph unicode="&#x13b;" horiz-adv-x="300" d="M25 642v58h120v-58h-24v-584h93v142h61v-200h-250v58h25v584h-25zM191 -105q0 -44 -27 -103h-51q20 60 20 103v75h58v-75z" />
<glyph unicode="&#x13c;" horiz-adv-x="170" d="M25 667v58h96v-667h24v-58h-120v58h25v609h-25zM115 -105q0 -44 -27 -103h-51q20 60 20 103v75h58v-75z" />
<glyph unicode="&#x13d;" horiz-adv-x="300" d="M25 642v58h120v-58h-24v-584h93v142h61v-200h-250v58h25v584h-25zM85 760l-125 101l41 41l84 -69l84 69l41 -41z" />
<glyph unicode="&#x13e;" horiz-adv-x="308" d="M25 667v58h96v-667h24v-58h-120v58h25v609h-25zM224 502h-58q27 65 27 122v101h69v-101q0 -25 -9.5 -55.5t-18.5 -48.5z" />
<glyph unicode="&#x13f;" horiz-adv-x="300" d="M25 642v58h120v-58h-24v-584h93v142h61v-200h-250v58h25v584h-25zM214 253v93h64v-93h-64z" />
<glyph unicode="&#x140;" horiz-adv-x="298" d="M25 667v58h96v-667h24v-58h-120v58h25v609h-25zM182 212v101h69v-101h-69z" />
<glyph unicode="&#x141;" horiz-adv-x="300" d="M25 642v58h120v-58h-24v-276l85 85v-72l-85 -85v-236h93v142h61v-200h-250v58h25v165l-23 -23v73l23 23v346h-25z" />
<glyph unicode="&#x142;" horiz-adv-x="239" d="M59 667v58h96v-328l54 54v-72l-54 -54v-267h24v-58h-120v58h25v196l-54 -54v73l54 53v341h-25z" />
<glyph unicode="&#x143;" horiz-adv-x="352" d="M209 642v58h118v-58h-25v-642h-59l-123 475h-2v-417h25v-58h-118v58h25v584h-25v58h84l122 -475h3v417h-25zM132 758l-42 42l130 110l42 -41z" />
<glyph unicode="&#x144;" horiz-adv-x="342" d="M25 0v58h25v384h-25v58h96v-47q38 52 98 52q34 0 57.5 -23t23.5 -61v-363h25v-58h-96v403q0 20 -12 31.5t-29 11.5q-29 0 -48 -19t-19 -52v-317h24v-58h-120zM127 558l-42 42l130 110l42 -41z" />
<glyph unicode="&#x145;" horiz-adv-x="352" d="M209 642v58h118v-58h-25v-642h-59l-123 475h-2v-417h25v-58h-118v58h25v584h-25v58h84l122 -475h3v417h-25zM214 -105q0 -44 -27 -103h-51q20 60 20 103v75h58v-75z" />
<glyph unicode="&#x146;" horiz-adv-x="342" d="M25 0v58h25v384h-25v58h96v-47q38 52 98 52q34 0 57.5 -23t23.5 -61v-363h25v-58h-96v403q0 20 -12 31.5t-29 11.5q-29 0 -48 -19t-19 -52v-317h24v-58h-120zM209 -105q0 -44 -27 -103h-51q20 60 20 103v75h58v-75z" />
<glyph unicode="&#x147;" horiz-adv-x="352" d="M209 642v58h118v-58h-25v-642h-59l-123 475h-2v-417h25v-58h-118v58h25v584h-25v58h84l122 -475h3v417h-25zM176 760l-125 101l41 41l84 -69l84 69l41 -41z" />
<glyph unicode="&#x148;" horiz-adv-x="342" d="M25 0v58h25v384h-25v58h96v-47q38 52 98 52q34 0 57.5 -23t23.5 -61v-363h25v-58h-96v403q0 20 -12 31.5t-29 11.5q-29 0 -48 -19t-19 -52v-317h24v-58h-120zM171 560l-125 101l41 41l84 -69l84 69l41 -41z" />
<glyph unicode="&#x14a;" horiz-adv-x="352" d="M209 642v58h118v-58h-25v-769q0 -47 -31 -75t-78 -28q-49 0 -81 28t-32 75v55h71v-55q0 -20 12 -32t30 -12q17 0 29 12t12 32v162l-114 440h-2v-417h25v-58h-118v58h25v584h-25v58h84l122 -475h3v417h-25z" />
<glyph unicode="&#x14b;" horiz-adv-x="330" d="M18 442v58h95v-47q38 52 98 52q35 0 58.5 -22.5t23.5 -61.5v-548q0 -47 -32 -75t-80 -28q-49 0 -81 28t-32 75v55h71v-55q0 -20 12 -32t30 -12q17 0 29 12t12 32v530q0 20 -12 31.5t-29 11.5q-29 0 -48.5 -19t-19.5 -52v-317h25v-58h-120v58h24v384h-24z" />
<glyph unicode="&#x14c;" d="M162 705q54 0 90 -31t36 -85v-479q0 -54 -36 -84.5t-90 -30.5t-89.5 30.5t-35.5 84.5v479q0 54 35.5 85t89.5 31zM108 589v-479q0 -26 15.5 -41t38.5 -15t39 15t16 41v479q0 26 -16 41.5t-39 15.5t-38.5 -15.5t-15.5 -41.5zM63 797v58h198v-58h-198z" />
<glyph unicode="&#x14d;" d="M162 505q54 0 90 -31t36 -85v-279q0 -54 -36 -84.5t-90 -30.5t-89.5 30.5t-35.5 84.5v279q0 54 35.5 85t89.5 31zM108 389v-279q0 -26 15.5 -41t38.5 -15t39 15t16 41v279q0 26 -16 41.5t-39 15.5t-38.5 -15.5t-15.5 -41.5zM63 597v58h198v-58h-198z" />
<glyph unicode="&#x14e;" d="M162 705q54 0 90 -31t36 -85v-479q0 -54 -36 -84.5t-90 -30.5t-89.5 30.5t-35.5 84.5v479q0 54 35.5 85t89.5 31zM108 589v-479q0 -26 15.5 -41t38.5 -15t39 15t16 41v479q0 26 -16 41.5t-39 15.5t-38.5 -15.5t-15.5 -41.5zM64 852h50q0 -24 14 -37.5t34 -13.5 q21 0 35.5 13.5t14.5 37.5h49q0 -44 -28 -69.5t-71 -25.5t-70.5 25.5t-27.5 69.5z" />
<glyph unicode="&#x14f;" d="M162 505q54 0 90 -31t36 -85v-279q0 -54 -36 -84.5t-90 -30.5t-89.5 30.5t-35.5 84.5v279q0 54 35.5 85t89.5 31zM108 389v-279q0 -26 15.5 -41t38.5 -15t39 15t16 41v279q0 26 -16 41.5t-39 15.5t-38.5 -15.5t-15.5 -41.5zM64 652h50q0 -24 14 -37.5t34 -13.5 q21 0 35.5 13.5t14.5 37.5h49q0 -44 -28 -69.5t-71 -25.5t-70.5 25.5t-27.5 69.5z" />
<glyph unicode="&#x150;" d="M162 705q54 0 90 -31t36 -85v-479q0 -54 -36 -84.5t-90 -30.5t-89.5 30.5t-35.5 84.5v479q0 54 35.5 85t89.5 31zM108 589v-479q0 -26 15.5 -41t38.5 -15t39 15t16 41v479q0 26 -16 41.5t-39 15.5t-38.5 -15.5t-15.5 -41.5zM53 753l-42 42l120 120l42 -42zM193 753 l-41 42l119 120l42 -42z" />
<glyph unicode="&#x151;" d="M162 505q54 0 90 -31t36 -85v-279q0 -54 -36 -84.5t-90 -30.5t-89.5 30.5t-35.5 84.5v279q0 54 35.5 85t89.5 31zM108 389v-279q0 -26 15.5 -41t38.5 -15t39 15t16 41v279q0 26 -16 41.5t-39 15.5t-38.5 -15.5t-15.5 -41.5zM53 553l-42 42l120 120l42 -42zM193 553 l-41 42l119 120l42 -42z" />
<glyph unicode="&#x152;" horiz-adv-x="462" d="M364 500v142h-86v-254h127v-58h-127v-272h86v142h61v-200h-218v13q-29 -18 -61 -18q-45 0 -74.5 30.5t-29.5 84.5v479q0 54 30 85t74 31q32 0 61 -19v14h218v-200h-61zM167 54q23 0 40 15v561q-18 16 -40 16q-23 0 -38.5 -15.5t-15.5 -41.5v-479q0 -26 15.5 -41t38.5 -15 z" />
<glyph unicode="&#x153;" horiz-adv-x="425" d="M467 227h-179v-117q0 -26 15 -41t38 -15q24 0 39.5 15t15.5 41v53h71v-53q0 -54 -35.5 -84.5t-90.5 -30.5q-29 0 -54 13t-35 35q-11 -22 -36 -35t-54 -13q-54 0 -89.5 30.5t-35.5 84.5v279q0 54 35.5 85t89.5 31q29 0 54 -13t36 -36q10 23 35 36t54 13q54 0 90 -31 t36 -85v-162zM108 389v-279q0 -26 15.5 -41t38.5 -15t39 15t16 41v279q0 26 -16 41.5t-39 15.5t-38.5 -15.5t-15.5 -41.5zM288 389v-104h108v104q0 28 -15 42.5t-40 14.5q-23 0 -38 -14.5t-15 -42.5z" />
<glyph unicode="&#x154;" horiz-adv-x="338" d="M25 642v58h145q54 0 89.5 -31t35.5 -85v-170q0 -75 -67 -99l73 -257h26v-58h-86l-72 300h-48v-242h24v-58h-120v58h25v584h-25zM121 358h49q23 0 38.5 15t15.5 41v170q0 27 -15.5 42.5t-38.5 15.5h-49v-284zM124 758l-42 42l130 110l42 -41z" />
<glyph unicode="&#x155;" horiz-adv-x="303" d="M25 442v58h96v-66q36 71 98 71q17 0 32.5 -9.5t22.5 -18.5l7 -9v-131h-71v93q-11 16 -27 16q-28 0 -45 -27.5t-17 -68.5v-292h24v-58h-120v58h25v384h-25zM112 558l-42 42l130 110l42 -41z" />
<glyph unicode="&#x156;" horiz-adv-x="338" d="M25 642v58h145q54 0 89.5 -31t35.5 -85v-170q0 -75 -67 -99l73 -257h26v-58h-86l-72 300h-48v-242h24v-58h-120v58h25v584h-25zM121 358h49q23 0 38.5 15t15.5 41v170q0 27 -15.5 42.5t-38.5 15.5h-49v-284zM207 -105q0 -44 -27 -103h-51q20 60 20 103v75h58v-75z" />
<glyph unicode="&#x157;" horiz-adv-x="303" d="M25 442v58h96v-66q36 71 98 71q17 0 32.5 -9.5t22.5 -18.5l7 -9v-131h-71v93q-11 16 -27 16q-28 0 -45 -27.5t-17 -68.5v-292h24v-58h-120v58h25v384h-25zM114 -105q0 -44 -27 -103h-51q20 60 20 103v75h58v-75z" />
<glyph unicode="&#x158;" horiz-adv-x="338" d="M25 642v58h145q54 0 89.5 -31t35.5 -85v-170q0 -75 -67 -99l73 -257h26v-58h-86l-72 300h-48v-242h24v-58h-120v58h25v584h-25zM121 358h49q23 0 38.5 15t15.5 41v170q0 27 -15.5 42.5t-38.5 15.5h-49v-284zM169 760l-125 101l41 41l84 -69l84 69l41 -41z" />
<glyph unicode="&#x159;" horiz-adv-x="303" d="M25 442v58h96v-66q36 71 98 71q17 0 32.5 -9.5t22.5 -18.5l7 -9v-131h-71v93q-11 16 -27 16q-28 0 -45 -27.5t-17 -68.5v-292h24v-58h-120v58h25v384h-25zM157 560l-125 101l41 41l84 -69l84 69l41 -41z" />
<glyph unicode="&#x15a;" d="M216 630q-21 16 -53 16q-23 0 -38.5 -15t-15.5 -41v-128q0 -28 18.5 -46t44.5 -30t52.5 -26t45 -42t18.5 -70v-138q0 -53 -36 -84t-90 -31q-35 0 -66 9t-45 18l-14 9v169h71v-131q21 -15 54 -15q24 0 39.5 15t15.5 41v138q0 27 -18.5 45.5t-44.5 30t-52.5 25.5t-45 42.5 t-18.5 70.5v128q0 53 35.5 84t89.5 31q34 0 65 -9t45 -18l14 -9v-169h-71v130zM118 758l-42 42l130 110l42 -41z" />
<glyph unicode="&#x15b;" horiz-adv-x="320" d="M208 430q-19 16 -49 16q-22 0 -36 -14t-14 -39v-51q0 -22 18 -36t43.5 -22t51 -19t43.5 -34.5t18 -59.5v-63q0 -52 -35 -82.5t-88 -30.5q-34 0 -65 9.5t-45 18.5l-13 9v131h71v-93q20 -16 52 -16q22 0 37 14.5t15 39.5v63q0 22 -18 36t-43.5 22t-51 19t-43.5 34.5 t-18 59.5v51q0 52 34.5 82t86.5 30q33 0 63 -9.5t44 -18.5l13 -9v-131h-71v93zM116 558l-42 42l130 110l42 -41z" />
<glyph unicode="&#x15c;" d="M216 630q-21 16 -53 16q-23 0 -38.5 -15t-15.5 -41v-128q0 -28 18.5 -46t44.5 -30t52.5 -26t45 -42t18.5 -70v-138q0 -53 -36 -84t-90 -31q-35 0 -66 9t-45 18l-14 9v169h71v-131q21 -15 54 -15q24 0 39.5 15t15.5 41v138q0 27 -18.5 45.5t-44.5 30t-52.5 25.5t-45 42.5 t-18.5 70.5v128q0 53 35.5 84t89.5 31q34 0 65 -9t45 -18l14 -9v-169h-71v130zM79 761l-41 41l125 100l125 -100l-41 -41l-84 68z" />
<glyph unicode="&#x15d;" horiz-adv-x="320" d="M208 430q-19 16 -49 16q-22 0 -36 -14t-14 -39v-51q0 -22 18 -36t43.5 -22t51 -19t43.5 -34.5t18 -59.5v-63q0 -52 -35 -82.5t-88 -30.5q-34 0 -65 9.5t-45 18.5l-13 9v131h71v-93q20 -16 52 -16q22 0 37 14.5t15 39.5v63q0 22 -18 36t-43.5 22t-51 19t-43.5 34.5 t-18 59.5v51q0 52 34.5 82t86.5 30q33 0 63 -9.5t44 -18.5l13 -9v-131h-71v93zM76 561l-41 41l125 100l125 -100l-41 -41l-84 68z" />
<glyph unicode="&#x15e;" d="M136 -138v135q-28 3 -52.5 11.5t-35.5 15.5l-11 7v169h71v-131q21 -15 54 -15q24 0 39.5 15t15.5 41v138q0 27 -18.5 45.5t-44.5 30t-52.5 25.5t-45 42.5t-18.5 70.5v128q0 53 35.5 84t89.5 31q34 0 65 -9t45 -18l14 -9v-169h-71v130q-21 16 -53 16q-23 0 -38.5 -15 t-15.5 -41v-128q0 -28 18.5 -46t44.5 -30t52.5 -26t45 -42t18.5 -70v-138q0 -47 -27.5 -76t-71.5 -36v-136h-53z" />
<glyph unicode="&#x15f;" horiz-adv-x="320" d="M133 -138v135q-27 3 -51 11.5t-34 15.5l-11 8v131h71v-93q20 -16 52 -16q22 0 37 14.5t15 39.5v63q0 22 -18 36t-43.5 22t-51 19t-43.5 34.5t-18 59.5v51q0 52 34.5 82t86.5 30q33 0 63 -9.5t44 -18.5l13 -9v-131h-71v93q-19 16 -49 16q-22 0 -36 -14t-14 -39v-51 q0 -22 18 -36t43.5 -22t51 -19t43.5 -34.5t18 -59.5v-63q0 -46 -27 -75t-70 -36v-135h-53z" />
<glyph unicode="&#x160;" d="M216 630q-21 16 -53 16q-23 0 -38.5 -15t-15.5 -41v-128q0 -28 18.5 -46t44.5 -30t52.5 -26t45 -42t18.5 -70v-138q0 -53 -36 -84t-90 -31q-35 0 -66 9t-45 18l-14 9v169h71v-131q21 -15 54 -15q24 0 39.5 15t15.5 41v138q0 27 -18.5 45.5t-44.5 30t-52.5 25.5t-45 42.5 t-18.5 70.5v128q0 53 35.5 84t89.5 31q34 0 65 -9t45 -18l14 -9v-169h-71v130zM163 760l-125 101l41 41l84 -69l84 69l41 -41z" />
<glyph unicode="&#x161;" horiz-adv-x="320" d="M208 430q-19 16 -49 16q-22 0 -36 -14t-14 -39v-51q0 -22 18 -36t43.5 -22t51 -19t43.5 -34.5t18 -59.5v-63q0 -52 -35 -82.5t-88 -30.5q-34 0 -65 9.5t-45 18.5l-13 9v131h71v-93q20 -16 52 -16q22 0 37 14.5t15 39.5v63q0 22 -18 36t-43.5 22t-51 19t-43.5 34.5 t-18 59.5v51q0 52 34.5 82t86.5 30q33 0 63 -9.5t44 -18.5l13 -9v-131h-71v93zM160 560l-125 101l41 41l84 -69l84 69l41 -41z" />
<glyph unicode="&#x162;" horiz-adv-x="356" d="M118 0v58h25v584h-60v-142h-61v200h312v-200h-61v142h-59v-584h24v-58h-120zM208 -105q0 -44 -27 -103h-51q20 60 20 103v75h58v-75z" />
<glyph unicode="&#x163;" horiz-adv-x="250" d="M30 442v58h25v100h71v-100h102v-58h-102v-327q0 -28 17 -44.5t43 -16.5q21 0 42 6v-58q-1 0 -9 -2t-18.5 -3.5t-21.5 -1.5q-53 0 -88.5 32.5t-35.5 87.5v327h-25zM168 -105q0 -44 -27 -103h-51q20 60 20 103v75h58v-75z" />
<glyph unicode="&#x164;" horiz-adv-x="356" d="M118 0v58h25v584h-60v-142h-61v200h312v-200h-61v142h-59v-584h24v-58h-120zM178 760l-125 101l41 41l84 -69l84 69l41 -41z" />
<glyph unicode="&#x165;" horiz-adv-x="393" d="M30 442v58h25v100h71v-100h102v-58h-102v-327q0 -28 17 -44.5t43 -16.5q21 0 42 6v-58q-1 0 -9 -2t-18.5 -3.5t-21.5 -1.5q-53 0 -88.5 32.5t-35.5 87.5v327h-25zM313 399h-58q27 65 27 122v101h69v-101q0 -25 -9.5 -55.5t-19.5 -48.5z" />
<glyph unicode="&#x166;" horiz-adv-x="356" d="M118 0v58h25v297h-93v58h93v229h-60v-142h-61v200h312v-200h-61v142h-59v-229h92v-58h-92v-297h24v-58h-120z" />
<glyph unicode="&#x167;" horiz-adv-x="250" d="M30 442v58h25v100h71v-100h102v-58h-102v-104h102v-59h-102v-164q0 -28 17 -44.5t43 -16.5q21 0 42 6v-58q-1 0 -9 -2t-18.5 -3.5t-21.5 -1.5q-53 0 -88.5 32.5t-35.5 87.5v164h-25v59h25v104h-25z" />
<glyph unicode="&#x168;" horiz-adv-x="335" d="M197 642v58h120v-58h-24v-532q0 -54 -36 -84.5t-90 -30.5t-89.5 30.5t-35.5 84.5v532h-24v58h95v-590q0 -26 15.5 -41t38.5 -15t39 15t16 41v532h-25zM43 768q0 38 22 60t56 22q28 0 51 -20.5t39 -20.5q15 0 25 9.5t10 26.5h45q0 -38 -22 -60t-55 -22q-28 0 -52 20.5 t-39 20.5t-25 -9.5t-10 -26.5h-45z" />
<glyph unicode="&#x169;" horiz-adv-x="342" d="M197 442v58h96v-442h24v-58h-95v47q-38 -52 -98 -52q-35 0 -58.5 22.5t-23.5 61.5v363h-24v58h95v-403q0 -20 12 -31.5t29 -11.5q29 0 48.5 19t19.5 52v317h-25zM47 568q0 38 22 60t56 22q28 0 51 -20.5t39 -20.5q15 0 25 9.5t10 26.5h45q0 -38 -22 -60t-55 -22 q-28 0 -52 20.5t-39 20.5t-25 -9.5t-10 -26.5h-45z" />
<glyph unicode="&#x16a;" horiz-adv-x="335" d="M197 642v58h120v-58h-24v-532q0 -54 -36 -84.5t-90 -30.5t-89.5 30.5t-35.5 84.5v532h-24v58h95v-590q0 -26 15.5 -41t38.5 -15t39 15t16 41v532h-25zM68 797v58h198v-58h-198z" />
<glyph unicode="&#x16b;" horiz-adv-x="342" d="M197 442v58h96v-442h24v-58h-95v47q-38 -52 -98 -52q-35 0 -58.5 22.5t-23.5 61.5v363h-24v58h95v-403q0 -20 12 -31.5t29 -11.5q29 0 48.5 19t19.5 52v317h-25zM72 597v58h198v-58h-198z" />
<glyph unicode="&#x16c;" horiz-adv-x="335" d="M197 642v58h120v-58h-24v-532q0 -54 -36 -84.5t-90 -30.5t-89.5 30.5t-35.5 84.5v532h-24v58h95v-590q0 -26 15.5 -41t38.5 -15t39 15t16 41v532h-25zM69 852h50q0 -24 14 -37.5t34 -13.5q21 0 35.5 13.5t14.5 37.5h49q0 -44 -28 -69.5t-71 -25.5t-70.5 25.5t-27.5 69.5z " />
<glyph unicode="&#x16d;" horiz-adv-x="342" d="M197 442v58h96v-442h24v-58h-95v47q-38 -52 -98 -52q-35 0 -58.5 22.5t-23.5 61.5v363h-24v58h95v-403q0 -20 12 -31.5t29 -11.5q29 0 48.5 19t19.5 52v317h-25zM72 652h50q0 -24 14 -37.5t34 -13.5q21 0 35.5 13.5t14.5 37.5h49q0 -44 -28 -69.5t-71 -25.5t-70.5 25.5 t-27.5 69.5z" />
<glyph unicode="&#x16e;" horiz-adv-x="335" d="M197 642v58h120v-58h-24v-532q0 -54 -36 -84.5t-90 -30.5t-89.5 30.5t-35.5 84.5v532h-24v58h95v-590q0 -26 15.5 -41t38.5 -15t39 15t16 41v532h-25zM167 915q37 0 61.5 -23t24.5 -62q0 -40 -24.5 -62.5t-61.5 -22.5t-61 22.5t-24 62.5q0 39 24 62t61 23zM128 830 q0 -20 11.5 -31.5t27.5 -11.5q17 0 28.5 11.5t11.5 31.5t-11.5 32t-28.5 12q-16 0 -27.5 -12t-11.5 -32z" />
<glyph unicode="&#x16f;" horiz-adv-x="342" d="M197 442v58h96v-442h24v-58h-95v47q-38 -52 -98 -52q-35 0 -58.5 22.5t-23.5 61.5v363h-24v58h95v-403q0 -20 12 -31.5t29 -11.5q29 0 48.5 19t19.5 52v317h-25zM170 715q37 0 61.5 -23t24.5 -62q0 -40 -24.5 -62.5t-61.5 -22.5t-61 22.5t-24 62.5q0 39 24 62t61 23z M131 630q0 -20 11.5 -31.5t27.5 -11.5q17 0 28.5 11.5t11.5 31.5t-11.5 32t-28.5 12q-16 0 -27.5 -12t-11.5 -32z" />
<glyph unicode="&#x170;" horiz-adv-x="335" d="M197 642v58h120v-58h-24v-532q0 -54 -36 -84.5t-90 -30.5t-89.5 30.5t-35.5 84.5v532h-24v58h95v-590q0 -26 15.5 -41t38.5 -15t39 15t16 41v532h-25zM58 753l-42 42l120 120l42 -42zM198 753l-41 42l119 120l42 -42z" />
<glyph unicode="&#x171;" horiz-adv-x="342" d="M197 442v58h96v-442h24v-58h-95v47q-38 -52 -98 -52q-35 0 -58.5 22.5t-23.5 61.5v363h-24v58h95v-403q0 -20 12 -31.5t29 -11.5q29 0 48.5 19t19.5 52v317h-25zM62 553l-42 42l120 120l42 -42zM202 553l-41 42l119 120l42 -42z" />
<glyph unicode="&#x172;" horiz-adv-x="335" d="M156 -30v26q-50 3 -82 33t-32 81v532h-24v58h95v-590q0 -26 15.5 -41t38.5 -15t39 15t16 41v532h-25v58h120v-58h-24v-532q0 -43 -24 -72t-63 -38v-30q0 -25 14 -41.5t38 -16.5v-42q-47 0 -74.5 28.5t-27.5 71.5z" />
<glyph unicode="&#x173;" horiz-adv-x="342" d="M222 -30v77q-38 -52 -98 -52q-35 0 -58.5 22.5t-23.5 61.5v363h-24v58h95v-403q0 -20 12 -31.5t29 -11.5q29 0 48.5 19t19.5 52v317h-25v58h96v-442h24v-58h-45v-30q0 -25 14 -41.5t38 -16.5v-42q-47 0 -74.5 28.5t-27.5 71.5z" />
<glyph unicode="&#x174;" horiz-adv-x="550" d="M426 642v58h120v-58h-25l-90 -642h-95l-60 615h-2l-61 -615h-95l-90 642h-25v58h91l69 -622h2l63 622h93l63 -622h2l64 564h-24zM191 761l-41 41l125 100l125 -100l-41 -41l-84 68z" />
<glyph unicode="&#x175;" horiz-adv-x="527" d="M402 442v58h121v-58h-27l-82 -442h-92l-58 430h-2l-57 -430h-93l-83 442h-26v58h90l64 -437h2l59 437h90l59 -437h2l58 379h-25zM180 561l-41 41l125 100l125 -100l-41 -41l-84 68z" />
<glyph unicode="&#x176;" horiz-adv-x="330" d="M207 642v58h119v-58h-28l-98 -418v-166h25v-58h-121v58h25v166l-98 418h-27v58h88l72 -363h2l64 305h-23zM81 761l-41 41l125 100l125 -100l-41 -41l-84 68z" />
<glyph unicode="&#x177;" horiz-adv-x="335" d="M197 442v58h96v-614q0 -54 -35 -85t-89 -31q-34 0 -65 9t-45 19l-14 9v113h71v-75q21 -16 53 -16q22 0 37 15t16 41v162q-38 -52 -98 -52q-35 0 -58.5 22.5t-23.5 61.5v363h-24v58h95v-403q0 -20 12 -31.5t29 -11.5q29 0 48.5 19t19.5 52v317h-25zM86 561l-41 41l125 100 l125 -100l-41 -41l-84 68z" />
<glyph unicode="&#x178;" horiz-adv-x="330" d="M207 642v58h119v-58h-28l-98 -418v-166h25v-58h-121v58h25v166l-98 418h-27v58h88l72 -363h2l64 305h-23zM62 787v101h60v-101h-60zM207 787v101h61v-101h-61z" />
<glyph unicode="&#x179;" horiz-adv-x="320" d="M35 500v200h250v-35l-172 -607h111v142h61v-200h-250v35l174 607h-114v-142h-60zM116 758l-42 42l130 110l42 -41z" />
<glyph unicode="&#x17a;" horiz-adv-x="320" d="M37 337v163h246v-35l-164 -407h108v105h56v-163h-246v35l166 407h-110v-105h-56zM116 558l-42 42l130 110l42 -41z" />
<glyph unicode="&#x17b;" horiz-adv-x="320" d="M35 500v200h250v-35l-172 -607h111v142h61v-200h-250v35l174 607h-114v-142h-60zM124 799v101h71v-101h-71z" />
<glyph unicode="&#x17c;" horiz-adv-x="320" d="M37 337v163h246v-35l-164 -407h108v105h56v-163h-246v35l166 407h-110v-105h-56zM124 599v101h71v-101h-71z" />
<glyph unicode="&#x17d;" horiz-adv-x="320" d="M35 500v200h250v-35l-172 -607h111v142h61v-200h-250v35l174 607h-114v-142h-60zM160 760l-125 101l41 41l84 -69l84 69l41 -41z" />
<glyph unicode="&#x17e;" horiz-adv-x="320" d="M37 337v163h246v-35l-164 -407h108v105h56v-163h-246v35l166 407h-110v-105h-56zM160 560l-125 101l41 41l84 -69l84 69l41 -41z" />
<glyph unicode="&#x17f;" horiz-adv-x="292" d="M18 442v58h24v127q0 48 32 75.5t80 27.5q49 0 81 -27.5t32 -75.5v-38h-71v38q0 20 -12 32t-30 12q-17 0 -29 -12t-12 -32v-569h25v-58h-120v58h24v384h-24z" />
<glyph unicode="&#x18f;" horiz-adv-x="320" d="M108 630v-130h-71v169q46 36 123 36q53 0 88 -30.5t35 -83.5v-483q0 -53 -35 -83t-87 -30q-53 0 -88.5 30t-35.5 83v272h175v211q0 25 -15 40t-37 15q-14 0 -27 -4t-19 -8zM161 54q22 0 36.5 14.5t14.5 39.5v214h-104v-214q0 -25 15 -39.5t38 -14.5z" />
<glyph unicode="&#x192;" horiz-adv-x="238" d="M20 442v58h25v110q0 55 35.5 87.5t88.5 32.5q11 0 21.5 -1.5t18.5 -3.5t9 -2v-58q-21 6 -42 6q-26 0 -43 -16.5t-17 -44.5v-110h102v-58h-102v-564q0 -50 -33 -79t-81 -29q-23 0 -44 7v58q15 -6 36 -6q22 0 36.5 13t14.5 36v564h-25z" />
<glyph unicode="&#x1dd;" d="M108 227v-116q0 -28 15.5 -42.5t39.5 -14.5t39 14.5t15 42.5v116h-109zM37 345v123q48 37 126 37q54 0 89.5 -30.5t35.5 -84.5v-279q0 -54 -35.5 -85t-89.5 -31t-90 31t-36 85v174h180v105q0 26 -15.5 41t-38.5 15q-15 0 -28.5 -4t-20.5 -8l-6 -4v-85h-71z" />
<glyph unicode="&#x1fc;" horiz-adv-x="455" d="M359 500v142h-86v-254h127v-58h-127v-272h86v142h61v-200h-218v174h-80l-23 -116h24v-58h-120v58h27l113 584h-19v58h296v-200h-61zM131 232h71v392h-2zM179 758l-42 42l130 110l42 -41z" />
<glyph unicode="&#x1fd;" horiz-adv-x="504" d="M37 337v131q48 37 126 37q29 0 53 -13t36 -36q26 49 89 49q54 0 90 -31t36 -85v-159h-179v-120q0 -26 15 -41t38 -15q24 0 39.5 15t15.5 41v53h71v-53q0 -54 -35.5 -84.5t-90.5 -30.5q-82 0 -110 63q-40 -63 -115 -63q-34 0 -56.5 22t-22.5 60v85q0 52 31.5 83t80.5 36 l68 5v104q0 26 -15.5 41t-38.5 15q-15 0 -28.5 -4t-20.5 -8l-6 -4v-93h-71zM217 227l-54 -4q-23 -2 -39 -19t-16 -42v-67q0 -19 11.5 -30t27.5 -11q28 0 49 19.5t21 51.5v102zM288 288h108v101q0 28 -15 42.5t-40 14.5q-23 0 -38 -14.5t-15 -42.5v-101zM208 558l-42 42 l130 110l42 -41z" />
<glyph unicode="&#x1fe;" d="M30 0l18 57q-11 24 -11 53v479q0 54 35.5 85t89.5 31q48 0 85 -27l7 22h41l-19 -59q12 -23 12 -52v-479q0 -54 -36 -84.5t-90 -30.5q-50 0 -84 26l-7 -21h-41zM162 54q23 0 39 15t16 41v346l-109 -341v-5q0 -26 15.5 -41t38.5 -15zM108 589v-346l109 341v5q0 26 -16 41.5 t-39 15.5t-38.5 -15.5t-15.5 -41.5zM118 758l-42 42l130 110l42 -41z" />
<glyph unicode="&#x1ff;" d="M30 0l22 50q-15 24 -15 60v279q0 54 35.5 85t89.5 31q49 0 83 -26l9 21h41l-23 -51q16 -26 16 -60v-279q0 -54 -36 -84.5t-90 -30.5q-49 0 -82 24l-9 -19h-41zM108 389v-215l106 236q-13 36 -52 36q-23 0 -38.5 -15.5t-15.5 -41.5zM162 54q23 0 39 15t16 41v216 l-106 -237q11 -35 51 -35zM118 558l-42 42l130 110l42 -41z" />
<glyph unicode="&#x218;" d="M216 630q-21 16 -53 16q-23 0 -38.5 -15t-15.5 -41v-128q0 -28 18.5 -46t44.5 -30t52.5 -26t45 -42t18.5 -70v-138q0 -53 -36 -84t-90 -31q-35 0 -66 9t-45 18l-14 9v169h71v-131q21 -15 54 -15q24 0 39.5 15t15.5 41v138q0 27 -18.5 45.5t-44.5 30t-52.5 25.5t-45 42.5 t-18.5 70.5v128q0 53 35.5 84t89.5 31q34 0 65 -9t45 -18l14 -9v-169h-71v130zM191 -105q0 -44 -27 -103h-51q20 60 20 103v75h58v-75z" />
<glyph unicode="&#x219;" horiz-adv-x="320" d="M208 430q-19 16 -49 16q-22 0 -36 -14t-14 -39v-51q0 -22 18 -36t43.5 -22t51 -19t43.5 -34.5t18 -59.5v-63q0 -52 -35 -82.5t-88 -30.5q-34 0 -65 9.5t-45 18.5l-13 9v131h71v-93q20 -16 52 -16q22 0 37 14.5t15 39.5v63q0 22 -18 36t-43.5 22t-51 19t-43.5 34.5 t-18 59.5v51q0 52 34.5 82t86.5 30q33 0 63 -9.5t44 -18.5l13 -9v-131h-71v93zM191 -105q0 -44 -27 -103h-51q20 60 20 103v75h58v-75z" />
<glyph unicode="&#x21a;" horiz-adv-x="356" d="M118 0v58h25v584h-60v-142h-61v200h312v-200h-61v142h-59v-584h24v-58h-120zM208 -105q0 -44 -27 -103h-51q20 60 20 103v75h58v-75z" />
<glyph unicode="&#x21b;" horiz-adv-x="250" d="M30 442v58h25v100h71v-100h102v-58h-102v-327q0 -28 17 -44.5t43 -16.5q21 0 42 6v-58q-1 0 -9 -2t-18.5 -3.5t-21.5 -1.5q-53 0 -88.5 32.5t-35.5 87.5v327h-25zM168 -105q0 -44 -27 -103h-51q20 60 20 103v75h58v-75z" />
<glyph unicode="&#x237;" horiz-adv-x="165" d="M25 442v58h96v-622q0 -50 -33 -79t-81 -29q-23 0 -44 7v58q15 -6 36 -6q22 0 36.5 13t14.5 36v564h-25z" />
<glyph unicode="&#x2c6;" horiz-adv-x="251" d="M42 561l-41 41l125 100l125 -100l-41 -41l-84 68z" />
<glyph unicode="&#x2c7;" horiz-adv-x="251" d="M126 560l-125 101l41 41l84 -69l84 69l41 -41z" />
<glyph unicode="&#x2d8;" d="M64 652h50q0 -24 14 -37.5t34 -13.5q21 0 35.5 13.5t14.5 37.5h49q0 -44 -28 -69.5t-71 -25.5t-70.5 25.5t-27.5 69.5z" />
<glyph unicode="&#x2d9;" horiz-adv-x="155" d="M42 599v101h71v-101h-71z" />
<glyph unicode="&#x2da;" d="M162 715q37 0 61.5 -23t24.5 -62q0 -40 -24.5 -62.5t-61.5 -22.5t-61 22.5t-24 62.5q0 39 24 62t61 23zM123 630q0 -20 11.5 -31.5t27.5 -11.5q17 0 28.5 11.5t11.5 31.5t-11.5 32t-28.5 12q-16 0 -27.5 -12t-11.5 -32z" />
<glyph unicode="&#x2db;" horiz-adv-x="150" d="M42 -30v30h50v-30q0 -25 14 -41.5t38 -16.5v-42q-47 0 -74.5 28.5t-27.5 71.5z" />
<glyph unicode="&#x2dc;" d="M38 568q0 38 22 60t56 22q28 0 51 -20.5t39 -20.5q15 0 25 9.5t10 26.5h45q0 -38 -22 -60t-55 -22q-28 0 -52 20.5t-39 20.5q-14 0 -24.5 -9.5t-10.5 -26.5h-45z" />
<glyph unicode="&#x2dd;" horiz-adv-x="252" d="M17 553l-42 42l120 120l42 -42zM157 553l-41 42l119 120l42 -42z" />
<glyph unicode="&#x400;" horiz-adv-x="315" d="M205 758l-131 110l42 42l130 -110zM219 500v142h-98v-254h139v-58h-139v-272h98v142h61v-200h-255v58h25v584h-25v58h255v-200h-61z" />
<glyph unicode="&#x401;" horiz-adv-x="315" d="M59 750v101h60v-101h-60zM204 750v101h61v-101h-61zM219 500v142h-98v-254h139v-58h-139v-272h98v142h61v-200h-255v58h25v584h-25v58h255v-200h-61z" />
<glyph unicode="&#x402;" horiz-adv-x="430" d="M273 500v142h-59v-264q38 52 98 52q34 0 57.5 -23t23.5 -61v-473q0 -47 -32 -75t-80 -28t-80.5 28t-32.5 75v55h71v-55q0 -20 12 -32t30 -12t29.5 12t11.5 32v455q0 20 -11.5 31.5t-29.5 11.5q-29 0 -48 -19t-19 -52v-242h24v-58h-120v58h25v584h-60v-142h-61v200h312 v-200h-61z" />
<glyph unicode="&#x403;" horiz-adv-x="290" d="M103 758l-42 42l130 110l42 -41zM217 500v142h-96v-584h24v-58h-120v58h25v584h-25v58h253v-200h-61z" />
<glyph unicode="&#x404;" d="M217 630q-21 16 -54 16q-24 0 -39.5 -15t-15.5 -42v-204h140v-58h-140v-217q0 -26 15.5 -41t38.5 -15t39 15t16 41v90h71v-90q0 -54 -36 -84.5t-90 -30.5t-89.5 30.5t-35.5 84.5v479q0 54 36 85t90 31q35 0 66 -9t45 -18l14 -9v-169h-71v130z" />
<glyph unicode="&#x405;" d="M216 630q-21 16 -53 16q-23 0 -38.5 -15t-15.5 -41v-128q0 -28 18.5 -46t44.5 -30t52.5 -26t45 -42t18.5 -70v-138q0 -53 -36 -84t-90 -31q-35 0 -66 9t-45 18l-14 9v169h71v-131q21 -15 54 -15q24 0 39.5 15t15.5 41v138q0 27 -18.5 45.5t-44.5 30t-52.5 25.5t-45 42.5 t-18.5 70.5v128q0 53 35.5 84t89.5 31q34 0 65 -9t45 -18l14 -9v-169h-71v130z" />
<glyph unicode="&#x406;" horiz-adv-x="170" d="M25 642v58h120v-58h-24v-584h24v-58h-120v58h25v584h-25z" />
<glyph unicode="&#x407;" horiz-adv-x="170" d="M-17 762v101h60v-101h-60zM128 762v101h61v-101h-61zM25 642v58h120v-58h-24v-584h24v-58h-120v58h25v584h-25z" />
<glyph unicode="&#x408;" d="M187 642v58h121v-58h-25v-533q0 -53 -35 -83.5t-88 -30.5q-34 0 -65 9t-45 18l-13 9v169h71v-131q20 -15 52 -15q22 0 37 15t15 40v533h-25z" />
<glyph unicode="&#x409;" horiz-adv-x="517" d="M210 0v58h24v584h-93v-510q0 -63 -34 -100t-85 -37v59q21 0 34.5 21t13.5 57v510h-25v58h260v-312h49q54 0 90 -30.5t36 -84.5v-157q0 -54 -36 -85t-90 -31h-144zM305 58h49q23 0 39 15.5t16 42.5v157q0 26 -16 41.5t-39 15.5h-49v-272z" />
<glyph unicode="&#x40a;" horiz-adv-x="512" d="M204 642v58h121v-58h-25v-254h49q54 0 90 -30.5t36 -84.5v-157q0 -54 -36 -85t-90 -31h-120v330h-108v-272h24v-58h-120v58h25v584h-25v58h96v-312h108v254h-25zM300 58h49q23 0 39 15.5t16 42.5v157q0 26 -16 41.5t-39 15.5h-49v-272z" />
<glyph unicode="&#x40b;" horiz-adv-x="435" d="M118 0v58h25v584h-60v-142h-61v200h312v-200h-61v142h-59v-264q38 52 98 52q34 0 57.5 -23t23.5 -61v-288h25v-58h-96v328q0 20 -11.5 31.5t-29.5 11.5q-29 0 -48 -19t-19 -52v-242h24v-58h-120z" />
<glyph unicode="&#x40c;" horiz-adv-x="335" d="M123 758l-42 42l130 110l42 -41zM204 642v58h118v-58h-26l-90 -283l93 -301h26v-58h-85l-88 330h-31v-272h24v-58h-120v58h25v584h-25v58h96v-312h31l75 254h-23z" />
<glyph unicode="&#x40d;" horiz-adv-x="352" d="M221 758l-131 110l42 42l130 -110zM25 642v58h93v-472h2l114 411v61h93v-58h-25v-584h25v-58h-93v472h-2l-114 -411v-61h-93v58h25v584h-25z" />
<glyph unicode="&#x40e;" horiz-adv-x="330" d="M67 852h50q0 -24 14 -37.5t34 -13.5q21 0 35.5 13.5t14.5 37.5h49q0 -44 -28 -69.5t-71 -25.5t-70.5 25.5t-27.5 69.5zM207 642v58h119v-58h-26l-111 -544q-19 -98 -115 -98h-34v58h34q34 0 44 41l22 101h-21l-89 442h-26v58h89l71 -438h2l64 380h-23z" />
<glyph unicode="&#x40f;" horiz-adv-x="350" d="M25 0v58h25v584h-25v58h96v-642h108v584h-25v58h121v-58h-25v-584h25v-58h-114v-125h-71v125h-115z" />
<glyph unicode="&#x410;" horiz-adv-x="330" d="M2 0v58h25l84 584h-20v58h121l90 -642h27v-58h-92l-22 174h-100l-18 -116h25v-58h-120zM119 232h92l-44 386h-2z" />
<glyph unicode="&#x411;" horiz-adv-x="333" d="M219 500v142h-98v-219h49q54 0 89.5 -30.5t35.5 -84.5v-192q0 -54 -35.5 -85t-89.5 -31h-145v58h25v584h-25v58h255v-200h-61zM170 365h-49v-307h49q23 0 38.5 15.5t15.5 42.5v192q0 26 -15.5 41.5t-38.5 15.5z" />
<glyph unicode="&#x412;" horiz-adv-x="333" d="M25 642v58h145q54 0 89.5 -31t35.5 -85v-120q0 -75 -67 -102q70 -27 70 -104v-142q0 -54 -36 -85t-90 -31h-147v58h25v584h-25zM172 332h-51v-274h51q23 0 39 15.5t16 42.5v160q0 25 -16 40.5t-39 15.5zM121 390h49q23 0 38.5 15.5t15.5 41.5v137q0 27 -15.5 42.5 t-38.5 15.5h-49v-252z" />
<glyph unicode="&#x413;" horiz-adv-x="303" d="M217 500v142h-96v-584h24v-58h-120v58h25v584h-25v58h253v-200h-61z" />
<glyph unicode="&#x414;" horiz-adv-x="388" d="M58 642v58h285v-58h-25v-584h47v-184h-71v126h-201v-126h-71v184h13q20 0 34 21.5t14 57.5v505h-25zM154 137q0 -48 -23 -79h116v584h-93v-505z" />
<glyph unicode="&#x415;" horiz-adv-x="317" d="M219 500v142h-98v-254h139v-58h-139v-272h98v142h61v-200h-255v58h25v584h-25v58h255v-200h-61z" />
<glyph unicode="&#x416;" horiz-adv-x="500" d="M190 0v58h25v272h-32l-78 -272h24v-58h-119v58h26l94 301l-91 283h-26v58h85l86 -312h31v254h-25v58h96v-312h31l75 254h-24v58h119v-58h-26l-90 -283l93 -301h27v-58h-86l-88 330h-31v-272h25v-58h-121z" />
<glyph unicode="&#x417;" horiz-adv-x="321" d="M106 630v-130h-71v169q46 36 123 36q54 0 90 -31t36 -85v-125q0 -75 -67 -102q69 -27 69 -104v-147q0 -54 -35.5 -85t-89.5 -31q-53 0 -88.5 30.5t-35.5 83.5v91h71v-91q0 -25 15 -40t38 -15t38.5 15.5t15.5 41.5v165q0 26 -15.5 41t-38.5 15h-54v58h51q23 0 39 15.5 t16 41.5v142q0 26 -16 41.5t-39 15.5q-14 0 -27 -4t-19 -8z" />
<glyph unicode="&#x418;" horiz-adv-x="352" d="M25 642v58h93v-472h2l114 411v61h93v-58h-25v-584h25v-58h-93v472h-2l-114 -411v-61h-93v58h25v584h-25z" />
<glyph unicode="&#x419;" horiz-adv-x="352" d="M77 852h50q0 -24 14 -37.5t34 -13.5q21 0 35.5 13.5t14.5 37.5h49q0 -44 -28 -69.5t-71 -25.5t-70.5 25.5t-27.5 69.5zM25 642v58h93v-472h2l114 411v61h93v-58h-25v-584h25v-58h-93v472h-2l-114 -411v-61h-93v58h25v584h-25z" />
<glyph unicode="&#x41a;" horiz-adv-x="335" d="M204 642v58h118v-58h-26l-90 -283l93 -301h26v-58h-85l-88 330h-31v-272h24v-58h-120v58h25v584h-25v58h96v-312h31l75 254h-23z" />
<glyph unicode="&#x41b;" horiz-adv-x="355" d="M234 0v642h-93v-510q0 -63 -34 -100t-85 -37v59q21 0 34.5 21t13.5 57v510h-25v58h285v-58h-25v-584h25v-58h-96z" />
<glyph unicode="&#x41c;" horiz-adv-x="504" d="M25 0v58h25v584h-25v58h130l95 -593h2l97 593h130v-58h-25v-584h25v-58h-93v579h-2l-92 -579h-81l-91 579h-2v-521h25v-58h-118z" />
<glyph unicode="&#x41d;" horiz-adv-x="350" d="M25 0v58h25v584h-25v58h96v-312h108v254h-25v58h121v-58h-25v-584h25v-58h-96v330h-108v-272h24v-58h-120z" />
<glyph unicode="&#x41e;" d="M162 705q54 0 90 -31t36 -85v-479q0 -54 -36 -84.5t-90 -30.5t-89.5 30.5t-35.5 84.5v479q0 54 35.5 85t89.5 31zM108 589v-479q0 -26 15.5 -41t38.5 -15t39 15t16 41v479q0 26 -16 41.5t-39 15.5t-38.5 -15.5t-15.5 -41.5z" />
<glyph unicode="&#x41f;" horiz-adv-x="350" d="M25 642v58h300v-58h-25v-584h25v-58h-96v642h-108v-584h24v-58h-120v58h25v584h-25z" />
<glyph unicode="&#x420;" horiz-adv-x="338" d="M25 642v58h145q54 0 89.5 -31t35.5 -85v-187q0 -54 -35.5 -84.5t-89.5 -30.5h-49v-224h24v-58h-120v58h25v584h-25zM121 340h49q23 0 38.5 15.5t15.5 41.5v187q0 27 -15.5 42.5t-38.5 15.5h-49v-302z" />
<glyph unicode="&#x421;" horiz-adv-x="320" d="M212 630q-20 16 -52 16q-22 0 -37 -15t-15 -40v-483q0 -25 14.5 -39.5t37.5 -14.5q22 0 37 14.5t15 39.5v92h71v-92q0 -53 -35 -83t-88 -30t-88 30t-35 83v483q0 53 35 83.5t88 30.5q34 0 65 -9t45 -18l13 -9v-169h-71v130z" />
<glyph unicode="&#x422;" horiz-adv-x="356" d="M118 0v58h25v584h-60v-142h-61v200h312v-200h-61v142h-59v-584h24v-58h-120z" />
<glyph unicode="&#x423;" horiz-adv-x="330" d="M207 642v58h119v-58h-26l-111 -544q-19 -98 -115 -98h-34v58h34q34 0 44 41l22 101h-21l-89 442h-26v58h89l71 -438h2l64 380h-23z" />
<glyph unicode="&#x424;" horiz-adv-x="470" d="M175 0v58h25v40h-37q-54 0 -90 31t-36 84v274q0 54 36 84.5t90 30.5h37v40h-25v58h96v-98h36q54 0 90 -30.5t36 -84.5v-274q0 -53 -36 -84t-90 -31h-36v-40h24v-58h-120zM200 544h-37q-23 0 -39 -15.5t-16 -41.5v-274q0 -26 16 -41.5t39 -15.5h37v388zM271 544v-388h36 q23 0 39 15.5t16 41.5v274q0 26 -16 41.5t-39 15.5h-36z" />
<glyph unicode="&#x425;" horiz-adv-x="330" d="M5 0v58h25l81 302l-77 282h-27v58h88l69 -311h2l61 253h-24v58h119v-58h-26l-76 -283l79 -301h27v-58h-88l-71 331h-2l-66 -273h26v-58h-120z" />
<glyph unicode="&#x426;" horiz-adv-x="375" d="M204 642v58h121v-58h-25v-584h48v-184h-71v126h-252v58h25v584h-25v58h96v-642h108v584h-25z" />
<glyph unicode="&#x427;" horiz-adv-x="342" d="M18 642v58h95v-316q0 -20 12 -31.5t29 -11.5q29 0 48.5 19.5t19.5 51.5v230h-25v58h96v-642h24v-58h-120v58h25v276q-37 -51 -98 -51q-35 0 -58.5 22.5t-23.5 61.5v275h-24z" />
<glyph unicode="&#x428;" horiz-adv-x="520" d="M200 642v58h95v-642h104v584h-25v58h121v-58h-25v-584h25v-58h-470v58h25v584h-25v58h96v-642h103v584h-24z" />
<glyph unicode="&#x429;" horiz-adv-x="540" d="M374 642v58h121v-58h-25v-584h47v-183h-71v125h-421v58h25v584h-25v58h96v-642h103v584h-24v58h95v-642h104v584h-25z" />
<glyph unicode="&#x42a;" horiz-adv-x="433" d="M125 0v58h25v584h-64v-142h-61v200h196v-277h49q54 0 90 -30.5t36 -84.5v-192q0 -54 -36 -85t-90 -31h-145zM221 58h49q23 0 39 15.5t16 42.5v192q0 26 -16 41.5t-39 15.5h-49v-307z" />
<glyph unicode="&#x42b;" horiz-adv-x="468" d="M25 642v58h96v-277h49q54 0 89.5 -30.5t35.5 -84.5v-192q0 -54 -35.5 -85t-89.5 -31h-145v58h25v584h-25zM170 365h-49v-307h49q23 0 38.5 15.5t15.5 42.5v192q0 26 -15.5 41.5t-38.5 15.5zM323 642v58h95v-642h25v-58h-120v58h24v584h-24z" />
<glyph unicode="&#x42c;" horiz-adv-x="333" d="M25 642v58h96v-277h49q54 0 89.5 -30.5t35.5 -84.5v-192q0 -54 -35.5 -85t-89.5 -31h-145v58h25v584h-25zM170 365h-49v-307h49q23 0 38.5 15.5t15.5 42.5v192q0 26 -15.5 41.5t-38.5 15.5z" />
<glyph unicode="&#x42d;" d="M108 630v-130h-71v169q47 36 125 36q54 0 90 -31t36 -85v-479q0 -54 -35.5 -84.5t-89.5 -30.5t-90 30.5t-36 84.5v90h71v-90q0 -26 16 -41t39 -15t38.5 15t15.5 41v217h-117v58h117v204q0 26 -16 41.5t-39 15.5q-15 0 -28.5 -4t-19.5 -8z" />
<glyph unicode="&#x42e;" horiz-adv-x="473" d="M25 642v58h96v-315h64v204q0 54 35.5 85t89.5 31t90 -31t36 -85v-479q0 -54 -36 -84.5t-90 -30.5t-89.5 30.5t-35.5 84.5v217h-64v-269h24v-58h-120v58h25v584h-25zM256 589v-479q0 -26 15.5 -41t38.5 -15t39 15t16 41v479q0 26 -16 41.5t-39 15.5t-38.5 -15.5 t-15.5 -41.5z" />
<glyph unicode="&#x42f;" horiz-adv-x="328" d="M1 0v58h26l73 257q-31 11 -49.5 36.5t-18.5 62.5v170q0 54 36 85t90 31h145v-58h-25v-584h25v-58h-96v300h-48l-63 -242h24v-58h-119zM207 358v284h-49q-23 0 -39 -15.5t-16 -42.5v-170q0 -25 16 -40.5t39 -15.5h49z" />
<glyph unicode="&#x430;" horiz-adv-x="330" d="M40 337v131q47 37 124 37q54 0 89 -30.5t35 -84.5v-332h24v-58h-95v47q-37 -52 -101 -52q-34 0 -56.5 22t-22.5 60v97q0 52 30.5 80t81.5 35l68 8v93q0 26 -15.5 41t-37.5 15q-14 0 -27.5 -4t-19.5 -8l-6 -4v-93h-71zM217 238l-54 -7q-55 -7 -55 -57v-79q0 -19 11.5 -30 t27.5 -11q28 0 49 19.5t21 51.5v113z" />
<glyph unicode="&#x431;" d="M108 525v-72q38 52 98 52q35 0 58.5 -22.5t23.5 -61.5v-311q0 -54 -36 -84.5t-90 -30.5t-89.5 30.5t-35.5 84.5v415q0 41 18 68t43.5 40t51.5 23.5t44 27t18 41.5h56q0 -38 -16.5 -62t-40 -36t-47 -23t-40 -30t-16.5 -49zM108 375v-265q0 -26 15.5 -41t38.5 -15t39 15 t16 41v293q0 20 -12 31.5t-29 11.5q-29 0 -48.5 -19t-19.5 -52z" />
<glyph unicode="&#x432;" horiz-adv-x="333" d="M25 442v58h145q51 0 85.5 -29.5t34.5 -81.5v-30q0 -70 -62 -97q70 -27 70 -104v-42q0 -54 -36 -85t-90 -31h-147v58h25v384h-25zM172 232h-51v-174h51q23 0 39 15.5t16 42.5v60q0 25 -16 40.5t-39 15.5zM121 290h49q21 0 35 14t14 38v47q0 24 -14 38.5t-35 14.5h-49v-152 z" />
<glyph unicode="&#x433;" horiz-adv-x="295" d="M210 337v105h-89v-384h24v-58h-120v58h25v384h-25v58h245v-163h-60z" />
<glyph unicode="&#x434;" horiz-adv-x="388" d="M22 -126v184h13q20 0 34 21.5t14 57.5v305h-25v58h285v-58h-25v-384h47v-184h-71v126h-201v-126h-71zM247 442h-93v-305q0 -48 -23 -79h116v384z" />
<glyph unicode="&#x435;" d="M288 227h-180v-117q0 -26 15.5 -41t38.5 -15t39 15t16 41v53h71v-53q0 -54 -36 -84.5t-90 -30.5t-89.5 30.5t-35.5 84.5v279q0 54 35.5 85t89.5 31t90 -31t36 -85v-162zM108 389v-104h109v104q0 28 -15.5 42.5t-39.5 14.5t-39 -14.5t-15 -42.5z" />
<glyph unicode="&#x436;" horiz-adv-x="500" d="M190 0v58h24v171h-37l-67 -171h23v-58h-119v58h28l83 199l-79 185h-28v58h81l78 -215h37v157h-24v58h95v-215h38l63 157h-23v58h119v-58h-28l-79 -185l83 -199h27v-58h-81l-81 229h-38v-171h25v-58h-120z" />
<glyph unicode="&#x437;" horiz-adv-x="321" d="M106 430v-93h-71v131q46 37 123 37q54 0 90 -31t36 -85v-27q0 -74 -67 -103q69 -27 69 -103v-45q0 -54 -35.5 -85t-89.5 -31q-53 0 -88.5 30.5t-35.5 83.5v54h71v-54q0 -25 15 -40t38 -15t38.5 15.5t15.5 41.5v62q0 26 -15.5 41.5t-38.5 15.5h-52v58h49q23 0 39 15.5 t16 40.5v45q0 26 -16 41.5t-39 15.5q-14 0 -27 -4t-19 -8z" />
<glyph unicode="&#x438;" horiz-adv-x="352" d="M22 0v58h28v384h-28v58h96v-323h2l114 298v25h95v-58h-27v-384h27v-58h-95v323h-2l-114 -298v-25h-96z" />
<glyph unicode="&#x439;" horiz-adv-x="352" d="M77 652h50q0 -24 14 -37.5t34 -13.5q21 0 35.5 13.5t14.5 37.5h49q0 -44 -28 -69.5t-71 -25.5t-70.5 25.5t-27.5 69.5zM22 0v58h28v384h-28v58h96v-323h2l114 298v25h95v-58h-27v-384h27v-58h-95v323h-2l-114 -298v-25h-96z" />
<glyph unicode="&#x43a;" horiz-adv-x="335" d="M198 442v58h118v-58h-26l-80 -185l83 -199h27v-58h-80l-82 229h-37v-171h24v-58h-120v58h25v384h-25v58h96v-215h37l63 157h-23z" />
<glyph unicode="&#x43b;" horiz-adv-x="355" d="M22 -5v59q21 0 34.5 21t13.5 57v310h-25v58h285v-58h-25v-384h25v-58h-96v442h-93v-310q0 -63 -34 -100t-85 -37z" />
<glyph unicode="&#x43c;" horiz-adv-x="494" d="M25 442v58h129l91 -410h2l92 410h130v-58h-25v-384h25v-58h-91v417h-2l-90 -417h-79l-89 417h-2v-359h24v-58h-115v58h25v384h-25z" />
<glyph unicode="&#x43d;" horiz-adv-x="350" d="M204 442v58h121v-58h-25v-384h25v-58h-96v227h-108v-169h24v-58h-120v58h25v384h-25v58h96v-215h108v157h-25z" />
<glyph unicode="&#x43e;" d="M162 505q54 0 90 -31t36 -85v-279q0 -54 -36 -84.5t-90 -30.5t-89.5 30.5t-35.5 84.5v279q0 54 35.5 85t89.5 31zM108 389v-279q0 -26 15.5 -41t38.5 -15t39 15t16 41v279q0 26 -16 41.5t-39 15.5t-38.5 -15.5t-15.5 -41.5z" />
<glyph unicode="&#x43f;" horiz-adv-x="350" d="M25 0v58h25v384h-25v58h300v-58h-25v-384h25v-58h-96v442h-108v-384h24v-58h-120z" />
<glyph unicode="&#x440;" horiz-adv-x="337" d="M25 442v58h96v-47q38 52 98 52q34 0 57.5 -23t23.5 -61v-311q0 -54 -31.5 -84.5t-79.5 -30.5q-40 0 -68 15v-152h24v-58h-120v58h25v584h-25zM121 70q21 -16 53 -16q24 0 39.5 15t15.5 41v293q0 20 -12 31.5t-29 11.5q-29 0 -48 -19t-19 -52v-305z" />
<glyph unicode="&#x441;" horiz-adv-x="320" d="M212 430q-21 16 -52 16q-22 0 -37 -15t-15 -40v-283q0 -25 14.5 -39.5t37.5 -14.5q22 0 37 14.5t15 39.5v55h71v-55q0 -53 -35 -83t-88 -30t-88 30t-35 83v283q0 53 35 83.5t88 30.5q34 0 64.5 -9.5t44.5 -18.5l14 -9v-131h-71v93z" />
<glyph unicode="&#x442;" horiz-adv-x="336" d="M108 0v58h25v384h-57v-105h-54v163h292v-163h-54v105h-56v-384h24v-58h-120z" />
<glyph unicode="&#x443;" horiz-adv-x="330" d="M206 442v58h120v-58h-26l-111 -544q-19 -98 -115 -98h-34v58h34q34 0 44 41l22 101h-21l-89 442h-27v58h90l71 -438h2l64 380h-24z" />
<glyph unicode="&#x444;" horiz-adv-x="470" d="M175 -200v58h25v142h-37q-54 0 -90 31t-36 85v269q0 54 36 84.5t90 30.5h37v167h-25v58h96v-225h36q54 0 90 -30.5t36 -84.5v-269q0 -54 -36 -85t-90 -31h-36v-142h24v-58h-120zM200 442h-37q-23 0 -39 -15.5t-16 -41.5v-269q0 -27 16 -42.5t39 -15.5h37v384zM271 442 v-384h36q23 0 39 15.5t16 42.5v269q0 26 -16 41.5t-39 15.5h-36z" />
<glyph unicode="&#x445;" horiz-adv-x="335" d="M240 0l-72 220h-2l-59 -162h24v-58h-119v58h28l81 199l-78 185h-28v58h84l67 -204h2l56 146h-24v58h119v-58h-29l-76 -185l81 -199h28v-58h-83z" />
<glyph unicode="&#x446;" horiz-adv-x="375" d="M204 442v58h121v-58h-25v-384h48v-184h-71v126h-252v58h25v384h-25v58h96v-442h108v384h-25z" />
<glyph unicode="&#x447;" horiz-adv-x="342" d="M197 0v58h25v176q-37 -51 -98 -51q-35 0 -58.5 22.5t-23.5 61.5v175h-24v58h95v-216q0 -20 12 -31.5t29 -11.5q29 0 48.5 19.5t19.5 51.5v130h-25v58h96v-442h24v-58h-120z" />
<glyph unicode="&#x448;" horiz-adv-x="520" d="M200 442v58h95v-442h104v384h-25v58h121v-58h-25v-384h25v-58h-470v58h25v384h-25v58h96v-442h103v384h-24z" />
<glyph unicode="&#x449;" horiz-adv-x="540" d="M374 442v58h121v-58h-25v-384h47v-183h-71v125h-421v58h25v384h-25v58h96v-442h103v384h-24v58h95v-442h104v384h-25z" />
<glyph unicode="&#x44a;" horiz-adv-x="433" d="M126 0v58h25v384h-65v-105h-61v163h197v-187h48q55 0 90.5 -30.5t35.5 -84.5v-82q0 -54 -36 -85t-90 -31h-144zM222 255v-197h48q24 0 39.5 15.5t15.5 42.5v82q0 26 -15.5 41.5t-39.5 15.5h-48z" />
<glyph unicode="&#x44b;" horiz-adv-x="468" d="M25 0v58h25v384h-25v58h96v-187h49q54 0 89.5 -30.5t35.5 -84.5v-82q0 -54 -35.5 -85t-89.5 -31h-145zM121 255v-197h49q23 0 38.5 15.5t15.5 42.5v82q0 26 -15.5 41.5t-38.5 15.5h-49zM323 0v58h24v384h-24v58h95v-442h25v-58h-120z" />
<glyph unicode="&#x44c;" horiz-adv-x="333" d="M25 442v58h96v-187h49q54 0 89.5 -30.5t35.5 -84.5v-82q0 -54 -35.5 -85t-89.5 -31h-145v58h25v384h-25zM170 255h-49v-197h49q23 0 38.5 15.5t15.5 42.5v82q0 26 -15.5 41.5t-38.5 15.5z" />
<glyph unicode="&#x44d;" d="M108 425v-88h-71v126q5 5 15.5 12t43 18.5t67.5 11.5q54 0 89.5 -31t35.5 -85v-279q0 -54 -35.5 -84.5t-89.5 -30.5t-90 30.5t-36 84.5v53h71v-53q0 -26 16 -41t39 -15t38.5 15t15.5 41v117h-109v58h109v104q0 28 -15 42.5t-39 14.5q-15 0 -28.5 -5t-20.5 -11z" />
<glyph unicode="&#x44e;" horiz-adv-x="473" d="M25 442v58h96v-215h64v104q0 54 35.5 85t89.5 31t90 -31t36 -85v-279q0 -54 -36 -84.5t-90 -30.5t-89.5 30.5t-35.5 84.5v117h-64v-169h24v-58h-120v58h25v384h-25zM256 110q0 -26 15.5 -41t38.5 -15t39 15t16 41v279q0 26 -16 41.5t-39 15.5t-38.5 -15.5t-15.5 -41.5 v-279z" />
<glyph unicode="&#x44f;" horiz-adv-x="323" d="M8 0v58h30l61 151q-33 10 -52.5 37t-19.5 66v72q0 54 36 85t90 31h145v-58h-25v-384h25v-58h-96v197h-47l-52 -139h24v-58h-119zM153 255h49v187h-49q-23 0 -39 -15.5t-16 -42.5v-72q0 -26 16 -41.5t39 -15.5z" />
<glyph unicode="&#x450;" d="M207 558l-131 110l42 42l130 -110zM288 227h-180v-117q0 -26 15.5 -41t38.5 -15t39 15t16 41v53h71v-53q0 -54 -36 -84.5t-90 -30.5t-89.5 30.5t-35.5 84.5v279q0 54 35.5 85t89.5 31t90 -31t36 -85v-162zM108 389v-104h109v104q0 28 -15.5 42.5t-39.5 14.5t-39 -14.5 t-15 -42.5z" />
<glyph unicode="&#x451;" d="M60 587v101h60v-101h-60zM205 587v101h61v-101h-61zM288 227h-180v-117q0 -26 15.5 -41t38.5 -15t39 15t16 41v53h71v-53q0 -54 -36 -84.5t-90 -30.5t-89.5 30.5t-35.5 84.5v279q0 54 35.5 85t89.5 31t90 -31t36 -85v-162zM108 389v-104h109v104q0 28 -15.5 42.5 t-39.5 14.5t-39 -14.5t-15 -42.5z" />
<glyph unicode="&#x452;" horiz-adv-x="355" d="M43 0v58h24v521h-45v59h45v87h71v-87h124v-59h-124v-126q38 52 98 52q35 0 58.5 -22.5t23.5 -61.5v-548q0 -47 -32 -75t-80 -28q-49 0 -81 28t-32 75v55h71v-55q0 -20 12 -32t30 -12q17 0 29 12t12 32v530q0 20 -12 31.5t-29 11.5q-29 0 -48.5 -19t-19.5 -52v-317h25v-58 h-120z" />
<glyph unicode="&#x453;" horiz-adv-x="283" d="M100 558l-42 42l130 110l42 -41zM210 337v105h-89v-384h24v-58h-120v58h25v384h-25v58h245v-163h-60z" />
<glyph unicode="&#x454;" d="M217 342v83q-22 21 -55 21q-24 0 -39 -14.5t-15 -42.5v-104h135v-58h-135v-117q0 -26 15.5 -41t38.5 -15t39 15t16 41v53h71v-53q0 -54 -36 -84.5t-90 -30.5t-89.5 30.5t-35.5 84.5v279q0 54 35.5 85t89.5 31q35 0 66.5 -10.5t45.5 -20.5l14 -11v-121h-71z" />
<glyph unicode="&#x455;" horiz-adv-x="320" d="M208 430q-19 16 -49 16q-22 0 -36 -14t-14 -39v-51q0 -22 18 -36t43.5 -22t51 -19t43.5 -34.5t18 -59.5v-63q0 -52 -35 -82.5t-88 -30.5q-34 0 -65 9.5t-45 18.5l-13 9v131h71v-93q20 -16 52 -16q22 0 37 14.5t15 39.5v63q0 22 -18 36t-43.5 22t-51 19t-43.5 34.5 t-18 59.5v51q0 52 34.5 82t86.5 30q33 0 63 -9.5t44 -18.5l13 -9v-131h-71v93z" />
<glyph unicode="&#x456;" horiz-adv-x="170" d="M25 442v58h96v-442h24v-58h-120v58h25v384h-25zM50 599v101h71v-101h-71z" />
<glyph unicode="&#x457;" horiz-adv-x="170" d="M-17 587v101h60v-101h-60zM128 587v101h61v-101h-61zM25 442v58h96v-442h24v-58h-120v58h25v384h-25z" />
<glyph unicode="&#x458;" horiz-adv-x="165" d="M25 442v58h96v-622q0 -50 -33 -79t-81 -29q-23 0 -44 7v58q15 -6 36 -6q22 0 36.5 13t14.5 36v564h-25zM50 599v101h71v-101h-71z" />
<glyph unicode="&#x459;" horiz-adv-x="517" d="M210 0v52h24v390h-93v-310q0 -63 -34 -100t-85 -37v59q21 0 34.5 21t13.5 57v310h-25v58h260v-210h49q54 0 90 -30.5t36 -83.5v-60q0 -54 -36 -85t-90 -31h-144zM305 58h49q23 0 39 15.5t16 42.5v60q0 25 -16 40.5t-39 15.5h-49v-174z" />
<glyph unicode="&#x45a;" horiz-adv-x="512" d="M25 0v58h25v384h-25v58h96v-210h108v152h-25v58h121v-58h-25v-152h49q54 0 90 -30.5t36 -83.5v-60q0 -54 -36 -85t-90 -31h-120v232h-108v-174h24v-58h-120zM300 58h49q23 0 39 15.5t16 42.5v60q0 25 -16 40.5t-39 15.5h-49v-174z" />
<glyph unicode="&#x45b;" horiz-adv-x="365" d="M48 0v58h24v521h-45v59h45v87h71v-87h124v-59h-124v-126q38 52 98 52q35 0 58.5 -22.5t23.5 -61.5v-363h24v-58h-95v403q0 20 -12 31.5t-29 11.5q-29 0 -48.5 -19t-19.5 -52v-317h25v-58h-120z" />
<glyph unicode="&#x45c;" horiz-adv-x="335" d="M123 558l-42 42l130 110l42 -41zM198 442v58h118v-58h-26l-80 -185l83 -199h27v-58h-80l-82 229h-37v-171h24v-58h-120v58h25v384h-25v58h96v-215h37l63 157h-23z" />
<glyph unicode="&#x45d;" horiz-adv-x="352" d="M221 558l-131 110l42 42l130 -110zM22 0v58h28v384h-28v58h96v-323h2l114 298v25h95v-58h-27v-384h27v-58h-95v323h-2l-114 -298v-25h-96z" />
<glyph unicode="&#x45e;" horiz-adv-x="330" d="M67 652h50q0 -24 14 -37.5t34 -13.5q21 0 35.5 13.5t14.5 37.5h49q0 -44 -28 -69.5t-71 -25.5t-70.5 25.5t-27.5 69.5zM206 442v58h120v-58h-26l-111 -544q-19 -98 -115 -98h-34v58h34q34 0 44 41l22 101h-21l-89 442h-27v58h90l71 -438h2l64 380h-24z" />
<glyph unicode="&#x45f;" horiz-adv-x="350" d="M204 442v58h121v-58h-25v-442h-89v-125h-71v125h-90v442h-25v58h96v-442h108v384h-25z" />
<glyph unicode="&#x490;" horiz-adv-x="294" d="M25 642v58h184v101h61v-159h-149v-584h24v-58h-120v58h25v584h-25z" />
<glyph unicode="&#x491;" horiz-adv-x="283" d="M25 442v58h174v100h61v-158h-139v-384h24v-58h-120v58h25v384h-25z" />
<glyph unicode="&#x4d8;" horiz-adv-x="320" d="M108 630v-130h-71v169q46 36 123 36q53 0 88 -30.5t35 -83.5v-483q0 -53 -35 -83t-87 -30q-53 0 -88.5 30t-35.5 83v272h175v211q0 25 -15 40t-37 15q-14 0 -27 -4t-19 -8zM161 54q22 0 36.5 14.5t14.5 39.5v214h-104v-214q0 -25 15 -39.5t38 -14.5z" />
<glyph unicode="&#x4d9;" d="M217 227h-109v-116q0 -28 15.5 -42.5t39.5 -14.5t39 14.5t15 42.5v116zM37 345v123q48 37 126 37q54 0 89.5 -30.5t35.5 -84.5v-279q0 -54 -35.5 -85t-89.5 -31t-90 31t-36 85v174h180v105q0 26 -15.5 41t-38.5 15q-15 0 -28.5 -4t-20.5 -8l-6 -4v-85h-71z" />
<glyph unicode="&#x1e80;" horiz-adv-x="550" d="M426 642v58h120v-58h-25l-90 -642h-95l-60 615h-2l-61 -615h-95l-90 642h-25v58h91l69 -622h2l63 622h93l63 -622h2l64 564h-24zM319 758l-131 110l42 42l130 -110z" />
<glyph unicode="&#x1e81;" horiz-adv-x="527" d="M402 442v58h121v-58h-27l-82 -442h-92l-58 430h-2l-57 -430h-93l-83 442h-26v58h90l64 -437h2l59 437h90l59 -437h2l58 379h-25zM308 558l-131 110l42 42l130 -110z" />
<glyph unicode="&#x1e82;" horiz-adv-x="550" d="M426 642v58h120v-58h-25l-90 -642h-95l-60 615h-2l-61 -615h-95l-90 642h-25v58h91l69 -622h2l63 622h93l63 -622h2l64 564h-24zM231 758l-42 42l130 110l42 -41z" />
<glyph unicode="&#x1e83;" horiz-adv-x="527" d="M402 442v58h121v-58h-27l-82 -442h-92l-58 430h-2l-57 -430h-93l-83 442h-26v58h90l64 -437h2l59 437h90l59 -437h2l58 379h-25zM219 558l-42 42l130 110l42 -41z" />
<glyph unicode="&#x1e84;" horiz-adv-x="550" d="M426 642v58h120v-58h-25l-90 -642h-95l-60 615h-2l-61 -615h-95l-90 642h-25v58h91l69 -622h2l63 622h93l63 -622h2l64 564h-24zM172 787v101h60v-101h-60zM317 787v101h61v-101h-61z" />
<glyph unicode="&#x1e85;" horiz-adv-x="527" d="M402 442v58h121v-58h-27l-82 -442h-92l-58 430h-2l-57 -430h-93l-83 442h-26v58h90l64 -437h2l59 437h90l59 -437h2l58 379h-25zM160 587v101h60v-101h-60zM305 587v101h61v-101h-61z" />
<glyph unicode="&#x1ef2;" horiz-adv-x="330" d="M207 642v58h119v-58h-28l-98 -418v-166h25v-58h-121v58h25v166l-98 418h-27v58h88l72 -363h2l64 305h-23zM210 758l-131 110l42 42l130 -110z" />
<glyph unicode="&#x1ef3;" horiz-adv-x="335" d="M197 442v58h96v-614q0 -54 -35 -85t-89 -31q-34 0 -65 9t-45 19l-14 9v113h71v-75q21 -16 53 -16q22 0 37 15t16 41v162q-38 -52 -98 -52q-35 0 -58.5 22.5t-23.5 61.5v363h-24v58h95v-403q0 -20 12 -31.5t29 -11.5q29 0 48.5 19t19.5 52v317h-25zM215 558l-131 110 l42 42l130 -110z" />
<glyph unicode="&#x2012;" horiz-adv-x="310" d="M30 282v58h250v-58h-250z" />
<glyph unicode="&#x2013;" horiz-adv-x="340" d="M30 247v58h280v-58h-280z" />
<glyph unicode="&#x2014;" horiz-adv-x="519" d="M30 247v58h459v-58h-459z" />
<glyph unicode="&#x2018;" horiz-adv-x="153" d="M80 725h58q-27 -65 -27 -123v-100h-69v100q0 26 9.5 56.5t18.5 48.5z" />
<glyph unicode="&#x2019;" horiz-adv-x="153" d="M73 502h-58q27 65 27 122v101h69v-101q0 -25 -9.5 -55.5t-19.5 -48.5z" />
<glyph unicode="&#x201a;" horiz-adv-x="153" d="M73 -123h-58q27 65 27 123v100h69v-100q0 -26 -9.5 -56.5t-19.5 -48.5z" />
<glyph unicode="&#x201c;" horiz-adv-x="266" d="M80 725h58q-27 -65 -27 -123v-100h-69v100q0 26 9.5 56.5t18.5 48.5zM198 725h58q-27 -65 -27 -123v-100h-69v100q0 26 9.5 56.5t18.5 48.5z" />
<glyph unicode="&#x201d;" horiz-adv-x="266" d="M73 502h-58q27 65 27 122v101h69v-101q0 -25 -9.5 -55.5t-19.5 -48.5zM191 502h-58q27 65 27 122v101h69v-101q0 -25 -9.5 -55.5t-19.5 -48.5z" />
<glyph unicode="&#x201e;" horiz-adv-x="266" d="M73 -123h-58q27 65 27 123v100h69v-100q0 -26 -9.5 -56.5t-19.5 -48.5zM191 -123h-58q27 65 27 123v100h69v-100q0 -26 -9.5 -56.5t-19.5 -48.5z" />
<glyph unicode="&#x2020;" horiz-adv-x="295" d="M20 465v58h92v177h71v-177h92v-58h-92v-465h-71v465h-92z" />
<glyph unicode="&#x2021;" horiz-adv-x="295" d="M275 235v-58h-92v-177h-71v177h-92v58h92v230h-92v58h92v177h71v-177h92v-58h-92v-230h92z" />
<glyph unicode="&#x2022;" horiz-adv-x="265" d="M40 210v180h185v-180h-185z" />
<glyph unicode="&#x2026;" horiz-adv-x="404" d="M42 0v100h69v-100h-69zM168 0v100h68v-100h-68zM293 0v100h69v-100h-69z" />
<glyph unicode="&#x2030;" horiz-adv-x="744" d="M95 0l267 700h54l-267 -700h-54zM42 490v119q0 44 27 70t68 26q40 0 68 -26t28 -70v-119q0 -44 -27.5 -69.5t-68.5 -25.5t-68 25.5t-27 69.5zM90 609v-119q0 -24 13.5 -37t33.5 -13t34 13t14 37v119q0 23 -14 37t-34 14t-33.5 -14t-13.5 -37zM279 90v119q0 44 27 70 t68 26q40 0 67.5 -26t27.5 -70v-119q0 -44 -27.5 -69.5t-67.5 -25.5q-42 0 -68.5 25.5t-26.5 69.5zM327 209v-119q0 -24 13.5 -37t33.5 -13t33.5 13t13.5 37v119q0 23 -13.5 37t-33.5 14t-33.5 -14t-13.5 -37zM512 90v119q0 44 26.5 70t67.5 26t68.5 -26t27.5 -70v-119 q0 -44 -27.5 -69.5t-68.5 -25.5t-67.5 25.5t-26.5 69.5zM560 209v-119q0 -24 13 -37t33 -13q21 0 34.5 13t13.5 37v119q0 23 -14 37t-34 14q-19 0 -32.5 -14t-13.5 -37z" />
<glyph unicode="&#x2039;" horiz-adv-x="193" d="M168 425l-67 -175l67 -175h-74l-64 175l64 175h74z" />
<glyph unicode="&#x203a;" horiz-adv-x="193" d="M25 75l67 175l-67 175h73l65 -175l-65 -175h-73z" />
<glyph unicode="&#x2044;" horiz-adv-x="398" d="M30 0l267 700h72l-267 -700h-72z" />
<glyph unicode="&#x20ac;" horiz-adv-x="345" d="M237 500v130q-20 16 -52 16q-22 0 -37 -15t-15 -40v-146h175v-58h-175v-67h175v-58h-175v-154q0 -25 14.5 -39.5t36.5 -14.5q23 0 38 14.5t15 39.5v92h71v-92q0 -53 -35.5 -83t-88.5 -30q-52 0 -87 30t-35 83v154h-37v58h37v67h-37v58h37v146q0 53 35 83.5t88 30.5 q34 0 65 -9.5t44 -18.5l14 -9v-168h-71z" />
<glyph unicode="&#x20b4;" d="M32 384v58h169q15 28 15 58v90q0 26 -15 41t-38 15t-38.5 -15t-15.5 -41v-90h-71v90q0 54 35.5 84.5t89.5 30.5t89 -30.5t35 -84.5v-90q0 -31 -11 -58h17v-58h-55q-7 -8 -67 -65h122v-58h-169q-16 -29 -16 -61v-90q0 -26 16 -41t39 -15t38.5 15t15.5 41v90h71v-90 q0 -54 -35.5 -84.5t-89.5 -30.5t-90 30.5t-36 84.5v90q0 34 12 61h-17v58h57q11 12 34 33.5t32 31.5h-123z" />
<glyph unicode="&#x2116;" horiz-adv-x="582" d="M25 642v58h84l122 -473h3v473h68v-700h-59l-123 473h-2v-415h25v-58h-118v58h25v584h-25zM349 539v70q0 44 27 70t68 26q40 0 68 -26t28 -70v-70q0 -43 -27.5 -68.5t-68.5 -25.5t-68 25t-27 69zM398 609v-70q0 -23 13 -36.5t33 -13.5t34 13.5t14 36.5v70q0 23 -14 37 t-34 14q-19 0 -32.5 -14t-13.5 -37z" />
<glyph unicode="&#x2122;" horiz-adv-x="310" d="M72 450v33h11v195h-28v-50h-34v82h164v-82h-35v50h-27v-195h11v-33h-62zM200 450v33h10v195h-10v32h70l42 -209h1l43 209h71v-32h-11v-195h11v-33h-48v214h-1l-42 -214h-45l-42 214h-1v-181h11v-33h-59z" />
<glyph unicode="&#x2190;" horiz-adv-x="1092" d="M405 -3l-354 354l354 353l49 -50l-268 -268h830v-71h-830l269 -268z" />
<glyph unicode="&#x2191;" horiz-adv-x="809" d="M369 -211v830l-268 -269l-50 51l354 354l353 -354l-50 -50l-268 268v-830h-71z" />
<glyph unicode="&#x2192;" horiz-adv-x="1092" d="M76 315v71h830l-269 268l50 50l354 -353l-354 -354l-50 50l269 268h-830z" />
<glyph unicode="&#x2193;" horiz-adv-x="809" d="M405 -216l-354 354l50 51l268 -269v830h71v-830l268 268l50 -50z" />
<glyph unicode="&#x2196;" horiz-adv-x="834" d="M76 200v500h500v-71h-380l587 -586l-50 -51l-586 587v-379h-71z" />
<glyph unicode="&#x2197;" horiz-adv-x="834" d="M258 629v71h500v-500h-71v379l-586 -587l-50 51l586 586h-379z" />
<glyph unicode="&#x2198;" horiz-adv-x="834" d="M258 0v71h379l-586 586l50 51l586 -587v379h71v-500h-500z" />
<glyph unicode="&#x2199;" horiz-adv-x="834" d="M76 0v500h71v-379l586 587l50 -51l-587 -586h380v-71h-500z" />
<glyph unicode="&#x2212;" horiz-adv-x="340" d="M30 282v58h280v-58h-280z" />
<glyph unicode="&#x25fc;" horiz-adv-x="500" d="M0 500h500v-500h-500v500z" />
<glyph unicode="&#xf6c3;" horiz-adv-x="137" d="M100 -105q0 -44 -27 -103h-51q20 60 20 103v75h58v-75z" />
<glyph unicode="&#xf724;" horiz-adv-x="320" d="M124 -100v101q-25 3 -46.5 10.5t-31.5 14.5l-9 6v131h71v-93q20 -16 52 -16q22 0 37 14.5t15 39.5v63q0 22 -18 36t-43.5 22t-51 19t-43.5 34.5t-18 59.5v51q0 42 23.5 69.5t62.5 35.5v102h71v-101q24 -3 46 -10.5t31 -14.5l10 -6v-131h-71v93q-20 16 -51 16 q-22 0 -36.5 -14t-14.5 -39v-51q0 -22 18 -36t43.5 -22t51 -19t43.5 -34.5t18 -59.5v-63q0 -43 -24.5 -71t-63.5 -36v-101h-71z" />
<glyph unicode="&#xf730;" d="M162 505q54 0 90 -31t36 -85v-279q0 -54 -36 -84.5t-90 -30.5t-89.5 30.5t-35.5 84.5v279q0 54 35.5 85t89.5 31zM108 389v-279q0 -26 15.5 -41t38.5 -15t39 15t16 41v279q0 26 -16 41.5t-39 15.5t-38.5 -15.5t-15.5 -41.5z" />
<glyph unicode="&#xf731;" horiz-adv-x="312" d="M32 0v58h90v375l-91 -55v67l91 55h71v-442h87v-58h-248z" />
<glyph unicode="&#xf732;" horiz-adv-x="321" d="M106 430v-93h-71v131q46 37 123 37q54 0 90 -31t36 -85v-68q0 -41 -18 -69.5t-43.5 -44.5t-51.5 -30t-44 -35t-18 -51v-33h175v-58h-246v91q0 41 18 69.5t43.5 44.5t51.5 30t44 35t18 51v68q0 26 -16 41.5t-39 15.5q-14 0 -27 -4t-19 -8z" />
<glyph unicode="&#xf733;" horiz-adv-x="321" d="M37 -130v130h71v-93q21 -16 53 -16q23 0 38.5 15.5t15.5 41.5v155q0 26 -15.5 41t-38.5 15h-52v59h49q23 0 39 15t16 41v115q0 26 -16 41.5t-39 15.5q-14 0 -27 -4t-19 -8l-6 -4v-93h-71v131q46 37 123 37q54 0 90 -31t36 -85v-97q0 -76 -67 -103q69 -27 69 -104v-137 q0 -53 -35.5 -84t-89.5 -31q-34 0 -65 9.5t-45 18.5z" />
<glyph unicode="&#xf734;" horiz-adv-x="321" d="M22 0v58l143 442h108v-442h25v-58h-25v-150h-68v150h-183zM88 58h117v366h-2z" />
<glyph unicode="&#xf735;" d="M222 362v80h-114v-233q37 52 98 52q35 0 58.5 -22.5t23.5 -61.5v-230q0 -53 -36 -83.5t-90 -30.5q-35 0 -66 10.5t-45 20.5l-14 10v126h71v-89q21 -20 54 -20q23 0 39 15.5t16 40.5v212q0 20 -12 32t-29 12q-28 0 -48 -19t-20 -43h-71v359h246v-138h-61z" />
<glyph unicode="&#xf736;" d="M215 512v93q-20 16 -52 16q-23 0 -39 -15.5t-16 -41.5v-206q38 52 98 52q35 0 58.5 -22.5t23.5 -61.5v-216q0 -54 -36 -84.5t-90 -30.5t-89.5 30.5t-35.5 84.5v454q0 54 36 85t90 31q34 0 65 -9t44 -19l14 -9v-131h-71zM108 280v-170q0 -26 15.5 -41t38.5 -15t39 15 t16 41v198q0 20 -12 31.5t-29 11.5q-29 0 -48.5 -19t-19.5 -52z" />
<glyph unicode="&#xf737;" horiz-adv-x="305" d="M30 362v138h245v-35l-131 -615h-73l128 592h-108v-80h-61z" />
<glyph unicode="&#xf738;" d="M162 680q54 0 90 -31t36 -85v-119q0 -71 -61 -100q61 -31 61 -101v-134q0 -54 -36 -84.5t-90 -30.5t-89.5 30.5t-35.5 84.5v134q0 71 60 101q-60 28 -60 100v119q0 54 35.5 85t89.5 31zM108 564v-134q0 -26 15.5 -41.5t38.5 -15.5t39 15.5t16 41.5v134q0 26 -16 41.5 t-39 15.5t-38.5 -15.5t-15.5 -41.5zM108 258v-148q0 -26 15.5 -41t38.5 -15t39 15t16 41v148q0 26 -16 41.5t-39 15.5t-38.5 -15.5t-15.5 -41.5z" />
<glyph unicode="&#xf739;" d="M37 -128v128h71v-91q21 -18 53 -18q24 0 40 16t16 42v193q-37 -52 -98 -52q-35 0 -58.5 22.5t-23.5 61.5v216q0 54 36 84.5t90 30.5t89.5 -30.5t35.5 -84.5v-441q0 -54 -36 -85t-91 -31q-34 0 -65 9.5t-45 19.5zM217 219v171q0 26 -15.5 41t-38.5 15t-39 -15t-16 -41 v-198q0 -20 12 -32t29 -12q29 0 48.5 19.5t19.5 51.5z" />
<glyph horiz-adv-x="330" d="M89 462v58h122l88 -462h27v-58h-98l-14 109v20l-38 18h-60l-18 -89h25v-58h-120v58h26l79 404h-19zM164 458l-42 -253h85l-41 253h-2z" />
<glyph horiz-adv-x="330" d="M121 558l-42 42l130 110l42 -41zM89 462v58h122l88 -462h27v-58h-98l-14 109v20l-38 18h-60l-18 -89h25v-58h-120v58h26l79 404h-19zM164 458l-42 -253h85l-41 253h-2z" />
<glyph horiz-adv-x="330" d="M67 652h50q0 -24 14 -37.5t34 -13.5q21 0 35.5 13.5t14.5 37.5h49q0 -44 -28 -69.5t-71 -25.5t-70.5 25.5t-27.5 69.5zM89 462v58h122l88 -462h27v-58h-98l-14 109v20l-38 18h-60l-18 -89h25v-58h-120v58h26l79 404h-19zM164 458l-42 -253h85l-41 253h-2z" />
<glyph horiz-adv-x="330" d="M89 462v58h122l88 -462h27v-58h-98l-14 109v20l-38 18h-60l-18 -89h25v-58h-120v58h26l79 404h-19zM164 458l-42 -253h85l-41 253h-2zM81 561l-41 41l125 100l125 -100l-41 -41l-84 68z" />
<glyph horiz-adv-x="330" d="M210 558l-131 110l42 42l130 -110zM89 462v58h122l88 -462h27v-58h-98l-14 109v20l-38 18h-60l-18 -89h25v-58h-120v58h26l79 404h-19zM164 458l-42 -253h85l-41 253h-2z" />
<glyph horiz-adv-x="330" d="M89 462v58h122l88 -462h27v-58h-98l-14 109v20l-38 18h-60l-18 -89h25v-58h-120v58h26l79 404h-19zM164 458l-42 -253h85l-41 253h-2zM63 587v101h60v-101h-60zM208 587v101h61v-101h-61z" />
<glyph horiz-adv-x="330" d="M89 462v58h122l88 -462h27v-58h-98l-14 109v20l-38 18h-60l-18 -89h25v-58h-120v58h26l79 404h-19zM164 458l-42 -253h85l-41 253h-2zM66 597v58h198v-58h-198z" />
<glyph horiz-adv-x="330" d="M236 -30v30h-8l-14 109v20l-38 18h-60l-18 -89h25v-58h-120v58h26l79 404h-19v58h122l88 -462h27v-58h-40v-30q0 -25 14 -41.5t38 -16.5v-42q-47 0 -74.5 28.5t-27.5 71.5zM164 458l-42 -253h85l-41 253h-2z" />
<glyph horiz-adv-x="330" d="M165 715q37 0 61.5 -23t24.5 -62q0 -40 -24.5 -62.5t-61.5 -22.5t-61 22.5t-24 62.5q0 39 24 62t61 23zM126 630q0 -20 11.5 -31.5t27.5 -11.5q17 0 28.5 11.5t11.5 31.5t-11.5 32t-28.5 12q-16 0 -27.5 -12t-11.5 -32zM89 462v58h122l88 -462h27v-58h-98l-14 109v20 l-38 18h-60l-18 -89h25v-58h-120v58h26l79 404h-19zM164 458l-42 -253h85l-41 253h-2z" />
<glyph horiz-adv-x="330" d="M41 568q0 38 22 60t56 22q28 0 51 -20.5t39 -20.5q15 0 25 9.5t10 26.5h45q0 -38 -22 -60t-55 -22q-28 0 -52 20.5t-39 20.5t-25 -9.5t-10 -26.5h-45zM89 462v58h122l88 -462h27v-58h-98l-14 109v20l-38 18h-60l-18 -89h25v-58h-120v58h26l79 404h-19zM164 458l-42 -253 h85l-41 253h-2z" />
<glyph horiz-adv-x="422" d="M323 357v105h-86v-164h112v-58h-112v-182h86v105h61v-163h-218v139h-51l-17 -81h25v-58h-120v58h26l79 404h-21v58h297v-163h-61zM164 458l-43 -260h45v260h-2z" />
<glyph horiz-adv-x="406" d="M177 558l-42 42l130 110l42 -41zM323 357v105h-86v-164h112v-58h-112v-182h86v105h61v-163h-218v139h-51l-17 -81h25v-58h-120v58h26l79 404h-21v58h297v-163h-61zM164 458l-43 -260h45v260h-2z" />
<glyph horiz-adv-x="333" d="M25 462v58h145q54 0 89.5 -31t35.5 -85v-30q0 -75 -67 -102q70 -27 70 -104v-52q0 -54 -36 -85t-90 -31h-147v58h25v404h-25zM172 242h-51v-184h51q23 0 39 15.5t16 42.5v70q0 25 -16 40.5t-39 15.5zM121 300h49q23 0 38.5 15.5t15.5 41.5v47q0 27 -15.5 42.5t-38.5 15.5 h-49v-162z" />
<glyph horiz-adv-x="320" d="M212 450q-21 16 -52 16q-22 0 -37 -15t-15 -40v-303q0 -25 14.5 -39.5t37.5 -14.5q22 0 37 14.5t15 39.5v55h71v-55q0 -53 -35 -83t-88 -30t-88 30t-35 83v303q0 53 35 83.5t88 30.5q34 0 64.5 -9t44.5 -18l14 -9v-132h-71v93z" />
<glyph horiz-adv-x="320" d="M116 558l-42 42l130 110l42 -41zM212 450q-21 16 -52 16q-22 0 -37 -15t-15 -40v-303q0 -25 14.5 -39.5t37.5 -14.5q22 0 37 14.5t15 39.5v55h71v-55q0 -53 -35 -83t-88 -30t-88 30t-35 83v303q0 53 35 83.5t88 30.5q34 0 64.5 -9t44.5 -18l14 -9v-132h-71v93z" />
<glyph horiz-adv-x="320" d="M160 560l-125 101l41 41l84 -69l84 69l41 -41zM212 450q-21 16 -52 16q-22 0 -37 -15t-15 -40v-303q0 -25 14.5 -39.5t37.5 -14.5q22 0 37 14.5t15 39.5v55h71v-55q0 -53 -35 -83t-88 -30t-88 30t-35 83v303q0 53 35 83.5t88 30.5q34 0 64.5 -9t44.5 -18l14 -9v-132h-71 v93z" />
<glyph horiz-adv-x="320" d="M133 -138v135q-43 7 -69.5 36t-26.5 75v303q0 53 35 83.5t88 30.5q34 0 64.5 -9t44.5 -18l14 -9v-132h-71v93q-21 16 -52 16q-22 0 -37 -15t-15 -40v-303q0 -25 14.5 -39.5t37.5 -14.5q22 0 37 14.5t15 39.5v55h71v-55q0 -46 -27 -75t-70 -36v-135h-53z" />
<glyph horiz-adv-x="320" d="M212 450q-21 16 -52 16q-22 0 -37 -15t-15 -40v-303q0 -25 14.5 -39.5t37.5 -14.5q22 0 37 14.5t15 39.5v55h71v-55q0 -53 -35 -83t-88 -30t-88 30t-35 83v303q0 53 35 83.5t88 30.5q34 0 64.5 -9t44.5 -18l14 -9v-132h-71v93zM75 561l-41 41l125 100l125 -100l-41 -41 l-84 68z" />
<glyph horiz-adv-x="320" d="M212 450q-21 16 -52 16q-22 0 -37 -15t-15 -40v-303q0 -25 14.5 -39.5t37.5 -14.5q22 0 37 14.5t15 39.5v55h71v-55q0 -53 -35 -83t-88 -30t-88 30t-35 83v303q0 53 35 83.5t88 30.5q34 0 64.5 -9t44.5 -18l14 -9v-132h-71v93zM124 599v101h71v-101h-71z" />
<glyph horiz-adv-x="335" d="M25 462v58h147q54 0 90 -31t36 -85v-289q0 -54 -36 -84.5t-90 -30.5h-147v58h25v404h-25zM121 58h51q23 0 39 15.5t16 41.5v289q0 27 -16 42.5t-39 15.5h-51v-404z" />
<glyph horiz-adv-x="335" d="M170 560l-125 101l41 41l84 -69l84 69l41 -41zM25 462v58h147q54 0 90 -31t36 -85v-289q0 -54 -36 -84.5t-90 -30.5h-147v58h25v404h-25zM121 58h51q23 0 39 15.5t16 41.5v289q0 27 -16 42.5t-39 15.5h-51v-404z" />
<glyph horiz-adv-x="335" d="M25 0v58h25v182h-25v58h25v164h-25v58h147q54 0 90 -31t36 -85v-289q0 -54 -36 -84.5t-90 -30.5h-147zM121 58h51q23 0 39 15.5t16 41.5v289q0 27 -16 42.5t-39 15.5h-51v-164h56v-58h-56v-182z" />
<glyph horiz-adv-x="335" d="M25 0v58h25v182h-25v58h25v164h-25v58h147q54 0 90 -31t36 -85v-289q0 -54 -36 -84.5t-90 -30.5h-147zM121 58h51q23 0 39 15.5t16 41.5v289q0 27 -16 42.5t-39 15.5h-51v-164h56v-58h-56v-182z" />
<glyph horiz-adv-x="320" d="M25 462v58h96v-85h36q54 0 90 -30.5t36 -84.5v-114q0 -54 -36 -85t-90 -31h-36v-32h24v-58h-120v58h25v404h-25zM121 149h36q23 0 39 15.5t16 41.5v114q0 26 -16 41t-39 15h-36v-227z" />
<glyph horiz-adv-x="317" d="M219 357v105h-98v-164h137v-58h-137v-182h98v105h61v-163h-255v58h25v404h-25v58h255v-163h-61z" />
<glyph horiz-adv-x="317" d="M120 558l-42 42l130 110l42 -41zM219 357v105h-98v-164h137v-58h-137v-182h98v105h61v-163h-255v58h25v404h-25v58h255v-163h-61z" />
<glyph horiz-adv-x="317" d="M65 652h50q0 -24 14 -37.5t34 -13.5q21 0 35.5 13.5t14.5 37.5h49q0 -44 -28 -69.5t-71 -25.5t-70.5 25.5t-27.5 69.5zM219 357v105h-98v-164h137v-58h-137v-182h98v105h61v-163h-255v58h25v404h-25v58h255v-163h-61z" />
<glyph horiz-adv-x="317" d="M164 560l-125 101l41 41l84 -69l84 69l41 -41zM219 357v105h-98v-164h137v-58h-137v-182h98v105h61v-163h-255v58h25v404h-25v58h255v-163h-61z" />
<glyph horiz-adv-x="317" d="M219 357v105h-98v-164h137v-58h-137v-182h98v105h61v-163h-255v58h25v404h-25v58h255v-163h-61zM80 561l-41 41l125 100l125 -100l-41 -41l-84 68z" />
<glyph horiz-adv-x="317" d="M219 357v105h-98v-164h137v-58h-137v-182h98v105h61v-163h-255v58h25v404h-25v58h255v-163h-61zM61 587v101h60v-101h-60zM206 587v101h61v-101h-61z" />
<glyph horiz-adv-x="317" d="M219 357v105h-98v-164h137v-58h-137v-182h98v105h61v-163h-255v58h25v404h-25v58h255v-163h-61zM129 599v101h71v-101h-71z" />
<glyph horiz-adv-x="317" d="M209 558l-131 110l42 42l130 -110zM219 357v105h-98v-164h137v-58h-137v-182h98v105h61v-163h-255v58h25v404h-25v58h255v-163h-61z" />
<glyph horiz-adv-x="317" d="M219 357v105h-98v-164h137v-58h-137v-182h98v105h61v-163h-255v58h25v404h-25v58h255v-163h-61zM66 597v58h198v-58h-198z" />
<glyph horiz-adv-x="317" d="M176 -30v30h-151v58h25v404h-25v58h255v-163h-61v105h-98v-164h137v-58h-137v-182h98v105h61v-163h-54v-30q0 -25 14 -41.5t38 -16.5v-42q-47 0 -74.5 28.5t-27.5 71.5z" />
<glyph horiz-adv-x="317" d="M219 357v105h-98v-164h137v-58h-137v-182h24v-58h-120v58h25v404h-25v58h255v-163h-61z" />
<glyph horiz-adv-x="320" d="M212 451q-21 15 -52 15q-22 0 -37 -15t-15 -40v-303q0 -25 14.5 -39.5t37.5 -14.5q22 0 37 14.5t15 39.5v124h-51v58h122v-182q0 -53 -35 -83t-88 -30t-88 30t-35 83v303q0 53 35 83.5t88 30.5q34 0 64.5 -9t44.5 -18l14 -9v-132h-71v94z" />
<glyph horiz-adv-x="320" d="M62 652h50q0 -24 14 -37.5t34 -13.5q21 0 35.5 13.5t14.5 37.5h49q0 -44 -28 -69.5t-71 -25.5t-70.5 25.5t-27.5 69.5zM212 451q-21 15 -52 15q-22 0 -37 -15t-15 -40v-303q0 -25 14.5 -39.5t37.5 -14.5q22 0 37 14.5t15 39.5v124h-51v58h122v-182q0 -53 -35 -83t-88 -30 t-88 30t-35 83v303q0 53 35 83.5t88 30.5q34 0 64.5 -9t44.5 -18l14 -9v-132h-71v94z" />
<glyph horiz-adv-x="320" d="M212 451q-21 15 -52 15q-22 0 -37 -15t-15 -40v-303q0 -25 14.5 -39.5t37.5 -14.5q22 0 37 14.5t15 39.5v124h-51v58h122v-182q0 -53 -35 -83t-88 -30t-88 30t-35 83v303q0 53 35 83.5t88 30.5q34 0 64.5 -9t44.5 -18l14 -9v-132h-71v94zM76 561l-41 41l125 100l125 -100 l-41 -41l-84 68z" />
<glyph horiz-adv-x="320" d="M212 451q-21 15 -52 15q-22 0 -37 -15t-15 -40v-303q0 -25 14.5 -39.5t37.5 -14.5q22 0 37 14.5t15 39.5v124h-51v58h122v-182q0 -53 -35 -83t-88 -30t-88 30t-35 83v303q0 53 35 83.5t88 30.5q34 0 64.5 -9t44.5 -18l14 -9v-132h-71v94zM189 -105q0 -44 -27 -103h-51 q20 60 20 103v75h58v-75z" />
<glyph horiz-adv-x="320" d="M212 451q-21 15 -52 15q-22 0 -37 -15t-15 -40v-303q0 -25 14.5 -39.5t37.5 -14.5q22 0 37 14.5t15 39.5v124h-51v58h122v-182q0 -53 -35 -83t-88 -30t-88 30t-35 83v303q0 53 35 83.5t88 30.5q34 0 64.5 -9t44.5 -18l14 -9v-132h-71v94zM124 599v101h71v-101h-71z" />
<glyph horiz-adv-x="350" d="M204 462v58h121v-58h-25v-404h25v-58h-96v240h-108v-182h24v-58h-120v58h25v404h-25v58h96v-222h108v164h-25z" />
<glyph horiz-adv-x="350" d="M25 0v58h25v319h-30v40h30v45h-25v58h96v-103h108v45h-25v58h121v-58h-25v-45h30v-40h-30v-319h25v-58h-96v240h-108v-182h24v-58h-120zM121 298h108v79h-108v-79z" />
<glyph horiz-adv-x="350" d="M204 462v58h121v-58h-25v-404h25v-58h-96v240h-108v-182h24v-58h-120v58h25v404h-25v58h96v-222h108v164h-25zM91 561l-41 41l125 100l125 -100l-41 -41l-84 68z" />
<glyph horiz-adv-x="170" d="M25 462v58h120v-58h-24v-404h24v-58h-120v58h25v404h-25z" />
<glyph horiz-adv-x="170" d="M41 558l-42 42l130 110l42 -41zM25 462v58h120v-58h-24v-404h24v-58h-120v58h25v404h-25z" />
<glyph horiz-adv-x="170" d="M-12 652h50q0 -24 14 -37.5t34 -13.5q21 0 35.5 13.5t14.5 37.5h49q0 -44 -28 -69.5t-71 -25.5t-70.5 25.5t-27.5 69.5zM25 462v58h120v-58h-24v-404h24v-58h-120v58h25v404h-25z" />
<glyph horiz-adv-x="170" d="M25 462v58h120v-58h-24v-404h24v-58h-120v58h25v404h-25zM1 561l-41 41l125 100l125 -100l-41 -41l-84 68z" />
<glyph horiz-adv-x="170" d="M25 462v58h120v-58h-24v-404h24v-58h-120v58h25v404h-25zM-16 587v101h60v-101h-60zM129 587v101h61v-101h-61z" />
<glyph horiz-adv-x="170" d="M25 462v58h120v-58h-24v-404h24v-58h-120v58h25v404h-25zM50 599v101h71v-101h-71z" />
<glyph horiz-adv-x="170" d="M130 558l-131 110l42 42l130 -110zM25 462v58h120v-58h-24v-404h24v-58h-120v58h25v404h-25z" />
<glyph horiz-adv-x="170" d="M25 462v58h120v-58h-24v-404h24v-58h-120v58h25v404h-25zM-14 597v58h198v-58h-198z" />
<glyph horiz-adv-x="170" d="M50 -30v30h-25v58h25v404h-25v58h120v-58h-24v-404h24v-58h-45v-30q0 -25 14 -41.5t38 -16.5v-42q-47 0 -74.5 28.5t-27.5 71.5z" />
<glyph horiz-adv-x="170" d="M-38 568q0 38 22 60t56 22q28 0 51 -20.5t39 -20.5q15 0 25 9.5t10 26.5h45q0 -38 -22 -60t-55 -22q-28 0 -52 20.5t-39 20.5q-14 0 -24.5 -9.5t-10.5 -26.5h-45zM25 462v58h120v-58h-24v-404h24v-58h-120v58h25v404h-25z" />
<glyph horiz-adv-x="338" d="M200 462v58h120v-58h-25v-353q0 -53 -34.5 -83.5t-87.5 -30.5q-34 0 -65 9.5t-44 18.5l-14 9v131h71v-94q20 -15 52 -15q22 0 36.5 15t14.5 40v353h-24zM25 462v58h120v-58h-24v-171h24v-58h-120v58h25v171h-25z" />
<glyph d="M187 462v58h121v-58h-25v-353q0 -53 -35 -83.5t-87 -30.5q-34 0 -65 9.5t-45 18.5l-14 9v131h71v-94q21 -15 53 -15q22 0 36.5 15t14.5 40v353h-25z" />
<glyph d="M187 462v58h121v-58h-25v-353q0 -53 -35 -83.5t-87 -30.5q-34 0 -65 9.5t-45 18.5l-14 9v131h71v-94q21 -15 53 -15q22 0 36.5 15t14.5 40v353h-25zM164 561l-41 41l125 100l125 -100l-41 -41l-84 68z" />
<glyph horiz-adv-x="335" d="M199 462v58h118v-58h-27l-80 -195l84 -209h27v-58h-81l-82 239h-37v-181h24v-58h-120v58h25v404h-25v58h96v-225h37l64 167h-23z" />
<glyph horiz-adv-x="335" d="M199 462v58h118v-58h-27l-80 -195l84 -209h27v-58h-81l-82 239h-37v-181h24v-58h-120v58h25v404h-25v58h96v-225h37l64 167h-23zM206 -105q0 -44 -27 -103h-51q20 60 20 103v75h58v-75z" />
<glyph horiz-adv-x="303" d="M25 462v58h120v-58h-24v-404h96v105h61v-163h-253v58h25v404h-25z" />
<glyph horiz-adv-x="303" d="M122 558l-42 42l130 110l42 -41zM25 462v58h120v-58h-24v-404h96v105h61v-163h-253v58h25v404h-25z" />
<glyph horiz-adv-x="303" d="M167 560l-125 101l41 41l84 -69l84 69l41 -41zM25 462v58h120v-58h-24v-404h96v105h61v-163h-253v58h25v404h-25z" />
<glyph horiz-adv-x="303" d="M25 462v58h120v-58h-24v-404h96v105h61v-163h-253v58h25v404h-25zM196 -105q0 -44 -27 -103h-51q20 60 20 103v75h58v-75z" />
<glyph horiz-adv-x="303" d="M25 462v58h120v-58h-24v-404h96v105h61v-163h-253v58h25v404h-25zM218 235v91h62v-91h-62z" />
<glyph horiz-adv-x="303" d="M25 462v58h120v-58h-24v-165l85 85v-73l-85 -85v-166h96v105h61v-163h-253v58h25v95l-23 -23v73l23 23v236h-25z" />
<glyph horiz-adv-x="494" d="M25 0v58h25v404h-25v58h129l91 -430h2l92 430h130v-58h-25v-404h25v-58h-91v437h-2l-90 -437h-79l-89 437h-2v-379h24v-58h-115z" />
<glyph horiz-adv-x="352" d="M209 462v58h118v-58h-25v-462h-57l-125 344h-2v-286h25v-58h-118v58h25v404h-25v58h82l124 -344h3v286h-25z" />
<glyph horiz-adv-x="352" d="M133 558l-42 42l130 110l42 -41zM209 462v58h118v-58h-25v-462h-57l-125 344h-2v-286h25v-58h-118v58h25v404h-25v58h82l124 -344h3v286h-25z" />
<glyph horiz-adv-x="352" d="M177 560l-125 101l41 41l84 -69l84 69l41 -41zM209 462v58h118v-58h-25v-462h-57l-125 344h-2v-286h25v-58h-118v58h25v404h-25v58h82l124 -344h3v286h-25z" />
<glyph horiz-adv-x="352" d="M209 462v58h118v-58h-25v-462h-57l-125 344h-2v-286h25v-58h-118v58h25v404h-25v58h82l124 -344h3v286h-25zM209 -105q0 -44 -27 -103h-51q20 60 20 103v75h58v-75z" />
<glyph horiz-adv-x="352" d="M51 568q0 38 22 60t56 22q28 0 51 -20.5t39 -20.5q15 0 25 9.5t10 26.5h45q0 -38 -22 -60t-55 -22q-28 0 -52 20.5t-39 20.5t-25 -9.5t-10 -26.5h-45zM209 462v58h118v-58h-25v-462h-57l-125 344h-2v-286h25v-58h-118v58h25v404h-25v58h82l124 -344h3v286h-25z" />
<glyph horiz-adv-x="352" d="M209 462v58h118v-58h-25v-589q0 -47 -31 -75t-78 -28q-49 0 -81 28t-32 75v55h71v-55q0 -20 12 -32t30 -12q17 0 29 12t12 32v154l-114 317h-2v-286h25v-58h-118v58h25v404h-25v58h82l124 -344h3v286h-25z" />
<glyph d="M162 525q54 0 90 -31t36 -85v-299q0 -54 -36 -84.5t-90 -30.5t-89.5 30.5t-35.5 84.5v299q0 54 35.5 85t89.5 31zM108 409v-299q0 -26 15.5 -41t38.5 -15t39 15t16 41v299q0 26 -16 41.5t-39 15.5t-38.5 -15.5t-15.5 -41.5z" />
<glyph d="M118 558l-42 42l130 110l42 -41zM162 525q54 0 90 -31t36 -85v-299q0 -54 -36 -84.5t-90 -30.5t-89.5 30.5t-35.5 84.5v299q0 54 35.5 85t89.5 31zM108 409v-299q0 -26 15.5 -41t38.5 -15t39 15t16 41v299q0 26 -16 41.5t-39 15.5t-38.5 -15.5t-15.5 -41.5z" />
<glyph d="M64 652h50q0 -24 14 -37.5t34 -13.5q21 0 35.5 13.5t14.5 37.5h49q0 -44 -28 -69.5t-71 -25.5t-70.5 25.5t-27.5 69.5zM162 525q54 0 90 -31t36 -85v-299q0 -54 -36 -84.5t-90 -30.5t-89.5 30.5t-35.5 84.5v299q0 54 35.5 85t89.5 31zM108 409v-299q0 -26 15.5 -41 t38.5 -15t39 15t16 41v299q0 26 -16 41.5t-39 15.5t-38.5 -15.5t-15.5 -41.5z" />
<glyph d="M162 525q54 0 90 -31t36 -85v-299q0 -54 -36 -84.5t-90 -30.5t-89.5 30.5t-35.5 84.5v299q0 54 35.5 85t89.5 31zM108 409v-299q0 -26 15.5 -41t38.5 -15t39 15t16 41v299q0 26 -16 41.5t-39 15.5t-38.5 -15.5t-15.5 -41.5zM79 561l-41 41l125 100l125 -100l-41 -41 l-84 68z" />
<glyph d="M162 525q54 0 90 -31t36 -85v-299q0 -54 -36 -84.5t-90 -30.5t-89.5 30.5t-35.5 84.5v299q0 54 35.5 85t89.5 31zM108 409v-299q0 -26 15.5 -41t38.5 -15t39 15t16 41v299q0 26 -16 41.5t-39 15.5t-38.5 -15.5t-15.5 -41.5zM60 587v101h60v-101h-60zM205 587v101h61v-101 h-61z" />
<glyph d="M207 558l-131 110l42 42l130 -110zM162 525q54 0 90 -31t36 -85v-299q0 -54 -36 -84.5t-90 -30.5t-89.5 30.5t-35.5 84.5v299q0 54 35.5 85t89.5 31zM108 409v-299q0 -26 15.5 -41t38.5 -15t39 15t16 41v299q0 26 -16 41.5t-39 15.5t-38.5 -15.5t-15.5 -41.5z" />
<glyph d="M162 525q54 0 90 -31t36 -85v-299q0 -54 -36 -84.5t-90 -30.5t-89.5 30.5t-35.5 84.5v299q0 54 35.5 85t89.5 31zM108 409v-299q0 -26 15.5 -41t38.5 -15t39 15t16 41v299q0 26 -16 41.5t-39 15.5t-38.5 -15.5t-15.5 -41.5zM53 553l-42 42l120 120l42 -42zM193 553 l-41 42l119 120l42 -42z" />
<glyph d="M162 525q54 0 90 -31t36 -85v-299q0 -54 -36 -84.5t-90 -30.5t-89.5 30.5t-35.5 84.5v299q0 54 35.5 85t89.5 31zM108 409v-299q0 -26 15.5 -41t38.5 -15t39 15t16 41v299q0 26 -16 41.5t-39 15.5t-38.5 -15.5t-15.5 -41.5zM63 597v58h198v-58h-198z" />
<glyph d="M30 0l22 51q-15 24 -15 59v299q0 54 35.5 85t89.5 31q49 0 83 -26l9 21h41l-22 -52q15 -27 15 -59v-299q0 -54 -36 -84.5t-90 -30.5q-51 0 -83 25l-8 -20h-41zM162 54q23 0 39 15t16 41v229l-107 -248q11 -37 52 -37zM108 409v-228l106 247q-11 38 -52 38 q-23 0 -38.5 -15.5t-15.5 -41.5z" />
<glyph d="M30 0l22 51q-15 24 -15 59v299q0 54 35.5 85t89.5 31q49 0 83 -26l9 21h41l-22 -52q15 -27 15 -59v-299q0 -54 -36 -84.5t-90 -30.5q-51 0 -83 25l-8 -20h-41zM162 54q23 0 39 15t16 41v229l-107 -248q11 -37 52 -37zM108 409v-228l106 247q-11 38 -52 38 q-23 0 -38.5 -15.5t-15.5 -41.5zM118 558l-42 42l130 110l42 -41z" />
<glyph d="M38 568q0 38 22 60t56 22q28 0 51 -20.5t39 -20.5q15 0 25 9.5t10 26.5h45q0 -38 -22 -60t-55 -22q-28 0 -52 20.5t-39 20.5q-14 0 -24.5 -9.5t-10.5 -26.5h-45zM162 525q54 0 90 -31t36 -85v-299q0 -54 -36 -84.5t-90 -30.5t-89.5 30.5t-35.5 84.5v299q0 54 35.5 85 t89.5 31zM108 409v-299q0 -26 15.5 -41t38.5 -15t39 15t16 41v299q0 26 -16 41.5t-39 15.5t-38.5 -15.5t-15.5 -41.5z" />
<glyph horiz-adv-x="460" d="M364 357v105h-86v-164h112v-58h-112v-182h86v105h61v-163h-218v13q-29 -18 -61 -18q-45 0 -74.5 30.5t-29.5 84.5v299q0 54 30 85t74 31q32 0 61 -19v14h218v-163h-61zM167 54q23 0 40 15v381q-18 16 -40 16q-23 0 -38.5 -15.5t-15.5 -41.5v-299q0 -26 15.5 -41t38.5 -15 z" />
<glyph horiz-adv-x="333" d="M25 462v58h145q54 0 89.5 -31t35.5 -85v-97q0 -54 -35.5 -84.5t-89.5 -30.5h-49v-134h24v-58h-120v58h25v404h-25zM121 250h49q23 0 38.5 15.5t15.5 41.5v97q0 27 -15.5 42.5t-38.5 15.5h-49v-212z" />
<glyph d="M126 -15v16q-40 9 -64.5 37t-24.5 72v299q0 54 35.5 85t89.5 31t90 -31t36 -85v-299q0 -44 -25 -72.5t-66 -36.5v-16q0 -26 15.5 -41t38.5 -15h37v-59h-37q-54 0 -89.5 30.5t-35.5 84.5zM108 409v-299q0 -26 15.5 -41t38.5 -15t39 15t16 41v299q0 26 -16 41.5t-39 15.5 t-38.5 -15.5t-15.5 -41.5z" />
<glyph horiz-adv-x="338" d="M25 462v58h145q54 0 89.5 -31t35.5 -85v-80q0 -75 -67 -99l65 -167h27v-58h-82l-69 210h-48v-152h24v-58h-120v58h25v404h-25zM121 268h49q23 0 38.5 15t15.5 41v80q0 27 -15.5 42.5t-38.5 15.5h-49v-194z" />
<glyph horiz-adv-x="338" d="M125 558l-42 42l130 110l42 -41zM25 462v58h145q54 0 89.5 -31t35.5 -85v-80q0 -75 -67 -99l65 -167h27v-58h-82l-69 210h-48v-152h24v-58h-120v58h25v404h-25zM121 268h49q23 0 38.5 15t15.5 41v80q0 27 -15.5 42.5t-38.5 15.5h-49v-194z" />
<glyph horiz-adv-x="338" d="M170 560l-125 101l41 41l84 -69l84 69l41 -41zM25 462v58h145q54 0 89.5 -31t35.5 -85v-80q0 -75 -67 -99l65 -167h27v-58h-82l-69 210h-48v-152h24v-58h-120v58h25v404h-25zM121 268h49q23 0 38.5 15t15.5 41v80q0 27 -15.5 42.5t-38.5 15.5h-49v-194z" />
<glyph horiz-adv-x="338" d="M25 462v58h145q54 0 89.5 -31t35.5 -85v-80q0 -75 -67 -99l65 -167h27v-58h-82l-69 210h-48v-152h24v-58h-120v58h25v404h-25zM121 268h49q23 0 38.5 15t15.5 41v80q0 27 -15.5 42.5t-38.5 15.5h-49v-194zM196 -105q0 -44 -27 -103h-51q20 60 20 103v75h58v-75z" />
<glyph horiz-adv-x="320" d="M37 31v132h71v-94q20 -15 52 -15q22 0 37 14.5t15 39.5v73q0 22 -18 36t-43.5 22t-51 19t-43.5 34.5t-18 59.5v61q0 52 34.5 82t86.5 30q33 0 63 -9t44 -18l13 -9v-132h-71v94q-20 15 -49 15q-22 0 -36 -14t-14 -39v-61q0 -22 18 -36t43.5 -22t51 -19t43.5 -34.5 t18 -59.5v-73q0 -53 -35 -83t-88 -30q-34 0 -65 9t-45 18z" />
<glyph horiz-adv-x="320" d="M116 558l-42 42l130 110l42 -41zM37 31v132h71v-94q20 -15 52 -15q22 0 37 14.5t15 39.5v73q0 22 -18 36t-43.5 22t-51 19t-43.5 34.5t-18 59.5v61q0 52 34.5 82t86.5 30q33 0 63 -9t44 -18l13 -9v-132h-71v94q-20 15 -49 15q-22 0 -36 -14t-14 -39v-61q0 -22 18 -36 t43.5 -22t51 -19t43.5 -34.5t18 -59.5v-73q0 -53 -35 -83t-88 -30q-34 0 -65 9t-45 18z" />
<glyph horiz-adv-x="320" d="M160 560l-125 101l41 41l84 -69l84 69l41 -41zM37 31v132h71v-94q20 -15 52 -15q22 0 37 14.5t15 39.5v73q0 22 -18 36t-43.5 22t-51 19t-43.5 34.5t-18 59.5v61q0 52 34.5 82t86.5 30q33 0 63 -9t44 -18l13 -9v-132h-71v94q-20 15 -49 15q-22 0 -36 -14t-14 -39v-61 q0 -22 18 -36t43.5 -22t51 -19t43.5 -34.5t18 -59.5v-73q0 -53 -35 -83t-88 -30q-34 0 -65 9t-45 18z" />
<glyph horiz-adv-x="320" d="M134 -138v135q-28 3 -52 11.5t-34 15.5l-11 7v132h71v-94q20 -15 52 -15q22 0 37 14.5t15 39.5v73q0 22 -18 36t-43.5 22t-51 19t-43.5 34.5t-18 59.5v61q0 52 34.5 82t86.5 30q33 0 63 -9t44 -18l13 -9v-132h-71v94q-20 15 -49 15q-22 0 -36 -14t-14 -39v-61 q0 -22 18 -36t43.5 -22t51 -19t43.5 -34.5t18 -59.5v-73q0 -46 -27 -75t-69 -36v-135h-53z" />
<glyph horiz-adv-x="320" d="M37 31v132h71v-94q20 -15 52 -15q22 0 37 14.5t15 39.5v73q0 22 -18 36t-43.5 22t-51 19t-43.5 34.5t-18 59.5v61q0 52 34.5 82t86.5 30q33 0 63 -9t44 -18l13 -9v-132h-71v94q-20 15 -49 15q-22 0 -36 -14t-14 -39v-61q0 -22 18 -36t43.5 -22t51 -19t43.5 -34.5 t18 -59.5v-73q0 -53 -35 -83t-88 -30q-34 0 -65 9t-45 18zM76 561l-41 41l125 100l125 -100l-41 -41l-84 68z" />
<glyph horiz-adv-x="320" d="M37 31v132h71v-94q20 -15 52 -15q22 0 37 14.5t15 39.5v73q0 22 -18 36t-43.5 22t-51 19t-43.5 34.5t-18 59.5v61q0 52 34.5 82t86.5 30q33 0 63 -9t44 -18l13 -9v-132h-71v94q-20 15 -49 15q-22 0 -36 -14t-14 -39v-61q0 -22 18 -36t43.5 -22t51 -19t43.5 -34.5 t18 -59.5v-73q0 -53 -35 -83t-88 -30q-34 0 -65 9t-45 18zM187 -105q0 -44 -27 -103h-51q20 60 20 103v75h58v-75z" />
<glyph horiz-adv-x="356" d="M118 0v58h25v404h-60v-105h-61v163h312v-163h-61v105h-59v-404h24v-58h-120z" />
<glyph horiz-adv-x="356" d="M118 0v58h25v171h-93v59h93v174h-60v-105h-61v163h312v-163h-61v105h-59v-174h92v-59h-92v-171h24v-58h-120z" />
<glyph horiz-adv-x="356" d="M178 560l-125 101l41 41l84 -69l84 69l41 -41zM118 0v58h25v404h-60v-105h-61v163h312v-163h-61v105h-59v-404h24v-58h-120z" />
<glyph horiz-adv-x="356" d="M118 0v58h25v404h-60v-105h-61v163h312v-163h-61v105h-59v-404h24v-58h-120zM207 -105q0 -44 -27 -103h-51q20 60 20 103v75h58v-75z" />
<glyph horiz-adv-x="356" d="M118 0v58h25v404h-60v-105h-61v163h312v-163h-61v105h-59v-404h24v-58h-120zM208 -105q0 -44 -27 -103h-51q20 60 20 103v75h58v-75z" />
<glyph horiz-adv-x="335" d="M197 462v58h120v-58h-24v-352q0 -54 -36 -84.5t-90 -30.5t-89.5 30.5t-35.5 84.5v352h-24v58h95v-410q0 -26 15.5 -41t38.5 -15t39 15t16 41v352h-25z" />
<glyph horiz-adv-x="335" d="M123 558l-42 42l130 110l42 -41zM197 462v58h120v-58h-24v-352q0 -54 -36 -84.5t-90 -30.5t-89.5 30.5t-35.5 84.5v352h-24v58h95v-410q0 -26 15.5 -41t38.5 -15t39 15t16 41v352h-25z" />
<glyph horiz-adv-x="335" d="M69 652h50q0 -24 14 -37.5t34 -13.5q21 0 35.5 13.5t14.5 37.5h49q0 -44 -28 -69.5t-71 -25.5t-70.5 25.5t-27.5 69.5zM197 462v58h120v-58h-24v-352q0 -54 -36 -84.5t-90 -30.5t-89.5 30.5t-35.5 84.5v352h-24v58h95v-410q0 -26 15.5 -41t38.5 -15t39 15t16 41v352h-25z " />
<glyph horiz-adv-x="335" d="M197 462v58h120v-58h-24v-352q0 -54 -36 -84.5t-90 -30.5t-89.5 30.5t-35.5 84.5v352h-24v58h95v-410q0 -26 15.5 -41t38.5 -15t39 15t16 41v352h-25zM84 561l-41 41l125 100l125 -100l-41 -41l-84 68z" />
<glyph horiz-adv-x="335" d="M197 462v58h120v-58h-24v-352q0 -54 -36 -84.5t-90 -30.5t-89.5 30.5t-35.5 84.5v352h-24v58h95v-410q0 -26 15.5 -41t38.5 -15t39 15t16 41v352h-25zM65 587v101h60v-101h-60zM210 587v101h61v-101h-61z" />
<glyph horiz-adv-x="335" d="M212 558l-131 110l42 42l130 -110zM197 462v58h120v-58h-24v-352q0 -54 -36 -84.5t-90 -30.5t-89.5 30.5t-35.5 84.5v352h-24v58h95v-410q0 -26 15.5 -41t38.5 -15t39 15t16 41v352h-25z" />
<glyph horiz-adv-x="335" d="M197 462v58h120v-58h-24v-352q0 -54 -36 -84.5t-90 -30.5t-89.5 30.5t-35.5 84.5v352h-24v58h95v-410q0 -26 15.5 -41t38.5 -15t39 15t16 41v352h-25zM58 553l-42 42l120 120l42 -42zM198 553l-41 42l119 120l42 -42z" />
<glyph horiz-adv-x="335" d="M197 462v58h120v-58h-24v-352q0 -54 -36 -84.5t-90 -30.5t-89.5 30.5t-35.5 84.5v352h-24v58h95v-410q0 -26 15.5 -41t38.5 -15t39 15t16 41v352h-25zM68 597v58h198v-58h-198z" />
<glyph horiz-adv-x="335" d="M154 -30v26q-49 3 -80.5 33t-31.5 81v352h-24v58h95v-410q0 -26 15.5 -41t38.5 -15t39 15t16 41v352h-25v58h120v-58h-24v-352q0 -44 -24.5 -73t-64.5 -38v-29q0 -25 14 -41.5t38 -16.5v-42q-47 0 -74.5 28.5t-27.5 71.5z" />
<glyph horiz-adv-x="335" d="M167 715q37 0 61.5 -23t24.5 -62q0 -40 -24.5 -62.5t-61.5 -22.5t-61 22.5t-24 62.5q0 39 24 62t61 23zM128 630q0 -20 11.5 -31.5t27.5 -11.5q17 0 28.5 11.5t11.5 31.5t-11.5 32t-28.5 12q-16 0 -27.5 -12t-11.5 -32zM197 462v58h120v-58h-24v-352q0 -54 -36 -84.5 t-90 -30.5t-89.5 30.5t-35.5 84.5v352h-24v58h95v-410q0 -26 15.5 -41t38.5 -15t39 15t16 41v352h-25z" />
<glyph horiz-adv-x="335" d="M43 568q0 38 22 60t56 22q28 0 51 -20.5t39 -20.5q15 0 25 9.5t10 26.5h45q0 -38 -22 -60t-55 -22q-28 0 -52 20.5t-39 20.5t-25 -9.5t-10 -26.5h-45zM197 462v58h120v-58h-24v-352q0 -54 -36 -84.5t-90 -30.5t-89.5 30.5t-35.5 84.5v352h-24v58h95v-410q0 -26 15.5 -41 t38.5 -15t39 15t16 41v352h-25z" />
<glyph horiz-adv-x="330" d="M207 462v58h119v-58h-26l-88 -462h-94l-89 462h-26v58h90l71 -458h2l65 400h-24z" />
<glyph horiz-adv-x="527" d="M403 462v58h120v-58h-27l-82 -462h-92l-58 450h-2l-57 -450h-93l-83 462h-26v58h90l64 -457h2l59 457h90l59 -457h2l58 399h-24z" />
<glyph horiz-adv-x="527" d="M219 558l-42 42l130 110l42 -41zM403 462v58h120v-58h-27l-82 -462h-92l-58 450h-2l-57 -450h-93l-83 462h-26v58h90l64 -457h2l59 457h90l59 -457h2l58 399h-24z" />
<glyph horiz-adv-x="527" d="M403 462v58h120v-58h-27l-82 -462h-92l-58 450h-2l-57 -450h-93l-83 462h-26v58h90l64 -457h2l59 457h90l59 -457h2l58 399h-24zM179 561l-41 41l125 100l125 -100l-41 -41l-84 68z" />
<glyph horiz-adv-x="527" d="M403 462v58h120v-58h-27l-82 -462h-92l-58 450h-2l-57 -450h-93l-83 462h-26v58h90l64 -457h2l59 457h90l59 -457h2l58 399h-24zM161 587v101h60v-101h-60zM306 587v101h61v-101h-61z" />
<glyph horiz-adv-x="527" d="M308 558l-131 110l42 42l130 -110zM403 462v58h120v-58h-27l-82 -462h-92l-58 450h-2l-57 -450h-93l-83 462h-26v58h90l64 -457h2l59 457h90l59 -457h2l58 399h-24z" />
<glyph horiz-adv-x="335" d="M201 462v58h119v-58h-28l-78 -195l81 -209h28v-58h-83l-72 230h-2l-60 -172h24v-58h-119v58h28l82 209l-78 195h-29v58h85l67 -214h2l56 156h-23z" />
<glyph horiz-adv-x="330" d="M202 462v58h120v-58h-29l-93 -293v-111h25v-58h-121v58h25v111l-93 293h-29v58h85l72 -249h2l60 191h-24z" />
<glyph horiz-adv-x="330" d="M121 558l-42 42l130 110l42 -41zM202 462v58h120v-58h-29l-93 -293v-111h25v-58h-121v58h25v111l-93 293h-29v58h85l72 -249h2l60 191h-24z" />
<glyph horiz-adv-x="330" d="M202 462v58h120v-58h-29l-93 -293v-111h25v-58h-121v58h25v111l-93 293h-29v58h85l72 -249h2l60 191h-24zM81 561l-41 41l125 100l125 -100l-41 -41l-84 68z" />
<glyph horiz-adv-x="330" d="M202 462v58h120v-58h-29l-93 -293v-111h25v-58h-121v58h25v111l-93 293h-29v58h85l72 -249h2l60 191h-24zM62 587v101h60v-101h-60zM207 587v101h61v-101h-61z" />
<glyph horiz-adv-x="330" d="M210 558l-131 110l42 42l130 -110zM202 462v58h120v-58h-29l-93 -293v-111h25v-58h-121v58h25v111l-93 293h-29v58h85l72 -249h2l60 191h-24z" />
<glyph horiz-adv-x="320" d="M37 357v163h246v-35l-164 -427h105v105h59v-163h-246v35l166 427h-108v-105h-58z" />
<glyph horiz-adv-x="320" d="M115 558l-42 42l130 110l42 -41zM37 357v163h246v-35l-164 -427h105v105h59v-163h-246v35l166 427h-108v-105h-58z" />
<glyph horiz-adv-x="320" d="M161 560l-125 101l41 41l84 -69l84 69l41 -41zM37 357v163h246v-35l-164 -427h105v105h59v-163h-246v35l166 427h-108v-105h-58z" />
<glyph horiz-adv-x="320" d="M37 357v163h246v-35l-164 -427h105v105h59v-163h-246v35l166 427h-108v-105h-58zM125 599v101h71v-101h-71z" />
<glyph horiz-adv-x="320" d="M108 232v-124q0 -25 15 -39.5t38 -14.5q22 0 36.5 14.5t14.5 39.5v124h-104zM37 357v132q47 36 124 36q52 0 87 -30.5t35 -83.5v-303q0 -53 -35 -83t-87 -30q-53 0 -88.5 30t-35.5 83v182h175v121q0 25 -14.5 40t-36.5 15q-14 0 -27.5 -4t-19.5 -8l-6 -4v-93h-71z" />
<glyph horiz-adv-x="362" d="M18 0v58h24v347q0 56 37.5 88t93.5 32t94 -32t38 -88v-27q0 -19 -11.5 -32t-25 -18.5t-25 -16t-11.5 -25.5v-18q0 -16 27 -27.5t60 -19t60 -29t27 -55.5v-29q0 -53 -35 -83t-88 -30q-34 0 -64.5 9t-44.5 18l-14 9v119h71v-81q21 -15 52 -15q22 0 37 14.5t15 39.5v29 q0 16 -27 27.5t-60 19t-60 29t-27 55.5v29q0 19 11.5 31.5t24.5 18t24.5 16t11.5 25.5v17q0 28 -17.5 44.5t-42.5 16.5q-26 0 -43 -16.5t-17 -44.5v-405h-95z" />
<glyph d="M30 0l19 56q-12 22 -12 54v454q0 54 35.5 85t89.5 31q50 0 85 -27l7 22h41l-19 -58q12 -26 12 -53v-454q0 -54 -36 -84.5t-90 -30.5q-50 0 -84 26l-7 -21h-41zM162 54q23 0 39 15t16 41v330l-109 -329v-1q0 -26 15.5 -41t38.5 -15zM108 564v-329l109 328v1q0 26 -16 41.5 t-39 15.5t-38.5 -15.5t-15.5 -41.5z" />
<glyph d="M162 680q54 0 90 -31t36 -85v-454q0 -54 -36 -84.5t-90 -30.5t-89.5 30.5t-35.5 84.5v454q0 54 35.5 85t89.5 31zM108 564v-454q0 -26 15.5 -41t38.5 -15t39 15t16 41v454q0 26 -16 41.5t-39 15.5t-38.5 -15.5t-15.5 -41.5z" />
<glyph d="M30 0l19 56q-12 22 -12 54v454q0 54 35.5 85t89.5 31q50 0 85 -27l7 22h41l-19 -58q12 -26 12 -53v-454q0 -54 -36 -84.5t-90 -30.5q-50 0 -84 26l-7 -21h-41zM162 54q23 0 39 15t16 41v330l-109 -329v-1q0 -26 15.5 -41t38.5 -15zM108 564v-329l109 328v1q0 26 -16 41.5 t-39 15.5t-38.5 -15.5t-15.5 -41.5z" />
<glyph d="M32 0v58h96v550l-90 -55v67l90 55h71v-617h94v-58h-261z" />
<glyph d="M109 605v-113h-71v151q46 37 123 37q54 0 90 -31t36 -85v-151q0 -34 -13 -63.5t-33 -49.5t-42.5 -40.5t-42.5 -37.5t-33 -40t-13 -48v-76h177v-58h-248v134q0 34 13 63.5t33 49.5t42.5 40.5t42.5 37.5t33 40t13 48v151q0 26 -16 41.5t-39 15.5q-14 0 -27 -4t-19 -8z" />
<glyph d="M39 32v151h71v-113q20 -16 52 -16q23 0 38.5 15.5t15.5 41.5v155q0 26 -15.5 41t-38.5 15h-52v58h49q23 0 39 15.5t16 41.5v127q0 26 -16 41.5t-39 15.5q-14 0 -27 -4t-19 -8l-6 -4v-113h-71v151q46 37 123 37q54 0 90 -31t36 -85v-110q0 -75 -67 -102q69 -27 69 -104 v-137q0 -54 -35.5 -85t-89.5 -31q-34 0 -65 9.5t-45 18.5z" />
<glyph d="M181 0v58h27v74h-185v59l145 484h109v-484h27v-59h-27v-74h27v-58h-123zM89 191h119v408h-2z" />
<glyph d="M214 517v100h-106v-249q38 52 98 52q35 0 58.5 -22.5t23.5 -61.5v-226q0 -54 -36 -84.5t-90 -30.5q-35 0 -66 10.5t-45 20.5l-14 10v147h71v-109q21 -20 54 -20q23 0 39 15t16 41v208q0 20 -12 31.5t-29 11.5q-28 0 -48 -19t-20 -42h-71v375h238v-158h-61z" />
<glyph d="M215 492v113q-20 16 -52 16q-23 0 -39 -15.5t-16 -41.5v-206q38 52 98 52q35 0 58.5 -22.5t23.5 -61.5v-216q0 -54 -36 -84.5t-90 -30.5t-89.5 30.5t-35.5 84.5v454q0 54 36 85t90 31q34 0 65 -9t44 -19l14 -9v-151h-71zM108 280v-170q0 -26 15.5 -41t38.5 -15t39 15 t16 41v198q0 20 -12 31.5t-29 11.5q-29 0 -48.5 -19t-19.5 -52z" />
<glyph d="M30 517v158h265v-35l-146 -640h-73l143 617h-128v-100h-61z" />
<glyph d="M162 680q54 0 90 -31t36 -85v-119q0 -71 -61 -100q61 -31 61 -101v-134q0 -54 -36 -84.5t-90 -30.5t-89.5 30.5t-35.5 84.5v134q0 71 60 101q-60 28 -60 100v119q0 54 35.5 85t89.5 31zM108 564v-134q0 -26 15.5 -41.5t38.5 -15.5t39 15.5t16 41.5v134q0 26 -16 41.5 t-39 15.5t-38.5 -15.5t-15.5 -41.5zM108 258v-148q0 -26 15.5 -41t38.5 -15t39 15t16 41v148q0 26 -16 41.5t-39 15.5t-38.5 -15.5t-15.5 -41.5z" />
<glyph d="M37 34v149h71v-111q21 -18 53 -18q24 0 40 15.5t16 42.5v205q-37 -52 -98 -52q-35 0 -58.5 22.5t-23.5 61.5v216q0 54 36 84.5t90 30.5t89.5 -30.5t35.5 -84.5v-453q0 -54 -36.5 -85.5t-90.5 -31.5q-34 0 -65 9.5t-45 19.5zM217 394v171q0 26 -15.5 41t-38.5 15t-39 -15 t-16 -41v-198q0 -20 12 -32t29 -12q29 0 48.5 19.5t19.5 51.5z" />
<glyph d="M30 0l22 50q-15 24 -15 60v279q0 54 35.5 85t89.5 31q49 0 83 -26l9 21h41l-23 -51q16 -26 16 -60v-279q0 -54 -36 -84.5t-90 -30.5q-49 0 -82 24l-9 -19h-41zM108 389v-215l106 236q-13 36 -52 36q-23 0 -38.5 -15.5t-15.5 -41.5zM162 54q23 0 39 15t16 41v216 l-106 -237q11 -35 51 -35z" />
<glyph d="M162 505q54 0 90 -31t36 -85v-279q0 -54 -36 -84.5t-90 -30.5t-89.5 30.5t-35.5 84.5v279q0 54 35.5 85t89.5 31zM108 389v-279q0 -26 15.5 -41t38.5 -15t39 15t16 41v279q0 26 -16 41.5t-39 15.5t-38.5 -15.5t-15.5 -41.5z" />
<glyph d="M30 0l22 50q-15 24 -15 60v279q0 54 35.5 85t89.5 31q49 0 83 -26l9 21h41l-23 -51q16 -26 16 -60v-279q0 -54 -36 -84.5t-90 -30.5q-49 0 -82 24l-9 -19h-41zM108 389v-215l106 236q-13 36 -52 36q-23 0 -38.5 -15.5t-15.5 -41.5zM162 54q23 0 39 15t16 41v216 l-106 -237q11 -35 51 -35z" />
<glyph d="M32 0v58h96v375l-90 -55v67l90 55h71v-442h94v-58h-261z" />
<glyph d="M108 430v-93h-71v131q46 37 123 37q54 0 90 -31t36 -85v-68q0 -41 -18 -69.5t-44 -44.5t-52 -30t-44 -35t-18 -51v-33h176v-58h-247v91q0 41 18 69.5t44 44.5t52 30t44 35t18 51v68q0 26 -16 41.5t-39 15.5q-14 0 -27 -4t-19 -8z" />
<glyph d="M39 -130v130h71v-93q21 -16 53 -16q23 0 38.5 15.5t15.5 41.5v155q0 26 -15.5 41t-38.5 15h-52v59h49q23 0 39 15t16 41v115q0 26 -16 41.5t-39 15.5q-14 0 -27 -4t-19 -8l-6 -4v-93h-71v131q46 37 123 37q54 0 90 -31t36 -85v-97q0 -76 -67 -103q69 -27 69 -104v-137 q0 -53 -35.5 -84t-89.5 -31q-34 0 -65 9.5t-45 18.5z" />
<glyph d="M22 0v58l148 442h108v-442h25v-58h-25v-150h-68v150h-188zM88 58h122v366h-2z" />
<glyph d="M222 362v80h-114v-233q37 52 98 52q35 0 58.5 -22.5t23.5 -61.5v-230q0 -53 -36 -83.5t-90 -30.5q-35 0 -66 10.5t-45 20.5l-14 10v126h71v-89q21 -20 54 -20q23 0 39 15.5t16 40.5v212q0 20 -12 32t-29 12q-28 0 -48 -19t-20 -43h-71v359h246v-138h-61z" />
<glyph d="M215 512v93q-20 16 -52 16q-23 0 -39 -15.5t-16 -41.5v-206q38 52 98 52q35 0 58.5 -22.5t23.5 -61.5v-216q0 -54 -36 -84.5t-90 -30.5t-89.5 30.5t-35.5 84.5v454q0 54 36 85t90 31q34 0 65 -9t44 -19l14 -9v-131h-71zM108 280v-170q0 -26 15.5 -41t38.5 -15t39 15 t16 41v198q0 20 -12 31.5t-29 11.5q-29 0 -48.5 -19t-19.5 -52z" />
<glyph d="M30 362v138h265v-35l-148 -615h-73l145 592h-128v-80h-61z" />
<glyph d="M162 680q54 0 90 -31t36 -85v-119q0 -71 -61 -100q61 -31 61 -101v-134q0 -54 -36 -84.5t-90 -30.5t-89.5 30.5t-35.5 84.5v134q0 71 60 101q-60 28 -60 100v119q0 54 35.5 85t89.5 31zM108 564v-134q0 -26 15.5 -41.5t38.5 -15.5t39 15.5t16 41.5v134q0 26 -16 41.5 t-39 15.5t-38.5 -15.5t-15.5 -41.5zM108 258v-148q0 -26 15.5 -41t38.5 -15t39 15t16 41v148q0 26 -16 41.5t-39 15.5t-38.5 -15.5t-15.5 -41.5z" />
<glyph d="M108 0v-91q21 -18 53 -18q24 0 40 16t16 42v193q-37 -52 -98 -52q-35 0 -58.5 22.5t-23.5 61.5v216q0 54 36 84.5t90 30.5t89.5 -30.5t35.5 -84.5v-441q0 -54 -36 -85t-91 -31q-34 0 -65 9.5t-45 19.5l-14 10v128h71zM217 219v171q0 26 -15.5 41t-38.5 15t-39 -15 t-16 -41v-198q0 -20 12 -32t29 -12q29 0 48.5 19.5t19.5 51.5z" />
<glyph horiz-adv-x="164" d="M82 700q24 0 40.5 -13.5t16.5 -37.5v-200q0 -24 -16 -37.5t-41 -13.5t-41 13t-16 38v200q0 24 16 37.5t41 13.5zM63 649v-200q0 -21 19 -21q8 0 13.5 6t5.5 15v200q0 9 -5.5 14.5t-13.5 5.5q-19 0 -19 -20z" />
<glyph horiz-adv-x="160" d="M23 400v30h38v232l-38 -23v35l38 24h38v-268h37v-30h-113z" />
<glyph horiz-adv-x="162" d="M62 663v-47h-38v68q21 16 56 16q25 0 41 -13.5t16 -37.5v-68q0 -26 -18.5 -47t-37 -38t-18.5 -34v-32h74v-30h-112v62q0 21 11.5 39t25.5 28.5t25.5 24t11.5 27.5v68q0 20 -19 20q-5 0 -9.5 -1.5t-6.5 -3.5z" />
<glyph horiz-adv-x="162" d="M25 414v68h38v-48q8 -6 18 -6q20 0 20 21v70q0 9 -6 14.5t-14 5.5h-23v31h22q19 0 19 20v59q0 20 -19 20q-5 0 -9.5 -1.5t-6.5 -3.5l-2 -1v-47h-38v68q21 16 56 16q25 0 41 -13.5t16 -37.5v-50q0 -32 -28 -44q30 -13 30 -46v-60q0 -24 -16.5 -37.5t-41.5 -13.5 q-15 0 -29 4t-20 8z" />
<glyph horiz-adv-x="163" d="M87 400v30h10v27h-78v31l57 210h58v-210h10v-31h-10v-27h10v-30h-57zM54 488h43v170h-1z" />
<glyph horiz-adv-x="164" d="M100 626v41h-37v-103q16 22 41 22q15 0 25 -10t10 -26v-101q0 -24 -16 -37.5t-41 -13.5q-16 0 -30 4t-20 8l-7 5v67h38v-47q7 -7 19 -7q8 0 13.5 6t5.5 15v90q0 16 -15 16q-9 0 -16 -7t-7 -16h-38v166h107v-72h-32z" />
<glyph horiz-adv-x="163" d="M100 663q-7 6 -18 6q-8 0 -13.5 -5.5t-5.5 -14.5v-88q16 21 41 21q15 0 25 -9.5t10 -26.5v-97q0 -24 -16 -37.5t-41 -13.5t-41 13t-16 38v200q0 24 16.5 37.5t40.5 13.5q15 0 29 -4t21 -8l6 -4v-68h-38v47zM63 525v-76q0 -21 19 -21q8 0 13.5 6t5.5 15v86q0 16 -15 16 q-9 0 -16 -7t-7 -19z" />
<glyph horiz-adv-x="158" d="M21 626v72h115v-18l-57 -280h-39l55 267h-41v-41h-33z" />
<glyph horiz-adv-x="164" d="M82 700q24 0 40.5 -13.5t16.5 -37.5v-53q0 -30 -27 -43q27 -15 27 -44v-60q0 -24 -16 -37.5t-41 -13.5t-41 13t-16 38v60q0 29 26 44q-26 13 -26 43v53q0 24 16 37.5t41 13.5zM63 649v-62q0 -20 19 -20q8 0 13.5 5.5t5.5 14.5v62q0 9 -5.5 14.5t-13.5 5.5q-19 0 -19 -20z M63 516v-67q0 -21 19 -21q8 0 13.5 6t5.5 15v67q0 9 -5.5 15t-13.5 6q-19 0 -19 -21z" />
<glyph horiz-adv-x="164" d="M101 572v77q0 20 -19 20t-19 -20v-86q0 -16 14 -16q10 0 17 6.5t7 18.5zM25 414v65h38v-44q7 -7 19 -7q8 0 13.5 6t5.5 15v88q-17 -22 -41 -22q-15 0 -25 10t-10 27v97q0 24 16.5 37.5t40.5 13.5q25 0 41 -13.5t16 -37.5v-200q0 -24 -16.5 -37.5t-40.5 -13.5 q-16 0 -30.5 4t-20.5 8z" />
<glyph horiz-adv-x="89" d="M45 346h-31q12 28 12 54v48h37v-48q0 -12 -4.5 -25.5t-8.5 -20.5z" />
<glyph horiz-adv-x="89" d="M26 400v48h37v-48h-37z" />
<glyph horiz-adv-x="105" d="M82 702q-19 0 -19 -20v-278q0 -20 19 -20h4v-31h-4q-25 0 -41 13.5t-16 37.5v278q0 24 16 37.5t41 13.5h4v-31h-4z" />
<glyph horiz-adv-x="105" d="M23 384q19 0 19 21v277q0 20 -19 20h-4v31h4q24 0 40.5 -13.5t16.5 -37.5v-277q0 -24 -16.5 -38t-40.5 -14h-4v31h4z" />
<glyph horiz-adv-x="116" d="M21 507v31h74v-31h-74z" />
<glyph horiz-adv-x="163" d="M21 400l8 25q-5 10 -5 24v200q0 24 16 37.5t41 13.5q19 0 36 -10l3 8h22l-9 -27q5 -10 5 -22v-200q0 -25 -16 -38t-41 -13q-22 0 -37 9l-2 -7h-21zM62 649v-126l38 114v12q0 20 -19 20q-8 0 -13.5 -5.5t-5.5 -14.5zM81 428q19 0 19 21v124l-38 -114v-10q0 -9 5.5 -15 t13.5 -6z" />
<glyph horiz-adv-x="164" d="M82 250q24 0 40.5 -13.5t16.5 -37.5v-200q0 -24 -16 -37.5t-41 -13.5t-41 13t-16 38v200q0 24 16 37.5t41 13.5zM63 199v-200q0 -21 19 -21q8 0 13.5 6t5.5 15v200q0 9 -5.5 14.5t-13.5 5.5q-19 0 -19 -20z" />
<glyph horiz-adv-x="160" d="M23 -50v30h38v232l-38 -23v35l38 24h38v-268h37v-30h-113z" />
<glyph horiz-adv-x="162" d="M62 213v-47h-38v68q21 16 56 16q25 0 41 -13.5t16 -37.5v-68q0 -26 -18.5 -47t-37 -38t-18.5 -34v-32h74v-30h-112v62q0 21 11.5 39t25.5 28.5t25.5 24t11.5 27.5v68q0 20 -19 20q-5 0 -9.5 -1.5t-6.5 -3.5z" />
<glyph horiz-adv-x="162" d="M25 -36v68h38v-48q8 -6 18 -6q20 0 20 21v70q0 9 -6 14.5t-14 5.5h-23v31h22q19 0 19 20v59q0 20 -19 20q-5 0 -9.5 -1.5t-6.5 -3.5l-2 -1v-47h-38v68q21 16 56 16q25 0 41 -13.5t16 -37.5v-50q0 -32 -28 -44q30 -13 30 -46v-60q0 -24 -16.5 -37.5t-41.5 -13.5 q-15 0 -29 4t-20 8z" />
<glyph horiz-adv-x="163" d="M87 -50v30h10v27h-78v31l57 210h58v-210h10v-31h-10v-27h10v-30h-57zM54 38h43v170h-1z" />
<glyph horiz-adv-x="164" d="M100 176v41h-37v-103q16 22 41 22q15 0 25 -10t10 -26v-101q0 -24 -16 -37.5t-41 -13.5q-16 0 -30 4t-20 8l-7 5v67h38v-47q7 -7 19 -7q8 0 13.5 6t5.5 15v90q0 16 -15 16q-9 0 -16 -7t-7 -16h-38v166h107v-72h-32z" />
<glyph horiz-adv-x="163" d="M100 213q-7 6 -18 6q-8 0 -13.5 -5.5t-5.5 -14.5v-88q16 21 41 21q15 0 25 -9.5t10 -26.5v-97q0 -24 -16 -37.5t-41 -13.5t-41 13t-16 38v200q0 24 16.5 37.5t40.5 13.5q15 0 29 -4t21 -8l6 -4v-68h-38v47zM63 75v-76q0 -21 19 -21q8 0 13.5 6t5.5 15v86q0 16 -15 16 q-9 0 -16 -7t-7 -19z" />
<glyph horiz-adv-x="158" d="M21 176v72h115v-18l-57 -280h-39l55 267h-41v-41h-33z" />
<glyph horiz-adv-x="164" d="M82 250q24 0 40.5 -13.5t16.5 -37.5v-53q0 -30 -27 -43q27 -15 27 -44v-60q0 -24 -16 -37.5t-41 -13.5t-41 13t-16 38v60q0 29 26 44q-26 13 -26 43v53q0 24 16 37.5t41 13.5zM63 199v-62q0 -20 19 -20q8 0 13.5 5.5t5.5 14.5v62q0 9 -5.5 14.5t-13.5 5.5q-19 0 -19 -20z M63 66v-67q0 -21 19 -21q8 0 13.5 6t5.5 15v67q0 9 -5.5 15t-13.5 6q-19 0 -19 -21z" />
<glyph horiz-adv-x="164" d="M101 122v77q0 20 -19 20t-19 -20v-86q0 -16 14 -16q10 0 17 6.5t7 18.5zM25 -36v65h38v-44q7 -7 19 -7q8 0 13.5 6t5.5 15v88q-17 -22 -41 -22q-15 0 -25 10t-10 27v97q0 24 16.5 37.5t40.5 13.5q25 0 41 -13.5t16 -37.5v-200q0 -24 -16.5 -37.5t-40.5 -13.5q-16 0 -30 4 t-20 8z" />
<glyph horiz-adv-x="89" d="M45 -104h-31q12 28 12 54v48h37v-48q0 -12 -4.5 -25.5t-8.5 -20.5z" />
<glyph horiz-adv-x="89" d="M26 -50v48h37v-48h-37z" />
<glyph horiz-adv-x="105" d="M82 252q-19 0 -19 -20v-278q0 -20 19 -20h4v-31h-4q-25 0 -41 13.5t-16 37.5v278q0 24 16 37.5t41 13.5h4v-31h-4z" />
<glyph horiz-adv-x="105" d="M23 -66q19 0 19 21v277q0 20 -19 20h-4v31h4q24 0 40.5 -13.5t16.5 -37.5v-277q0 -24 -16.5 -38t-40.5 -14h-4v31h4z" />
<glyph horiz-adv-x="116" d="M21 57v31h74v-31h-74z" />
<glyph horiz-adv-x="163" d="M21 -50l8 25q-5 12 -5 24v200q0 24 16 37.5t41 13.5q19 0 36 -10l3 8h22l-9 -27q5 -10 5 -22v-200q0 -25 -16 -38t-41 -13q-23 0 -37 10l-2 -8h-21zM62 199v-126l38 114v12q0 20 -19 20q-8 0 -13.5 -5.5t-5.5 -14.5zM81 -22q19 0 19 21v124l-38 -114v-10q0 -9 5.5 -15 t13.5 -6z" />
<glyph d="M162 525q54 0 90 -31t36 -85v-299q0 -54 -36 -84.5t-90 -30.5t-89.5 30.5t-35.5 84.5v299q0 54 35.5 85t89.5 31zM108 409v-299q0 -26 15.5 -41t38.5 -15t39 15t16 41v299q0 26 -16 41.5t-39 15.5t-38.5 -15.5t-15.5 -41.5z" />
<glyph d="M30 0l22 51q-15 24 -15 59v299q0 54 35.5 85t89.5 31q49 0 83 -26l9 21h41l-22 -52q15 -27 15 -59v-299q0 -54 -36 -84.5t-90 -30.5q-51 0 -83 25l-8 -20h-41zM162 54q23 0 39 15t16 41v229l-107 -248q11 -37 52 -37zM108 409v-228l106 247q-11 38 -52 38 q-23 0 -38.5 -15.5t-15.5 -41.5z" />
<glyph horiz-adv-x="312" d="M32 0v58h90v395l-91 -55v67l91 55h71v-462h86v-58h-247z" />
<glyph horiz-adv-x="321" d="M106 450v-93h-71v131q46 37 123 37q54 0 90 -31t36 -85v-78q0 -41 -18 -69.5t-43.5 -44.5t-51.5 -30t-44 -35t-18 -51v-43h175v-58h-246v101q0 41 18 69.5t43.5 44.5t51.5 30t44 35t18 51v78q0 26 -16 41.5t-39 15.5q-14 0 -27 -4t-19 -8z" />
<glyph horiz-adv-x="321" d="M37 32v131h71v-93q21 -16 53 -16q23 0 38.5 15.5t15.5 41.5v70q0 26 -15.5 41t-38.5 15h-52v58h49q23 0 39 15.5t16 41.5v57q0 26 -16 41.5t-39 15.5q-14 0 -27 -4t-19 -8l-6 -4v-93h-71v131q46 37 123 37q54 0 90 -31t36 -85v-40q0 -75 -67 -102q69 -27 69 -104v-52 q0 -54 -35.5 -85t-89.5 -31q-34 0 -65 9.5t-45 18.5z" />
<glyph horiz-adv-x="321" d="M180 0v58h25v52h-183v58l143 352h108v-352h25v-58h-25v-52h25v-58h-118zM88 168h117v276h-2z" />
<glyph d="M222 395v67h-114v-169q38 52 98 52q35 0 58.5 -22.5t23.5 -61.5v-151q0 -54 -36 -84.5t-90 -30.5q-35 0 -66 10.5t-45 20.5l-14 10v127h71v-89q21 -20 54 -20q23 0 39 15t16 41v133q0 20 -12 31.5t-29 11.5q-28 0 -48 -19t-20 -42h-71v295h246v-125h-61z" />
<glyph d="M215 357v93q-20 16 -52 16q-23 0 -39 -15.5t-16 -41.5v-146q38 52 98 52q35 0 58.5 -22.5t23.5 -61.5v-121q0 -54 -36 -84.5t-90 -30.5t-89.5 30.5t-35.5 84.5v299q0 54 36 85t90 31q34 0 65 -9.5t44 -18.5l14 -9v-131h-71zM108 185v-75q0 -26 15.5 -41t38.5 -15t39 15 t16 41v103q0 20 -12 31.5t-29 11.5q-29 0 -48.5 -19t-19.5 -52z" />
<glyph horiz-adv-x="305" d="M30 395v125h245v-35l-131 -485h-70l125 462h-108v-67h-61z" />
<glyph d="M162 525q54 0 90 -31t36 -85v-41q0 -70 -61 -101q61 -31 61 -100v-57q0 -54 -36 -84.5t-90 -30.5t-89.5 30.5t-35.5 84.5v57q0 70 60 100q-60 30 -60 101v41q0 54 35.5 85t89.5 31zM108 409v-57q0 -26 15.5 -41t38.5 -15t39 15.5t16 40.5v57q0 26 -16 41.5t-39 15.5 t-38.5 -15.5t-15.5 -41.5zM108 180v-70q0 -26 15.5 -41t38.5 -15t39 15t16 41v70q0 26 -16 42t-39 16t-38.5 -16t-15.5 -42z" />
<glyph d="M217 334v76q0 26 -15.5 41t-38.5 15t-39 -15t-16 -41v-103q0 -20 12 -32t29 -12q29 0 48.5 19.5t19.5 51.5zM37 35v128h71v-91q21 -18 53 -18q24 0 40 15.5t16 42.5v145q-37 -52 -98 -52q-35 0 -58.5 22.5t-23.5 61.5v121q0 54 36 84.5t90 30.5t89.5 -30.5t35.5 -84.5 v-298q0 -54 -36.5 -85.5t-90.5 -31.5q-34 0 -65 10t-45 20z" />
<glyph horiz-adv-x="345" d="M237 380v70q-21 16 -53 16q-22 0 -36.5 -15t-14.5 -40v-71h175v-53h-175v-52h175v-53h-175v-74q0 -25 14.5 -39.5t36.5 -14.5q23 0 38 14.5t15 39.5v32h71v-32q0 -53 -35.5 -83t-88.5 -30q-52 0 -87 30t-35 83v74h-37v53h37v52h-37v53h37v71q0 53 35 83.5t87 30.5 q34 0 65 -9.5t45 -18.5l14 -9v-108h-71z" />
<glyph horiz-adv-x="345" d="M237 357v93q-21 16 -53 16q-22 0 -36.5 -15t-14.5 -40v-146h175v-58h-175v-149h175v-58h-283v58h37v149h-37v58h37v146q0 53 35 83.5t87 30.5q34 0 65 -9.5t45 -18.5l14 -9v-131h-71z" />
<glyph horiz-adv-x="330" d="M202 462v58h120v-58h-29l-79 -247h76v-58h-90v-45h90v-58h-90v-54h-71v54h-89v58h89v45h-89v58h74l-78 247h-28v58h84l72 -249h2l60 191h-24z" />
<glyph horiz-adv-x="320" d="M32 287v43h164q15 20 15 42v41q0 25 -14.5 39t-36.5 14t-36.5 -14t-14.5 -39v-43h-71v43q0 52 35 82t87 30t87 -30t35 -82v-41q0 -20 -9 -42h15v-43h-47q-9 -9 -21 -18t-29 -20.5t-23 -15.5h120v-43h-167q-13 -20 -13 -40v-42q0 -25 15 -39.5t37 -14.5q23 0 37.5 14.5 t14.5 39.5v42h71v-42q0 -52 -35 -82.5t-88 -30.5t-88 30.5t-35 82.5v42q0 23 7 40h-12v43h43q12 12 72 54h-115z" />
<glyph horiz-adv-x="368" d="M74 0v130h-39v58h39v144h-39v58h39v130h71v-130h82v130h71v-130h40v-58h-40v-144h40v-58h-40v-130h-71v130h-82v-130h-71zM145 188h82v144h-82v-144z" />
<glyph d="M162 525q54 0 90 -31t36 -85v-299q0 -54 -36 -84.5t-90 -30.5t-89.5 30.5t-35.5 84.5v299q0 54 35.5 85t89.5 31zM108 409v-299q0 -26 15.5 -41t38.5 -15t39 15t16 41v299q0 26 -16 41.5t-39 15.5t-38.5 -15.5t-15.5 -41.5z" />
<glyph d="M30 0l22 51q-15 24 -15 59v299q0 54 35.5 85t89.5 31q49 0 83 -26l9 21h41l-22 -52q15 -27 15 -59v-299q0 -54 -36 -84.5t-90 -30.5q-51 0 -83 25l-8 -20h-41zM162 54q23 0 39 15t16 41v229l-107 -248q11 -37 52 -37zM108 409v-228l106 247q-11 38 -52 38 q-23 0 -38.5 -15.5t-15.5 -41.5z" />
<glyph d="M32 0v58h96v395l-90 -55v67l90 55h71v-462h94v-58h-261z" />
<glyph d="M108 450v-93h-71v131q46 37 123 37q54 0 90 -31t36 -85v-78q0 -41 -18 -69.5t-44 -44.5t-52 -30t-44 -35t-18 -51v-43h176v-58h-247v101q0 41 18 69.5t44 44.5t52 30t44 35t18 51v78q0 26 -16 41.5t-39 15.5q-14 0 -27 -4t-19 -8z" />
<glyph d="M38 32v131h71v-93q21 -16 53 -16q23 0 38.5 15.5t15.5 41.5v70q0 26 -15.5 41t-38.5 15h-52v58h49q23 0 39 19t16 45v50q0 26 -16 41.5t-39 15.5q-14 0 -27 -4t-19 -8l-6 -4v-93h-71v131q46 37 123 37q54 0 90 -31t36 -85v-40q0 -75 -67 -102q69 -27 69 -104v-52 q0 -54 -35.5 -85t-89.5 -31q-34 0 -65 9.5t-45 18.5z" />
<glyph d="M180 0v58h25v52h-183v58l143 352h108v-352h25v-58h-25v-52h25v-58h-118zM88 168h117v276h-2z" />
<glyph d="M222 395v67h-114v-169q38 52 98 52q35 0 58.5 -22.5t23.5 -61.5v-151q0 -54 -36 -84.5t-90 -30.5q-35 0 -66 10.5t-45 20.5l-14 10v127h71v-89q21 -20 54 -20q23 0 39 15t16 41v133q0 20 -12 31.5t-29 11.5q-28 0 -48 -19t-20 -42h-71v295h246v-125h-61z" />
<glyph d="M215 357v93q-20 16 -52 16q-23 0 -39 -15.5t-16 -41.5v-146q38 52 98 52q35 0 58.5 -22.5t23.5 -61.5v-121q0 -54 -36 -84.5t-90 -30.5t-89.5 30.5t-35.5 84.5v299q0 54 36 85t90 31q34 0 65 -9.5t44 -18.5l14 -9v-131h-71zM108 185v-75q0 -26 15.5 -41t38.5 -15t39 15 t16 41v103q0 20 -12 31.5t-29 11.5q-29 0 -48.5 -19t-19.5 -52z" />
<glyph d="M30 382v138h265v-35l-146 -485h-70l140 462h-128v-80h-61z" />
<glyph d="M162 525q54 0 90 -31t36 -85v-41q0 -70 -61 -101q61 -31 61 -100v-57q0 -54 -36 -84.5t-90 -30.5t-89.5 30.5t-35.5 84.5v57q0 70 60 100q-60 30 -60 101v41q0 54 35.5 85t89.5 31zM108 409v-57q0 -26 15.5 -41t38.5 -15t39 15.5t16 40.5v57q0 26 -16 41.5t-39 15.5 t-38.5 -15.5t-15.5 -41.5zM108 180v-70q0 -26 15.5 -41t38.5 -15t39 15t16 41v70q0 26 -16 42t-39 16t-38.5 -16t-15.5 -42z" />
<glyph d="M108 163v-91q21 -18 53 -18q24 0 40 15.5t16 42.5v145q-37 -52 -98 -52q-35 0 -58.5 22.5t-23.5 61.5v121q0 54 36 84.5t90 30.5t89.5 -30.5t35.5 -84.5v-298q0 -54 -36.5 -85.5t-90.5 -31.5q-34 0 -65 9.5t-45 19.5l-14 10v129h71zM217 334v76q0 26 -15.5 41t-38.5 15 t-39 -15t-16 -41v-103q0 -20 12 -32t29 -12q29 0 48.5 19.5t19.5 51.5z" />
<glyph horiz-adv-x="160" d="M45 160v360h71v-360h-71zM45 0v100h71v-100h-71z" />
<glyph d="M217 360v60q-22 21 -55 21q-23 0 -38.5 -15.5t-15.5 -41.5v-44q0 -26 15.5 -41.5t38.5 -15.5h55v35h71v-208q0 -54 -36 -84.5t-90 -30.5t-89.5 30.5t-35.5 84.5v44q0 71 60 101q-60 28 -60 100v29q0 54 35.5 85t89.5 31q35 0 66.5 -10.5t45.5 -21.5l14 -10v-98h-71z M217 225h-55q-23 0 -38.5 -15.5t-15.5 -41.5v-58q0 -26 15.5 -41t38.5 -15t39 15t16 41v115z" />
<glyph horiz-adv-x="233" d="M30 0l102 520h71l-102 -520h-71z" />
<glyph horiz-adv-x="233" d="M132 0l-102 520h71l102 -520h-71z" />
<glyph horiz-adv-x="694" d="M346 -146v-59q-131 0 -217.5 80t-86.5 219v130q0 139 86.5 220t216.5 81q131 0 219 -81t88 -220v-224h-251v47q-38 -52 -98 -52q-34 0 -57.5 23t-23.5 61v131q0 54 35.5 84.5t89.5 30.5q35 0 66 -9.5t45 -18.5l14 -9v-230h109v166q0 110 -67.5 176t-167.5 66t-166.5 -66 t-66.5 -176v-130q0 -111 66.5 -175.5t166.5 -64.5zM401 250q-21 16 -54 16q-23 0 -38.5 -15t-15.5 -41v-113q0 -20 11.5 -31.5t29.5 -11.5q29 0 48 19t19 52v125z" />
<glyph horiz-adv-x="194" d="M162 542q-23 0 -38.5 -15.5t-15.5 -42.5v-474q0 -26 15.5 -41t38.5 -15h10v-59h-10q-54 0 -89.5 30.5t-35.5 84.5v474q0 54 35.5 85t89.5 31h10v-58h-10z" />
<glyph horiz-adv-x="194" d="M32 -46q23 0 38.5 15.5t15.5 41.5v474q0 26 -15.5 41.5t-38.5 15.5h-10v58h10q54 0 89.5 -30.5t35.5 -84.5v-474q0 -54 -35.5 -85t-89.5 -31h-10v59h10z" />
<glyph horiz-adv-x="194" d="M37 -101v696h135v-58h-64v-579h64v-59h-135z" />
<glyph horiz-adv-x="194" d="M22 -101v58h64v579h-64v59h135v-696h-135z" />
<glyph horiz-adv-x="246" d="M223 -105h-10q-52 0 -88 31t-36 82v156q0 25 -15.5 40.5t-38.5 15.5h-10v60h10q23 0 38.5 15.5t15.5 41.5v147q0 54 35 85t89 31h10v-58h-10q-23 0 -38 -15.5t-15 -42.5v-147q0 -58 -44 -87q44 -29 44 -86v-156q0 -25 15 -39.5t38 -14.5h10v-59z" />
<glyph horiz-adv-x="246" d="M25 -105v59h10q23 0 38.5 15.5t15.5 41.5v147q0 59 44 88q-44 28 -44 86v156q-1 25 -16.5 39.5t-37.5 14.5h-10v58h10q52 0 88.5 -30.5t36.5 -81.5v-156q0 -26 15 -41t38 -15h10v-61h-10q-23 0 -38 -15.5t-15 -41.5v-147q0 -54 -35.5 -85t-89.5 -31h-10z" />
<glyph horiz-adv-x="160" d="M45 -100v449h71v-449h-71zM45 419v101h71v-101h-71z" />
<glyph horiz-adv-x="321" d="M212 -30v105h71v-143q-46 -37 -123 -37q-54 0 -89.5 31t-35.5 85v73q0 39 9.5 64.5t22.5 38t26 24t22.5 31.5t9.5 51v61h71v-61q0 -39 -9.5 -64.5t-22.5 -38t-26 -24t-22.5 -31.5t-9.5 -51v-73q0 -26 15.5 -41.5t38.5 -15.5q14 0 27 4t19 8zM125 424v101h71v-101h-71z " />
<glyph horiz-adv-x="321" d="M106 450v-78h-71v116q46 37 123 37q54 0 90 -31t36 -85v-33q0 -35 -9.5 -58t-23 -34.5t-26.5 -22t-22.5 -28t-9.5 -44.5v-29h-71v29q0 35 9.5 58t23 34.5t26.5 21.5t22.5 28t9.5 45v33q0 26 -16 41.5t-39 15.5q-14 0 -27 -4t-19 -8zM122 0v100h71v-100h-71z" />
<glyph horiz-adv-x="160" d="M45 -100v671h71v-671h-71z" />
<glyph horiz-adv-x="160" d="M45 -100v290h71v-290h-71zM45 281v290h71v-290h-71z" />
<glyph horiz-adv-x="581" d="M165 0l199 520h54l-199 -520h-54zM42 310v119q0 44 27 70t68 26q40 0 68 -26t28 -70v-119q0 -44 -27.5 -69.5t-68.5 -25.5t-68 25.5t-27 69.5zM90 429v-119q0 -24 13.5 -37t33.5 -13t34 13t14 37v119q0 23 -14 37t-34 14t-33.5 -14t-13.5 -37zM349 90v119q0 44 26.5 70 t67.5 26t68.5 -26t27.5 -70v-119q0 -44 -27.5 -69.5t-68.5 -25.5t-67.5 25.5t-26.5 69.5zM397 209v-119q0 -24 13 -37t33 -13q21 0 34.5 13t13.5 37v119q0 23 -14 37t-34 14q-19 0 -32.5 -14t-13.5 -37z" />
<glyph horiz-adv-x="814" d="M165 0l198 520h54l-198 -520h-54zM42 310v119q0 44 27 70t68 26q40 0 68 -26t28 -70v-119q0 -44 -27.5 -69.5t-68.5 -25.5t-68 25.5t-27 69.5zM90 429v-119q0 -24 13.5 -37t33.5 -13t34 13t14 37v119q0 23 -14 37t-34 14t-33.5 -14t-13.5 -37zM349 90v119q0 44 26.5 70 t67.5 26t68.5 -26t27.5 -70v-119q0 -44 -27.5 -69.5t-68.5 -25.5t-67.5 25.5t-26.5 69.5zM397 209v-119q0 -24 13 -37t33 -13q21 0 34.5 13t13.5 37v119q0 23 -14 37t-34 14q-19 0 -32.5 -14t-13.5 -37zM581 90v119q0 44 27 70t68 26q40 0 68 -26t28 -70v-119 q0 -44 -27.5 -69.5t-68.5 -25.5t-68 25.5t-27 69.5zM630 209v-119q0 -24 13 -37t33 -13q21 0 34.5 13t13.5 37v119q0 23 -14 37t-34 14q-19 0 -32.5 -14t-13.5 -37z" />
<glyph horiz-adv-x="295" d="M20 330v58h92v132h71v-132h92v-58h-92v-330h-71v330h-92z" />
<glyph horiz-adv-x="295" d="M275 185v-58h-92v-127h-71v127h-92v58h92v150h-92v58h92v127h71v-127h92v-58h-92v-150h92z" />
<glyph d="M37 -189v137h71v-99q21 -20 54 -20q23 0 39 15t16 41v58q0 27 -18.5 45.5t-44.5 30t-52.5 25.5t-45 42.5t-18.5 70.5v68q0 38 19 65q-19 28 -19 72v48q0 54 35 84.5t89 30.5q35 0 66 -10t45 -20l14 -10v-138h-71v100q-21 19 -54 19q-23 0 -38 -15t-15 -41v-48 q0 -28 18.5 -46t44.5 -30t52.5 -26t45 -42t18.5 -70v-78q0 -35 -17 -60q17 -29 17 -67v-58q0 -54 -36 -84.5t-90 -30.5q-35 0 -66 10t-45 20zM217 148q0 16 -5.5 28.5t-18 22t-23 15.5t-30 15.5t-29.5 14.5q-2 -12 -2 -19v-68q0 -20 11 -36.5t22 -23.5t38 -20t36 -18 q1 4 1 11v78z" />
<glyph horiz-adv-x="463" d="M37 404q0 54 36 85t90 31h275v-58h-25v-562h-71v562h-59v-562h-71v292h-49q-54 0 -90 30.5t-36 84.5v97z" />
<glyph horiz-adv-x="582" d="M349 359v55q0 53 24.5 82t70.5 29q40 0 68 -26t28 -70v-55q0 -52 -25.5 -80.5t-70.5 -28.5q-41 0 -68 25t-27 69zM25 462v58h82l124 -341h3v341h68v-520h-57l-125 341h-2v-283h25v-58h-118v58h25v404h-25zM398 429v-70q0 -23 13 -36.5t33 -13.5t34 13.5t14 36.5v70 q0 23 -14 37t-34 14q-19 0 -32.5 -14t-13.5 -37z" />
<glyph horiz-adv-x="330" d="M89 462v58h122l88 -462h27v-58h-98l-14 109v20l-38 18h-60l-18 -89h25v-58h-120v58h26l79 404h-19zM164 458l-42 -253h85l-41 253h-2z" />
<glyph horiz-adv-x="333" d="M222 358v104h-101v-144h49q54 0 89.5 -30.5t35.5 -84.5v-87q0 -54 -35.5 -85t-89.5 -31h-145v58h25v404h-25v58h258v-162h-61zM170 259h-49v-201h49q23 0 38.5 15.5t15.5 42.5v87q0 26 -15.5 41t-38.5 15z" />
<glyph horiz-adv-x="333" d="M25 462v58h145q54 0 89.5 -31t35.5 -85v-30q0 -75 -67 -102q70 -27 70 -104v-52q0 -54 -36 -85t-90 -31h-147v58h25v404h-25zM172 242h-51v-184h51q23 0 39 15.5t16 42.5v70q0 25 -16 40.5t-39 15.5zM121 300h49q23 0 38.5 15.5t15.5 41.5v47q0 27 -15.5 42.5t-38.5 15.5 h-49v-162z" />
<glyph horiz-adv-x="300" d="M217 357v105h-96v-404h24v-58h-120v58h25v404h-25v58h253v-163h-61z" />
<glyph horiz-adv-x="388" d="M58 462v58h285v-58h-25v-404h47v-184h-71v126h-201v-126h-71v184h13q20 0 34 21.5t14 57.5v325h-25zM154 137q0 -48 -23 -79h116v404h-93v-325z" />
<glyph horiz-adv-x="317" d="M219 357v105h-98v-164h137v-58h-137v-182h98v105h61v-163h-255v58h25v404h-25v58h255v-163h-61z" />
<glyph horiz-adv-x="315" d="M62 587v101h60v-101h-60zM207 587v101h61v-101h-61zM219 357v105h-98v-164h137v-58h-137v-182h98v105h61v-163h-255v58h25v404h-25v58h255v-163h-61z" />
<glyph horiz-adv-x="500" d="M190 0v58h24v181h-37l-68 -181h24v-58h-119v58h27l84 209l-80 195h-28v58h82l78 -225h37v167h-24v58h95v-225h38l63 167h-23v58h119v-58h-27l-80 -195l84 -209h27v-58h-82l-81 239h-38v-181h25v-58h-120z" />
<glyph horiz-adv-x="321" d="M106 450v-93h-71v131q46 37 123 37q54 0 90 -31t36 -85v-35q0 -75 -67 -102q69 -27 69 -104v-57q0 -54 -35.5 -85t-89.5 -31q-53 0 -88.5 30.5t-35.5 83.5v54h71v-54q0 -25 15 -40t38 -15t38.5 15.5t15.5 41.5v75q0 26 -15.5 41t-38.5 15h-54v58h51q23 0 39 15.5t16 41.5 v52q0 26 -16 41.5t-39 15.5q-14 0 -27 -4t-19 -8z" />
<glyph horiz-adv-x="352" d="M25 462v58h93v-338h2l114 313v25h93v-58h-25v-404h25v-58h-93v338h-2l-114 -313v-25h-93v58h25v404h-25z" />
<glyph horiz-adv-x="352" d="M78 652h50q0 -24 14 -37.5t34 -13.5q21 0 35.5 13.5t14.5 37.5h49q0 -44 -28 -69.5t-71 -25.5t-70.5 25.5t-27.5 69.5zM25 462v58h93v-338h2l114 313v25h93v-58h-25v-404h25v-58h-93v338h-2l-114 -313v-25h-93v58h25v404h-25z" />
<glyph horiz-adv-x="335" d="M199 462v58h118v-58h-27l-80 -195l84 -209h27v-58h-81l-82 239h-37v-181h24v-58h-120v58h25v404h-25v58h96v-225h37l64 167h-23z" />
<glyph horiz-adv-x="355" d="M22 -5v59q21 0 34.5 21t13.5 57v330h-25v58h285v-58h-25v-404h25v-58h-96v462h-93v-330q0 -63 -34 -100t-85 -37z" />
<glyph horiz-adv-x="494" d="M25 0v58h25v404h-25v58h129l91 -430h2l92 430h130v-58h-25v-404h25v-58h-91v437h-2l-90 -437h-79l-89 437h-2v-379h24v-58h-115z" />
<glyph horiz-adv-x="350" d="M204 462v58h121v-58h-25v-404h25v-58h-96v240h-108v-182h24v-58h-120v58h25v404h-25v58h96v-222h108v164h-25z" />
<glyph d="M162 525q54 0 90 -31t36 -85v-299q0 -54 -36 -84.5t-90 -30.5t-89.5 30.5t-35.5 84.5v299q0 54 35.5 85t89.5 31zM108 409v-299q0 -26 15.5 -41t38.5 -15t39 15t16 41v299q0 26 -16 41.5t-39 15.5t-38.5 -15.5t-15.5 -41.5z" />
<glyph horiz-adv-x="350" d="M25 0v58h25v404h-25v58h300v-58h-25v-404h25v-58h-96v462h-108v-404h24v-58h-120z" />
<glyph horiz-adv-x="338" d="M25 462v58h145q54 0 89.5 -31t35.5 -85v-97q0 -54 -35.5 -84.5t-89.5 -30.5h-49v-134h24v-58h-120v58h25v404h-25zM121 250h49q23 0 38.5 15.5t15.5 41.5v97q0 27 -15.5 42.5t-38.5 15.5h-49v-212z" />
<glyph horiz-adv-x="320" d="M212 357v93q-21 16 -52 16q-22 0 -37 -15t-15 -40v-303q0 -25 14.5 -39.5t37.5 -14.5q22 0 37 14.5t15 39.5v55h71v-55q0 -53 -35 -83t-88 -30t-88 30t-35 83v303q0 53 35 83.5t88 30.5q34 0 64.5 -9.5t44.5 -18.5l14 -9v-131h-71z" />
<glyph horiz-adv-x="356" d="M118 0v58h25v404h-60v-105h-61v163h312v-163h-61v105h-59v-404h24v-58h-120z" />
<glyph horiz-adv-x="316" d="M191 462v58h120v-58h-28l-86 -364q-24 -98 -116 -98h-34v58h34q33 0 44 41l8 36h-21l-80 327h-27v58h88l64 -323h2l55 265h-23z" />
<glyph horiz-adv-x="470" d="M175 0v58h25v37h-37q-54 0 -90 31t-36 85v99q0 54 36 84.5t90 30.5h37v37h-25v58h96v-95h36q54 0 90 -30.5t36 -84.5v-99q0 -54 -36 -85t-90 -31h-36v-37h24v-58h-120zM200 366h-37q-23 0 -39 -15t-16 -41v-99q0 -26 16 -41.5t39 -15.5h37v212zM271 366v-212h36 q23 0 39 15.5t16 41.5v99q0 26 -16 41t-39 15h-36z" />
<glyph horiz-adv-x="335" d="M201 462v58h119v-58h-28l-78 -195l81 -209h28v-58h-83l-72 230h-2l-60 -172h24v-58h-119v58h28l82 209l-78 195h-29v58h85l67 -214h2l56 156h-23z" />
<glyph horiz-adv-x="375" d="M204 462v58h121v-58h-25v-404h48v-184h-71v126h-252v58h25v404h-25v58h96v-462h108v404h-25z" />
<glyph horiz-adv-x="342" d="M18 462v58h95v-226q0 -20 12 -31.5t29 -11.5q29 0 48.5 19.5t19.5 51.5v140h-25v58h96v-462h24v-58h-120v58h25v186q-37 -51 -98 -51q-35 0 -58.5 22.5t-23.5 61.5v185h-24z" />
<glyph horiz-adv-x="520" d="M25 0v58h25v404h-25v58h96v-462h103v404h-24v58h95v-462h104v404h-25v58h121v-58h-25v-404h25v-58h-470z" />
<glyph horiz-adv-x="540" d="M374 462v58h121v-58h-25v-404h47v-183h-71v125h-421v58h25v404h-25v58h96v-462h103v404h-24v58h95v-462h104v404h-25z" />
<glyph horiz-adv-x="430" d="M25 357v163h194v-187h48q55 0 90.5 -30.5t35.5 -84.5v-102q0 -54 -36 -85t-90 -31h-144v58h25v404h-62v-105h-61zM219 58h48q24 0 39.5 15.5t15.5 42.5v102q0 26 -15.5 41.5t-39.5 15.5h-48v-217z" />
<glyph horiz-adv-x="468" d="M25 462v58h96v-187h49q54 0 89.5 -30.5t35.5 -84.5v-102q0 -54 -35.5 -85t-89.5 -31h-145v58h25v404h-25zM170 275h-49v-217h49q23 0 38.5 15.5t15.5 42.5v102q0 26 -15.5 41.5t-38.5 15.5zM323 462v58h95v-462h25v-58h-120v58h24v404h-24z" />
<glyph horiz-adv-x="333" d="M25 462v58h96v-187h49q54 0 89.5 -30.5t35.5 -84.5v-102q0 -54 -35.5 -85t-89.5 -31h-145v58h25v404h-25zM170 275h-49v-217h49q23 0 38.5 15.5t15.5 42.5v102q0 26 -15.5 41.5t-38.5 15.5z" />
<glyph d="M37 357v126q5 5 15.5 12t43 18.5t67.5 11.5q54 0 89.5 -31t35.5 -85v-299q0 -54 -35.5 -84.5t-89.5 -30.5t-90 30.5t-36 84.5v53h71v-53q0 -26 16 -41t39 -15t38.5 15t15.5 41v127h-117v58h117v114q0 28 -15 42.5t-39 14.5q-15 0 -28.5 -5t-20.5 -11l-6 -5v-88h-71z" />
<glyph horiz-adv-x="473" d="M25 462v58h96v-225h64v114q0 54 35.5 85t89.5 31t90 -31t36 -85v-299q0 -54 -36 -84.5t-90 -30.5t-89.5 30.5t-35.5 84.5v127h-64v-179h24v-58h-120v58h25v404h-25zM256 409v-299q0 -26 15.5 -41t38.5 -15t39 15t16 41v299q0 26 -16 41.5t-39 15.5t-38.5 -15.5 t-15.5 -41.5z" />
<glyph horiz-adv-x="328" d="M207 0v207h-47l-52 -149h23v-58h-119v58h30l62 161q-33 10 -52.5 37t-19.5 66v82q0 54 36 85t90 31h145v-58h-25v-404h25v-58h-96zM158 265h49v197h-49q-23 0 -39 -15.5t-16 -42.5v-82q0 -26 16 -41.5t39 -15.5z" />
<glyph horiz-adv-x="289" d="M25 462v58h182v101h61v-159h-147v-404h24v-58h-120v58h25v404h-25z" />
<glyph horiz-adv-x="430" d="M273 357v105h-59v-187q38 52 98 52q34 0 57.5 -23t23.5 -61v-370q0 -47 -32 -75t-80 -28t-80.5 28t-32.5 75v55h71v-55q0 -20 12 -32t30 -12t29.5 12t11.5 32v352q0 20 -11.5 32t-29.5 12q-29 0 -48 -19.5t-19 -52.5v-139h24v-58h-120v58h25v404h-60v-105h-61v163h312 v-163h-61z" />
<glyph horiz-adv-x="290" d="M116 558l-42 42l130 110l42 -41zM217 357v105h-96v-404h24v-58h-120v58h25v404h-25v58h253v-163h-61z" />
<glyph d="M217 357v88q-22 21 -55 21q-24 0 -39 -14.5t-15 -42.5v-114h140v-58h-140v-127q0 -26 15.5 -41t38.5 -15t39 15t16 41v53h71v-53q0 -54 -36 -84.5t-90 -30.5t-89.5 30.5t-35.5 84.5v299q0 54 35.5 85t89.5 31q35 0 66.5 -10.5t45.5 -20.5l14 -11v-126h-71z" />
<glyph horiz-adv-x="320" d="M37 31v132h71v-94q20 -15 52 -15q22 0 37 14.5t15 39.5v73q0 22 -18 36t-43.5 22t-51 19t-43.5 34.5t-18 59.5v61q0 52 34.5 82t86.5 30q33 0 63 -9t44 -18l13 -9v-132h-71v94q-20 15 -49 15q-22 0 -36 -14t-14 -39v-61q0 -22 18 -36t43.5 -22t51 -19t43.5 -34.5 t18 -59.5v-73q0 -53 -35 -83t-88 -30q-34 0 -65 9t-45 18z" />
<glyph horiz-adv-x="170" d="M25 462v58h120v-58h-24v-404h24v-58h-120v58h25v404h-25z" />
<glyph horiz-adv-x="170" d="M-16 587v101h60v-101h-60zM129 587v101h61v-101h-61zM25 462v58h120v-58h-24v-404h24v-58h-120v58h25v404h-25z" />
<glyph d="M187 462v58h121v-58h-25v-353q0 -53 -35 -83.5t-87 -30.5q-34 0 -65 9.5t-45 18.5l-14 9v131h71v-94q21 -15 53 -15q22 0 36.5 15t14.5 40v353h-25z" />
<glyph horiz-adv-x="517" d="M210 0v58h24v404h-93v-330q0 -63 -34 -100t-85 -37v59q21 0 34.5 21t13.5 57v330h-25v58h260v-222h49q54 0 90 -30.5t36 -84.5v-67q0 -54 -36 -85t-90 -31h-144zM305 58h49q23 0 39 15.5t16 42.5v67q0 26 -16 41.5t-39 15.5h-49v-182z" />
<glyph horiz-adv-x="512" d="M204 462v58h121v-58h-25v-164h49q54 0 90 -30.5t36 -84.5v-67q0 -54 -36 -85t-90 -31h-120v240h-108v-182h24v-58h-120v58h25v404h-25v58h96v-222h108v164h-25zM300 58h49q23 0 39 15.5t16 42.5v67q0 26 -16 41.5t-39 15.5h-49v-182z" />
<glyph horiz-adv-x="435" d="M273 357v105h-59v-192q38 52 98 52q34 0 57.5 -23t23.5 -61v-180h25v-58h-96v220q0 20 -11.5 32t-29.5 12q-29 0 -48 -19.5t-19 -51.5v-135h24v-58h-120v58h25v404h-60v-105h-61v163h312v-163h-61z" />
<glyph horiz-adv-x="335" d="M127 558l-42 42l130 110l42 -41zM199 462v58h118v-58h-27l-80 -195l84 -209h27v-58h-81l-82 239h-37v-181h24v-58h-120v58h25v404h-25v58h96v-225h37l64 167h-23z" />
<glyph horiz-adv-x="316" d="M60 652h50q0 -24 14 -37.5t34 -13.5q21 0 35.5 13.5t14.5 37.5h49q0 -44 -28 -69.5t-71 -25.5t-70.5 25.5t-27.5 69.5zM191 462v58h120v-58h-28l-86 -364q-24 -98 -116 -98h-34v58h34q33 0 44 41l8 36h-21l-80 327h-27v58h88l64 -323h2l55 265h-23z" />
<glyph horiz-adv-x="350" d="M25 0v58h25v404h-25v58h96v-462h108v404h-25v58h121v-58h-25v-404h25v-58h-114v-125h-71v125h-115z" />
<glyph horiz-adv-x="315" d="M209 558l-131 110l42 42l130 -110zM219 357v105h-98v-164h137v-58h-137v-182h98v105h61v-163h-255v58h25v404h-25v58h255v-163h-61z" />
<glyph horiz-adv-x="352" d="M222 558l-131 110l42 42l130 -110zM25 462v58h93v-338h2l114 313v25h93v-58h-25v-404h25v-58h-93v338h-2l-114 -313v-25h-93v58h25v404h-25z" />
<glyph horiz-adv-x="320" d="M212 232h-104v-124q0 -25 15 -39.5t38 -14.5q22 0 36.5 14.5t14.5 39.5v124zM37 357v132q47 36 124 36q52 0 87 -30.5t35 -83.5v-303q0 -53 -35 -83t-87 -30q-53 0 -88.5 30t-35.5 83v182h175v121q0 25 -14.5 40t-36.5 15q-14 0 -27.5 -4t-19.5 -8l-6 -4v-93h-71z" />
<glyph horiz-adv-x="269" d="M123 462v58h121v-58h-25v-404h25v-58h-121v58h25v404h-25zM20 502q27 65 27 122v101h69v-101q0 -25 -9.5 -55.5t-18.5 -48.5l-10 -18h-58zM227 587v101h61v-101h-61z" />
<glyph horiz-adv-x="331" d="M25 462v58h120v-58h-24v-404h24v-58h-120v58h25v404h-25zM185 462v58h121v-58h-25v-404h25v-58h-121v58h25v404h-25zM-17 587v101h60v-101h-60zM135 587v101h61v-101h-61zM289 587v101h61v-101h-61z" />
</font>
</defs>
</svg>
